<?xml version="1.0" standalone="no"?>
<!DOCTYPE svg PUBLIC "-//W3C//DTD SVG 20010904//EN"
 "http://www.w3.org/TR/2001/REC-SVG-20010904/DTD/svg10.dtd">
<svg version="1.0" xmlns="http://www.w3.org/2000/svg"
 width="512.000000pt" height="512.000000pt" viewBox="0 0 512.000000 512.000000"
 preserveAspectRatio="xMidYMid meet">
<metadata>
Created by potrace 1.14, written by Peter Selinger 2001-2017
</metadata>
<g transform="translate(0.000000,512.000000) scale(0.100000,-0.100000)"
fill="#000000" stroke="none">
<path d="M2369 5116 c-2 -2 -42 -7 -89 -11 -46 -3 -87 -8 -90 -10 -3 -2 -30
-6 -60 -10 -145 -18 -446 -111 -624 -192 -790 -362 -1355 -1111 -1476 -1955
-34 -233 -34 -561 0 -758 5 -30 12 -73 16 -95 16 -111 79 -327 140 -478 332
-825 1065 -1417 1949 -1573 131 -23 220 -29 430 -29 378 0 577 38 980 188 17
6 82 37 147 68 433 214 801 550 1060 970 45 71 168 310 168 324 0 4 7 21 15
38 70 153 145 440 173 662 12 104 8 583 -7 660 -7 39 -14 81 -16 95 -19 142
-105 423 -177 580 -154 334 -293 535 -543 785 -302 302 -666 519 -1073 640
-116 34 -260 67 -357 80 -27 4 -63 9 -80 12 -38 6 -481 14 -486 9z m460 -110
c14 -3 47 -8 75 -11 162 -19 418 -89 603 -166 447 -186 846 -517 1109 -919 61
-94 149 -250 141 -250 -2 0 -25 26 -50 58 -222 280 -583 511 -940 603 -222 57
-224 57 -1202 57 -969 0 -976 0 -1191 -53 -365 -91 -733 -326 -961 -613 -58
-73 -59 -72 -13 13 288 537 790 962 1373 1161 93 32 256 76 322 88 17 3 57 10
90 15 33 6 94 14 135 17 41 4 76 8 78 9 6 5 407 -4 431 -9z m651 -736 c30 -5
75 -11 100 -14 25 -3 83 -15 130 -27 470 -115 888 -440 1109 -864 l42 -80 -68
68 c-170 168 -364 269 -601 312 -64 12 -343 14 -1657 12 -869 -2 -1593 -6
-1610 -10 -16 -5 -56 -15 -89 -23 -187 -48 -363 -150 -508 -295 -59 -59 -62
-55 -19 21 15 25 32 56 39 70 7 14 42 65 77 115 287 401 731 662 1210 711 33
4 62 8 64 10 9 8 1730 2 1781 -6z m690 -703 c14 -4 38 -10 55 -13 108 -19 274
-96 382 -175 130 -96 264 -262 322 -399 13 -30 27 -63 32 -73 49 -94 73 -396
43 -537 -83 -395 -362 -690 -753 -798 l-96 -27 -1555 -2 c-1690 -2 -1643 -4
-1801 53 -264 95 -459 264 -583 506 -139 271 -147 597 -21 873 73 160 215 331
350 422 133 90 303 156 439 172 87 10 3151 8 3186 -2z m-3826 -1813 c168 -158
365 -259 583 -298 119 -21 3163 -22 3273 -1 226 44 445 160 599 315 28 28 51
48 51 44 0 -29 -145 -254 -228 -353 -246 -295 -616 -516 -977 -585 -44 -9 -96
-19 -115 -22 -53 -11 -1804 -14 -1885 -3 -155 20 -231 37 -365 81 -367 120
-689 372 -902 703 -46 71 -111 185 -106 185 2 0 34 -30 72 -66z m4394 -341
c-254 -475 -687 -882 -1161 -1090 -157 -69 -156 -69 -260 -102 -264 -85 -475
-116 -772 -115 -564 2 -1083 189 -1534 551 -202 161 -446 443 -558 643 -11 19
-35 61 -52 93 -32 56 -31 83 1 30 23 -40 181 -200 262 -268 253 -210 604 -362
926 -402 85 -10 1865 -10 1950 0 36 4 85 13 110 18 25 6 59 13 75 16 66 11
269 84 370 133 241 118 479 308 631 503 20 26 38 47 40 47 1 0 -11 -26 -28
-57z"/>
<path d="M645 2563 l0 -478 378 -3 377 -2 0 133 0 133 -222 -1 -223 0 -3 348
-2 347 -153 0 -152 0 0 -477z"/>
<path d="M1607 3033 c-3 -5 -5 -221 -4 -481 l0 -472 391 2 391 3 0 129 0 129
-237 0 c-235 -1 -237 -1 -240 21 -8 51 2 66 46 66 22 1 108 2 189 3 l149 2 0
85 c0 47 -1 103 -1 125 l-1 41 -187 -1 -188 0 -5 30 c-12 66 -22 63 236 61
149 0 235 3 235 9 1 6 2 65 3 133 l1 122 -387 0 c-213 0 -389 -3 -391 -7z"/>
<path d="M2589 3000 c0 -22 0 -229 0 -460 0 -231 0 -429 0 -440 1 -20 8 -20
391 -20 365 0 390 1 391 18 6 184 3 242 -11 243 -8 0 -116 1 -240 2 l-225 2
-3 43 -3 42 63 1 c35 0 122 0 194 0 l132 -1 0 113 c0 61 -2 119 -4 127 -3 13
-31 16 -191 15 l-188 0 -1 46 -1 47 238 -2 239 -1 1 25 c1 38 1 160 0 203 l-1
37 -390 0 -390 0 -1 -40z"/>
<path d="M3579 3033 c-1 -5 -2 -221 -3 -480 l-2 -473 153 0 153 0 0 108 0 109
85 0 85 0 60 -104 c34 -57 66 -106 73 -109 7 -2 87 -3 179 -2 l166 3 -92 139
-91 138 56 57 c166 166 126 452 -78 564 -95 51 -142 57 -455 57 -158 0 -289
-3 -289 -7z m569 -275 c57 -30 69 -113 23 -159 -33 -32 -25 -31 -178 -33
l-113 -1 0 102 0 102 38 3 c74 6 208 -2 230 -14z"/>
</g>
</svg>
