<?xml version="1.0" standalone="no"?>
<!DOCTYPE svg PUBLIC "-//W3C//DTD SVG 20010904//EN"
 "http://www.w3.org/TR/2001/REC-SVG-20010904/DTD/svg10.dtd">
<svg version="1.0" xmlns="http://www.w3.org/2000/svg"
 width="96.000000pt" height="96.000000pt" viewBox="0 0 96.000000 96.000000"
 preserveAspectRatio="xMidYMid meet">
<metadata>
Created by potrace 1.14, written by Peter Selinger 2001-2017
</metadata>
<g transform="translate(0.000000,96.000000) scale(0.100000,-0.100000)"
fill="#000000" stroke="none">
<path d="M60 730 l0 -210 160 0 160 0 0 60 0 60 -90 0 -90 0 0 150 0 150 -70
0 -70 0 0 -210z"/>
<path d="M480 730 l0 -210 170 0 170 0 0 60 0 60 -100 0 c-93 0 -100 1 -100
20 0 18 7 20 80 20 l80 0 0 50 0 50 -80 0 c-73 0 -80 2 -80 20 0 19 7 20 100
20 l100 0 0 60 0 60 -170 0 -170 0 0 -210z"/>
<path d="M60 230 l0 -210 170 0 170 0 0 60 0 60 -110 0 c-103 0 -110 1 -110
20 0 19 7 20 90 20 l90 0 0 50 0 50 -90 0 c-83 0 -90 1 -90 20 0 19 7 20 110
20 l110 0 0 60 0 60 -170 0 -170 0 0 -210z"/>
<path d="M480 231 l0 -211 70 0 70 0 0 50 0 50 39 0 c37 0 42 -3 68 -50 l28
-50 78 0 c42 0 77 2 77 4 0 2 -18 30 -39 62 -37 54 -38 59 -21 71 27 19 53 83
52 126 -2 50 -24 90 -69 124 -36 28 -39 28 -195 31 l-158 4 0 -211z m281 68
c23 -36 -8 -59 -82 -59 l-59 0 0 41 0 41 66 -4 c42 -3 69 -9 75 -19z"/>
</g>
</svg>
