<?xml version="1.0" encoding="UTF-8"?>
<svg id="Ebene_1"
  xmlns="http://www.w3.org/2000/svg" viewBox="0 0 751.67 500">
  <defs>
    <style></style>
  </defs>
  <g id="Eigentum" class="cls-3">
    <g class="cls-3">
      <path class="cls-2" d="m132.82,143.04v3.22h12.97v8.37h-12.97v3.08h16.1v8.79h-26.22v-32.2h26.22v8.74h-16.1Z"/>
      <path class="cls-2" d="m158.12,134.3h10.12v32.2h-10.12v-32.2Z"/>
      <path class="cls-2" d="m177.44,150.4c0-9.94,7.36-16.65,17.67-16.65h.14c8.65,0,15.23,4.69,17.11,12.1h-11.41c-1.1-1.47-3.08-2.67-5.7-2.67h-.14c-4.46,0-7.36,3.04-7.36,7.31s2.9,7.54,7.36,7.54h.14c2.71,0,4.78-1.2,5.43-2.3h-5.43v-7.36l17.53.05v1.98c0,9.25-7.22,16.65-17.53,16.65h-.14c-10.08,0-17.67-6.67-17.67-16.65Z"/>
      <path class="cls-2" d="m231.17,143.04v3.22h12.97v8.37h-12.97v3.08h16.1v8.79h-26.22v-32.2h26.22v8.74h-16.1Z"/>
      <path class="cls-2" d="m288.81,134.3v32.2h-9.94l-12.47-16.93v16.93h-9.94v-32.2h9.94l12.47,16.52v-16.52h9.94Z"/>
      <path class="cls-2" d="m329.56,143.18h-10.72v23.32h-10.12v-23.32h-10.72v-8.88h31.56v8.88Z"/>
      <path class="cls-2" d="m338.76,151.82v-17.53h10.12v16.61c0,3.4,1.52,6.39,5.75,6.39h.14c4.28,0,5.75-2.99,5.75-6.39v-16.61h10.12v17.53c0,9.98-6.03,15.23-15.87,15.23h-.14c-9.84,0-15.87-5.24-15.87-15.23Z"/>
      <path class="cls-2" d="m415.95,134.3v32.2h-9.89v-16.1l-7.96,9.98-8.37-10.26v16.38h-9.89v-32.2h9.89l8.37,11.09,7.96-11.09h9.89Z"/>
    </g>
  </g>
  <g id="Verpflichtet" class="cls-3">
    <g class="cls-3">
      <path class="cls-2" d="m156.29,190.3l-8.51,32.2h-18.49v-.37l-8.42-31.84h10.67l5.7,23.33h2.58l5.75-23.33h10.72Z"/>
      <path class="cls-2" d="m173.77,199.04v3.22h12.97v8.37h-12.97v3.08h16.1v8.79h-26.22v-32.2h26.22v8.74h-16.1Z"/>
      <path class="cls-2" d="m199.07,190.3h17.53c8.23,0,13.66,5.57,13.66,12.42,0,4.19-2.02,7.91-5.52,10.17l6.35,9.62h-11.73l-4.37-7.36h-5.75v7.36h-10.17v-32.2Zm17.53,15.96c1.93,0,3.54-1.56,3.54-3.54s-1.61-3.54-3.54-3.54h-7.36v7.08h7.36Z"/>
      <path class="cls-2" d="m270.1,202.72c0,6.85-5.43,12.42-13.66,12.42h-7.41v7.36h-10.12v-32.2h17.53c8.23,0,13.66,5.57,13.66,12.42Zm-10.12,0c0-1.98-1.61-3.54-3.54-3.54h-7.41v7.08h7.41c1.93,0,3.54-1.56,3.54-3.54Z"/>
      <path class="cls-2" d="m288.5,199.04v4.42h12.97v8.74h-12.97v10.3h-10.12v-32.2h26.22v8.74h-16.1Z"/>
      <path class="cls-2" d="m339.05,213.62v8.88h-25.26v-32.2h10.12v23.33h15.14Z"/>
      <path class="cls-2" d="m348.25,190.3h10.12v32.2h-10.12v-32.2Z"/>
      <path class="cls-2" d="m392.41,208.65h10.49c-1.01,8.7-8,14.4-17.53,14.4h-.14c-10.08,0-17.67-6.67-17.67-16.65s7.36-16.65,17.67-16.65h.14c9.52,0,16.52,5.71,17.53,14.4h-10.49c-.92-2.81-3.54-4.97-7.04-4.97h-.14c-4.37,0-7.36,3.04-7.36,7.22s2.99,7.22,7.36,7.22h.14c3.5,0,6.12-2.12,7.04-4.97Z"/>
      <path class="cls-2" d="m443.01,190.3v32.2h-10.12v-11.96h-11.59v11.96h-10.12v-32.2h10.12v11.27h11.59v-11.27h10.12Z"/>
      <path class="cls-2" d="m483.77,199.18h-10.72v23.32h-10.12v-23.32h-10.72v-8.88h31.56v8.88Z"/>
      <path class="cls-2" d="m503.08,199.04v3.22h12.97v8.37h-12.97v3.08h16.1v8.79h-26.22v-32.2h26.22v8.74h-16.1Z"/>
      <path class="cls-2" d="m559.94,199.18h-10.72v23.32h-10.12v-23.32h-10.72v-8.88h31.56v8.88Z"/>
    </g>
  </g>
  <g id="Sein_Gebrauch_soll_zugleich_dem_Wohle_der_Allgemeinheit_dienen." class="cls-3">
    <g class="cls-3">
      <path class="cls-2" d="m215.81,309.23l1.41-1.22c.9,1.36,2.14,2.04,3.8,2.04,2.16,0,3.49-1.11,3.49-2.9,0-1.13-.59-1.81-2.18-2.16l-1.55-.34c-2.27-.52-3.28-1.74-3.28-3.61,0-2.75,2.14-4.45,5.33-4.45,2.46,0,4.01,1.03,4.79,2.35l-1.41,1.09c-.78-1.16-1.89-1.76-3.46-1.76-2.02,0-3.21,1.01-3.21,2.6,0,1.24.76,1.78,2.27,2.14l1.49.36c2.37.57,3.28,1.78,3.28,3.61,0,2.81-2.16,4.77-5.65,4.77-2.5,0-4.24-1.03-5.1-2.52Z"/>
      <path class="cls-2" d="m229.4,307.11c0-3.95,2.48-6.7,6.05-6.7,2.12,0,3.72,1.03,3.72,2.94,0,1.55-1.01,3.44-7.77,3.65-.02.19-.02.4-.02.46,0,1.43.46,2.69,2.58,2.69,1.49,0,2.35-.61,3.55-2.29l1.3.82c-1.22,1.93-2.67,3.07-5.04,3.07-2.81,0-4.37-1.57-4.37-4.64Zm2.16-1.6l-.02.23c5.02-.17,5.71-1.32,5.71-2.31,0-.84-.55-1.51-1.99-1.51-2.02,0-3.36,1.26-3.7,3.59Z"/>
      <path class="cls-2" d="m244.54,310.09c0-.29.06-.63.13-.99l1.32-6.84h-3.8l.27-1.6h5.73l-1.78,9.28.46.19,3.91-3.46,1.11,1.03-1.78,1.7c-1.87,1.79-2.71,2.35-3.76,2.35-1.18,0-1.81-.67-1.81-1.66Zm1.81-12.58c0-.17.02-.38.08-.67.15-.69.57-1.07,1.49-1.07s1.32.42,1.32.92c0,.17-.02.38-.08.67-.15.69-.57,1.07-1.49,1.07s-1.32-.42-1.32-.92Z"/>
      <path class="cls-2" d="m254.22,311.5l1.81-10.83h1.91l-.42,2.56h.1c.8-1.72,1.85-2.81,3.59-2.81,1.87,0,2.94,1.22,2.94,3.13,0,.46-.04.96-.15,1.55l-1.07,6.4h-1.91l1.07-6.36c.08-.48.1-.88.1-1.18,0-1.16-.52-1.93-1.7-1.93-.9,0-1.55.46-2.16,1.15-.27.31-1.03,1.22-1.22,2.39l-.99,5.92h-1.91Z"/>
      <path class="cls-2" d="m287.04,309.36h-.13c-.76,1.3-1.62,2.39-3.49,2.39-2.46,0-3.8-1.83-3.8-5.31,0-3.8,1.47-9.85,6.61-9.85,2.77,0,3.84,1.72,4.14,3.51l-1.85.52c-.25-1.26-.76-2.33-2.44-2.33-2.25,0-3.49,1.87-3.97,4.72l-.34,2.04c-.1.61-.13,1.32-.13,1.72,0,2.02.69,3.3,2.44,3.3,1.89,0,3.07-1.49,3.36-3.25l.19-1.11h-2.98l.25-1.53h4.81l-1.22,7.33h-1.83l.36-2.14Z"/>
      <path class="cls-2" d="m292.39,307.11c0-3.95,2.48-6.7,6.05-6.7,2.12,0,3.72,1.03,3.72,2.94,0,1.55-1.01,3.44-7.77,3.65-.02.19-.02.4-.02.46,0,1.43.46,2.69,2.58,2.69,1.49,0,2.35-.61,3.55-2.29l1.3.82c-1.22,1.93-2.67,3.07-5.04,3.07-2.81,0-4.37-1.57-4.37-4.64Zm2.16-1.6l-.02.23c5.02-.17,5.71-1.32,5.71-2.31,0-.84-.55-1.51-1.99-1.51-2.02,0-3.36,1.26-3.7,3.59Z"/>
      <path class="cls-2" d="m307.11,295.96h1.91l-1.22,7.26h.06c.84-1.68,1.91-2.81,3.8-2.81,2.2,0,3.34,1.47,3.34,4.2,0,3.17-1.43,7.14-5.08,7.14-1.62,0-2.67-.76-3.11-2.16h-.08l-.31,1.91h-1.91l2.6-15.54Zm5.65,10.92l.23-1.45c.06-.36.08-.67.08-.94,0-1.51-.69-2.46-2.12-2.46-.88,0-1.7.4-2.39,1.18-.5.57-1.01,1.41-1.15,2.39l-.4,2.27c-.23,1.43.76,2.27,2.31,2.27,1.97,0,3.11-1.3,3.44-3.25Z"/>
      <path class="cls-2" d="m319.74,311.5l1.53-9.24h-2.92l.27-1.6h4.83l-.5,2.96h.1c.8-1.79,1.93-2.96,4.01-2.96h1.47l-.31,1.91h-1.89c-1.22,0-1.93.36-2.6,1.07-.31.34-.97,1.18-1.15,2.33l-.92,5.52h-1.91Z"/>
      <path class="cls-2" d="m336.62,311.5l.42-2.56h-.06c-.84,1.68-1.91,2.81-3.8,2.81-2.2,0-3.34-1.47-3.34-4.2,0-3.17,1.43-7.14,5.08-7.14,1.62,0,2.67.76,3.11,2.16h.08l.31-1.91h1.91l-1.81,10.83h-1.91Zm-.34-2.54c.52-.57.99-1.41,1.15-2.39l.38-2.27c.23-1.43-.76-2.27-2.31-2.27-1.97,0-3.09,1.3-3.42,3.25l-.23,1.45c-.06.36-.08.67-.08.94,0,1.51.69,2.46,2.12,2.46.88,0,1.68-.4,2.39-1.18Z"/>
      <path class="cls-2" d="m349.55,308.94h-.08c-.8,1.72-1.87,2.81-3.61,2.81-1.85,0-2.94-1.22-2.94-3.13,0-.46.04-.96.15-1.55l1.07-6.4h1.91l-1.05,6.36c-.08.46-.13.88-.13,1.18,0,1.16.55,1.93,1.7,1.93.9,0,1.57-.46,2.18-1.15.27-.31,1.01-1.22,1.2-2.39l.99-5.92h1.91l-1.81,10.83h-1.91l.42-2.56Z"/>
      <path class="cls-2" d="m355.44,307.17c0-4.05,2.41-6.76,5.65-6.76,2.33,0,3.46,1.15,3.86,2.62l-1.62.67c-.4-1.24-1.11-1.68-2.44-1.68-1.72,0-2.86,1.15-3.21,3.28l-.21,1.26c-.08.46-.1.73-.1,1.01,0,1.72.97,2.56,2.5,2.56.94,0,1.83-.29,3.51-2.58l1.32.8c-1.39,2.2-2.75,3.4-5.08,3.4-2.75,0-4.18-1.83-4.18-4.58Z"/>
      <path class="cls-2" d="m370.22,295.96h1.91l-1.22,7.26h.1c.8-1.72,1.85-2.81,3.59-2.81,1.87,0,2.94,1.22,2.94,3.13,0,.46-.04.96-.15,1.55l-1.07,6.4h-1.91l1.07-6.36c.08-.48.1-.88.1-1.18,0-1.16-.52-1.93-1.7-1.93-.9,0-1.55.46-2.16,1.15-.29.34-1.03,1.22-1.22,2.39l-.99,5.92h-1.91l2.6-15.54Z"/>
      <path class="cls-2" d="m392.71,309.76l1.3-1.09c.8,1.01,1.89,1.55,3.46,1.55,1.78,0,2.88-.71,2.88-1.91,0-.92-.65-1.2-1.49-1.34l-1.55-.25c-1.6-.25-3.17-.8-3.17-2.79,0-2.33,2.1-3.51,4.7-3.51,1.89,0,3.3.63,4.09,1.64l-1.26,1.13c-.4-.57-1.3-1.24-3-1.24s-2.67.69-2.67,1.78c0,.97.73,1.18,1.57,1.32l1.55.27c1.45.27,3.11.69,3.11,2.75,0,2.29-1.97,3.67-4.93,3.67-2.1,0-3.7-.71-4.6-1.99Z"/>
      <path class="cls-2" d="m405.58,307.15c0-4.14,2.5-6.74,5.75-6.74,2.83,0,4.33,1.85,4.33,4.6,0,4.14-2.5,6.74-5.77,6.74-2.81,0-4.3-1.85-4.3-4.6Zm7.83-.27l.21-1.32c.08-.46.11-.78.11-1.03,0-1.72-.97-2.52-2.48-2.52-1.91,0-3.09,1.24-3.42,3.28l-.21,1.32c-.08.46-.1.78-.1,1.03,0,1.72.97,2.52,2.48,2.52,1.91,0,3.09-1.24,3.42-3.28Z"/>
      <path class="cls-2" d="m420.47,310.07c0-.25.02-.55.08-.88l2.23-11.63h-3.7l.27-1.6h5.67l-2.69,14,.48.17,4.05-3.53,1.07,1.03-1.99,1.87c-1.93,1.8-2.75,2.25-3.72,2.25-1.24,0-1.76-.69-1.76-1.68Z"/>
      <path class="cls-2" d="m433.07,310.07c0-.25.02-.55.08-.88l2.23-11.63h-3.7l.27-1.6h5.67l-2.69,14,.48.17,4.05-3.53,1.07,1.03-2,1.87c-1.93,1.8-2.75,2.25-3.72,2.25-1.24,0-1.76-.69-1.76-1.68Z"/>
      <path class="cls-2" d="m461.27,311.23l-3.44-1.22-.11.08-.23,1.41h-1.83l.25-1.81,7.37-6.61c-1.53-.82-2.44-1.09-3.25-1.09-1.45,0-1.76,1.07-1.76,2.35h-1.51v-.23c0-2.37,1.22-3.7,3.3-3.7,1.2,0,2.39.44,3.97,1.49l.36.21.1-.08.21-1.37h1.85l-.27,1.76-7.37,6.61,5.12,1.16.23-.25-.65-2.65,1.3-.5.34.8c.34.74.57,1.51.57,2.16,0,1.01-.82,1.95-2.21,1.95-.67,0-1.39-.13-2.33-.48Z"/>
      <path class="cls-2" d="m475.55,308.94h-.08c-.8,1.72-1.87,2.81-3.61,2.81-1.85,0-2.94-1.22-2.94-3.13,0-.46.04-.96.15-1.55l1.07-6.4h1.91l-1.05,6.36c-.08.46-.13.88-.13,1.18,0,1.16.55,1.93,1.7,1.93.9,0,1.57-.46,2.18-1.15.27-.31,1.01-1.22,1.2-2.39l.99-5.92h1.91l-1.81,10.83h-1.91l.42-2.56Z"/>
      <path class="cls-2" d="m480.51,314.44l1.26-1.24c.59.73,1.47,1.13,2.73,1.13,1.89,0,3-.86,3.42-3.3l.42-2.48h-.1c-.82,1.72-1.91,2.81-3.8,2.81-2.25,0-3.38-1.51-3.38-4.12,0-3.02,1.47-6.84,5.06-6.84,1.64,0,2.69.76,3.11,2.16h.08l.32-1.91h1.93l-1.79,10.69c-.57,3.25-2.54,4.6-5.35,4.6-1.79,0-3.09-.48-3.91-1.51Zm7.05-5.84c.42-.48.97-1.24,1.15-2.37l.32-1.95c.23-1.41-.76-2.25-2.33-2.25-1.93,0-3.09,1.3-3.4,3.21l-.19,1.09c-.06.36-.11.61-.11.94,0,1.58.71,2.48,2.14,2.48.86,0,1.7-.34,2.42-1.16Z"/>
      <path class="cls-2" d="m496.07,310.07c0-.25.02-.55.08-.88l2.23-11.63h-3.7l.27-1.6h5.67l-2.69,14,.48.17,4.05-3.53,1.07,1.03-2,1.87c-1.93,1.8-2.75,2.25-3.72,2.25-1.24,0-1.76-.69-1.76-1.68Z"/>
      <path class="cls-2" d="m506.59,307.11c0-3.95,2.48-6.7,6.05-6.7,2.12,0,3.72,1.03,3.72,2.94,0,1.55-1.01,3.44-7.77,3.65-.02.19-.02.4-.02.46,0,1.43.46,2.69,2.58,2.69,1.49,0,2.35-.61,3.55-2.29l1.3.82c-1.22,1.93-2.67,3.07-5.04,3.07-2.81,0-4.37-1.57-4.37-4.64Zm2.16-1.6l-.02.23c5.02-.17,5.71-1.32,5.71-2.31,0-.84-.55-1.51-1.99-1.51-2.02,0-3.36,1.26-3.7,3.59Z"/>
      <path class="cls-2" d="m521.73,310.09c0-.29.06-.63.13-.99l1.32-6.84h-3.8l.27-1.6h5.73l-1.78,9.28.46.19,3.91-3.46,1.11,1.03-1.78,1.7c-1.87,1.79-2.71,2.35-3.76,2.35-1.18,0-1.81-.67-1.81-1.66Zm1.81-12.58c0-.17.02-.38.08-.67.15-.69.57-1.07,1.49-1.07s1.32.42,1.32.92c0,.17-.02.38-.08.67-.15.69-.57,1.07-1.49,1.07s-1.32-.42-1.32-.92Z"/>
      <path class="cls-2" d="m531.83,307.17c0-4.05,2.41-6.76,5.65-6.76,2.33,0,3.46,1.15,3.86,2.62l-1.62.67c-.4-1.24-1.11-1.68-2.44-1.68-1.72,0-2.86,1.15-3.21,3.28l-.21,1.26c-.08.46-.1.73-.1,1.01,0,1.72.97,2.56,2.5,2.56.95,0,1.83-.29,3.51-2.58l1.32.8c-1.39,2.2-2.75,3.4-5.08,3.4-2.75,0-4.18-1.83-4.18-4.58Z"/>
      <path class="cls-2" d="m546.62,295.96h1.91l-1.22,7.26h.11c.8-1.72,1.85-2.81,3.59-2.81,1.87,0,2.94,1.22,2.94,3.13,0,.46-.04.96-.15,1.55l-1.07,6.4h-1.91l1.07-6.36c.08-.48.11-.88.11-1.18,0-1.16-.53-1.93-1.7-1.93-.9,0-1.55.46-2.16,1.15-.29.34-1.03,1.22-1.22,2.39l-.99,5.92h-1.91l2.6-15.54Z"/>
    </g>
    <g class="cls-3">
      <path class="cls-2" d="m223.64,336.94h-.06c-.84,1.68-1.91,2.81-3.8,2.81-2.2,0-3.34-1.47-3.34-4.2,0-3.17,1.43-7.14,5.08-7.14,1.62,0,2.67.76,3.11,2.16h.08l1.11-6.61h1.91l-2.6,15.54h-1.91l.42-2.56Zm-.76.02c.52-.57.99-1.41,1.15-2.39l.38-2.27c.23-1.43-.76-2.27-2.31-2.27-1.97,0-3.09,1.3-3.42,3.25l-.23,1.45c-.06.36-.08.67-.08.94,0,1.51.69,2.46,2.12,2.46.88,0,1.68-.4,2.39-1.18Z"/>
      <path class="cls-2" d="m229.4,335.11c0-3.95,2.48-6.7,6.05-6.7,2.12,0,3.72,1.03,3.72,2.94,0,1.55-1.01,3.44-7.77,3.65-.02.19-.02.4-.02.46,0,1.43.46,2.69,2.58,2.69,1.49,0,2.35-.61,3.55-2.29l1.3.82c-1.22,1.93-2.67,3.07-5.04,3.07-2.81,0-4.37-1.57-4.37-4.64Zm2.16-1.6l-.02.23c5.02-.17,5.71-1.32,5.71-2.31,0-.84-.55-1.51-1.99-1.51-2.02,0-3.36,1.26-3.7,3.59Z"/>
      <path class="cls-2" d="m240.67,339.5l1.81-10.83h1.7l-.27,1.74h.08c.5-1.13,1.18-1.99,2.37-1.99s1.74.84,1.64,2.08h.08c.55-1.24,1.34-2.08,2.62-2.08,1.2,0,1.85.73,1.85,2.06,0,.42-.06,1.01-.15,1.51l-1.26,7.52h-1.7l1.22-7.24c.06-.46.13-.92.13-1.22,0-.74-.27-1.11-.86-1.11-.55,0-.94.34-1.28.82-.38.55-.61,1.18-.71,1.83l-1.18,6.93h-1.7l1.22-7.24c.08-.46.13-.84.13-1.18,0-.82-.27-1.15-.82-1.15s-.99.31-1.32.82c-.38.57-.63,1.2-.71,1.79l-1.18,6.97h-1.7Z"/>
      <path class="cls-2" d="m266.54,339.5l1.34-14.66h1.74l-.82,8.36-.42,4.37h.17l3.28-9.03h2.14l.34,9.03h.17l.97-4.22,1.99-8.5h1.76l-3.55,14.66h-2.81l-.21-8.69h-.17l-3.11,8.69h-2.81Z"/>
      <path class="cls-2" d="m279.58,335.15c0-4.14,2.5-6.74,5.75-6.74,2.83,0,4.33,1.85,4.33,4.6,0,4.14-2.5,6.74-5.77,6.74-2.81,0-4.3-1.85-4.3-4.6Zm7.83-.27l.21-1.32c.08-.46.1-.78.1-1.03,0-1.72-.97-2.52-2.48-2.52-1.91,0-3.09,1.24-3.42,3.28l-.21,1.32c-.08.46-.1.78-.1,1.03,0,1.72.97,2.52,2.48,2.52,1.91,0,3.09-1.24,3.42-3.28Z"/>
      <path class="cls-2" d="m294.62,323.96h1.91l-1.22,7.26h.1c.8-1.72,1.85-2.81,3.59-2.81,1.87,0,2.94,1.22,2.94,3.13,0,.46-.04.96-.15,1.55l-1.07,6.4h-1.91l1.07-6.36c.08-.48.1-.88.1-1.18,0-1.16-.52-1.93-1.7-1.93-.9,0-1.55.46-2.16,1.15-.29.34-1.03,1.22-1.22,2.39l-.99,5.92h-1.91l2.6-15.54Z"/>
      <path class="cls-2" d="m307.07,338.07c0-.25.02-.55.08-.88l2.23-11.63h-3.7l.27-1.6h5.67l-2.69,14,.48.17,4.05-3.53,1.07,1.03-1.99,1.87c-1.93,1.8-2.75,2.25-3.72,2.25-1.24,0-1.76-.69-1.76-1.68Z"/>
      <path class="cls-2" d="m317.59,335.11c0-3.95,2.48-6.7,6.05-6.7,2.12,0,3.72,1.03,3.72,2.94,0,1.55-1.01,3.44-7.77,3.65-.02.19-.02.4-.02.46,0,1.43.46,2.69,2.58,2.69,1.49,0,2.35-.61,3.55-2.29l1.3.82c-1.22,1.93-2.67,3.07-5.04,3.07-2.81,0-4.37-1.57-4.37-4.64Zm2.16-1.6l-.02.23c5.02-.17,5.71-1.32,5.71-2.31,0-.84-.55-1.51-1.99-1.51-2.02,0-3.36,1.26-3.7,3.59Z"/>
      <path class="cls-2" d="m349.64,336.94h-.06c-.84,1.68-1.91,2.81-3.8,2.81-2.2,0-3.34-1.47-3.34-4.2,0-3.17,1.43-7.14,5.08-7.14,1.62,0,2.67.76,3.11,2.16h.08l1.11-6.61h1.91l-2.6,15.54h-1.91l.42-2.56Zm-.76.02c.52-.57.99-1.41,1.15-2.39l.38-2.27c.23-1.43-.76-2.27-2.31-2.27-1.97,0-3.09,1.3-3.42,3.25l-.23,1.45c-.06.36-.08.67-.08.94,0,1.51.69,2.46,2.12,2.46.88,0,1.68-.4,2.39-1.18Z"/>
      <path class="cls-2" d="m355.39,335.11c0-3.95,2.48-6.7,6.05-6.7,2.12,0,3.72,1.03,3.72,2.94,0,1.55-1.01,3.44-7.77,3.65-.02.19-.02.4-.02.46,0,1.43.46,2.69,2.58,2.69,1.49,0,2.35-.61,3.55-2.29l1.3.82c-1.22,1.93-2.67,3.07-5.04,3.07-2.81,0-4.37-1.57-4.37-4.64Zm2.16-1.6l-.02.23c5.02-.17,5.71-1.32,5.71-2.31,0-.84-.55-1.51-1.99-1.51-2.02,0-3.36,1.26-3.7,3.59Z"/>
      <path class="cls-2" d="m370.13,339.5l1.53-9.24h-2.92l.27-1.6h4.83l-.5,2.96h.1c.8-1.79,1.93-2.96,4.01-2.96h1.47l-.31,1.91h-1.89c-1.22,0-1.93.36-2.6,1.07-.31.34-.97,1.18-1.15,2.33l-.92,5.52h-1.91Z"/>
      <path class="cls-2" d="m400.84,339.5l-.5-4.05h-4.96l-1.85,4.05h-2.1l6.82-14.66h2.71l1.95,14.66h-2.08Zm-1.47-12.64h-.19l-3.07,6.87h4.07l-.82-6.87Z"/>
      <path class="cls-2" d="m407.87,338.07c0-.25.02-.55.08-.88l2.23-11.63h-3.7l.27-1.6h5.67l-2.69,14,.48.17,4.05-3.53,1.07,1.03-1.99,1.87c-1.93,1.8-2.75,2.25-3.72,2.25-1.24,0-1.76-.69-1.76-1.68Z"/>
      <path class="cls-2" d="m420.47,338.07c0-.25.02-.55.08-.88l2.23-11.63h-3.7l.27-1.6h5.67l-2.69,14,.48.17,4.05-3.53,1.07,1.03-1.99,1.87c-1.93,1.8-2.75,2.25-3.72,2.25-1.24,0-1.76-.69-1.76-1.68Z"/>
      <path class="cls-2" d="m430.11,342.44l1.26-1.24c.59.73,1.47,1.13,2.73,1.13,1.89,0,3-.86,3.42-3.3l.42-2.48h-.11c-.82,1.72-1.91,2.81-3.8,2.81-2.25,0-3.38-1.51-3.38-4.12,0-3.02,1.47-6.84,5.06-6.84,1.64,0,2.69.76,3.11,2.16h.08l.31-1.91h1.93l-1.78,10.69c-.57,3.25-2.54,4.6-5.35,4.6-1.78,0-3.09-.48-3.91-1.51Zm7.05-5.84c.42-.48.97-1.24,1.16-2.37l.31-1.95c.23-1.41-.76-2.25-2.33-2.25-1.93,0-3.09,1.3-3.4,3.21l-.19,1.09c-.06.36-.1.61-.1.94,0,1.58.71,2.48,2.14,2.48.86,0,1.7-.34,2.41-1.16Z"/>
      <path class="cls-2" d="m443.59,335.11c0-3.95,2.48-6.7,6.05-6.7,2.12,0,3.72,1.03,3.72,2.94,0,1.55-1.01,3.44-7.77,3.65-.02.19-.02.4-.02.46,0,1.43.46,2.69,2.58,2.69,1.49,0,2.35-.61,3.55-2.29l1.3.82c-1.22,1.93-2.67,3.07-5.04,3.07-2.81,0-4.37-1.57-4.37-4.64Zm2.16-1.6l-.02.23c5.02-.17,5.71-1.32,5.71-2.31,0-.84-.55-1.51-1.99-1.51-2.02,0-3.36,1.26-3.7,3.59Z"/>
      <path class="cls-2" d="m454.87,339.5l1.81-10.83h1.7l-.27,1.74h.08c.5-1.13,1.18-1.99,2.37-1.99s1.74.84,1.64,2.08h.08c.55-1.24,1.34-2.08,2.62-2.08,1.2,0,1.85.73,1.85,2.06,0,.42-.06,1.01-.15,1.51l-1.26,7.52h-1.7l1.22-7.24c.06-.46.13-.92.13-1.22,0-.74-.27-1.11-.86-1.11-.55,0-.95.34-1.28.82-.38.55-.61,1.18-.71,1.83l-1.18,6.93h-1.7l1.22-7.24c.08-.46.13-.84.13-1.18,0-.82-.27-1.15-.82-1.15s-.99.31-1.32.82c-.38.57-.63,1.2-.71,1.79l-1.18,6.97h-1.7Z"/>
      <path class="cls-2" d="m468.79,335.11c0-3.95,2.48-6.7,6.05-6.7,2.12,0,3.72,1.03,3.72,2.94,0,1.55-1.01,3.44-7.77,3.65-.02.19-.02.4-.02.46,0,1.43.46,2.69,2.58,2.69,1.49,0,2.35-.61,3.55-2.29l1.3.82c-1.22,1.93-2.67,3.07-5.04,3.07-2.81,0-4.37-1.57-4.37-4.64Zm2.16-1.6l-.02.23c5.02-.17,5.71-1.32,5.71-2.31,0-.84-.55-1.51-2-1.51-2.02,0-3.36,1.26-3.7,3.59Z"/>
      <path class="cls-2" d="m483.93,338.09c0-.29.06-.63.13-.99l1.32-6.84h-3.8l.27-1.6h5.73l-1.78,9.28.46.19,3.91-3.46,1.11,1.03-1.78,1.7c-1.87,1.79-2.71,2.35-3.76,2.35-1.18,0-1.81-.67-1.81-1.66Zm1.81-12.58c0-.17.02-.38.08-.67.15-.69.57-1.07,1.49-1.07s1.32.42,1.32.92c0,.17-.02.38-.08.67-.15.69-.57,1.07-1.49,1.07s-1.32-.42-1.32-.92Z"/>
      <path class="cls-2" d="m493.61,339.5l1.81-10.83h1.91l-.42,2.56h.1c.8-1.72,1.85-2.81,3.59-2.81,1.87,0,2.94,1.22,2.94,3.13,0,.46-.04.96-.15,1.55l-1.07,6.4h-1.91l1.07-6.36c.08-.48.1-.88.1-1.18,0-1.16-.52-1.93-1.7-1.93-.9,0-1.55.46-2.16,1.15-.27.31-1.03,1.22-1.22,2.39l-.99,5.92h-1.91Z"/>
      <path class="cls-2" d="m508.82,323.96h1.91l-1.22,7.26h.1c.8-1.72,1.85-2.81,3.59-2.81,1.87,0,2.94,1.22,2.94,3.13,0,.46-.04.96-.15,1.55l-1.07,6.4h-1.91l1.07-6.36c.08-.48.1-.88.1-1.18,0-1.16-.52-1.93-1.7-1.93-.9,0-1.55.46-2.16,1.15-.29.34-1.03,1.22-1.22,2.39l-.99,5.92h-1.91l2.6-15.54Z"/>
      <path class="cls-2" d="m519.19,335.11c0-3.95,2.48-6.7,6.05-6.7,2.12,0,3.72,1.03,3.72,2.94,0,1.55-1.01,3.44-7.77,3.65-.02.19-.02.4-.02.46,0,1.43.46,2.69,2.58,2.69,1.49,0,2.35-.61,3.55-2.29l1.3.82c-1.22,1.93-2.67,3.07-5.04,3.07-2.81,0-4.37-1.57-4.37-4.64Zm2.16-1.6l-.02.23c5.02-.17,5.71-1.32,5.71-2.31,0-.84-.55-1.51-2-1.51-2.02,0-3.36,1.26-3.7,3.59Z"/>
      <path class="cls-2" d="m534.33,338.09c0-.29.06-.63.13-.99l1.32-6.84h-3.8l.27-1.6h5.73l-1.78,9.28.46.19,3.91-3.46,1.11,1.03-1.78,1.7c-1.87,1.79-2.71,2.35-3.76,2.35-1.18,0-1.81-.67-1.81-1.66Zm1.81-12.58c0-.17.02-.38.08-.67.15-.69.57-1.07,1.49-1.07s1.32.42,1.32.92c0,.17-.02.38-.08.67-.15.69-.57,1.07-1.49,1.07s-1.32-.42-1.32-.92Z"/>
      <path class="cls-2" d="m546.32,337.99c0-.23.04-.63.08-.92l1.18-6.8h-3.07l.25-1.6h2.12c.76,0,1.11-.27,1.24-1.03l.46-2.79h1.81l-.65,3.82h4.43l-.25,1.6h-4.43l-1.28,7.64.42.23,4.45-3.04.94,1.18-2.16,1.58c-1.91,1.41-2.79,1.91-3.78,1.91-1.13,0-1.76-.65-1.76-1.76Z"/>
      <path class="cls-2" d="m576.43,336.94h-.06c-.84,1.68-1.91,2.81-3.8,2.81-2.2,0-3.34-1.47-3.34-4.2,0-3.17,1.43-7.14,5.08-7.14,1.62,0,2.67.76,3.11,2.16h.08l1.11-6.61h1.91l-2.6,15.54h-1.91l.42-2.56Zm-.76.02c.53-.57.99-1.41,1.16-2.39l.38-2.27c.23-1.43-.76-2.27-2.31-2.27-1.97,0-3.09,1.3-3.42,3.25l-.23,1.45c-.06.36-.08.67-.08.94,0,1.51.69,2.46,2.12,2.46.88,0,1.68-.4,2.39-1.18Z"/>
      <path class="cls-2" d="m584.73,338.09c0-.29.06-.63.13-.99l1.32-6.84h-3.8l.27-1.6h5.73l-1.78,9.28.46.19,3.91-3.46,1.11,1.03-1.78,1.7c-1.87,1.79-2.71,2.35-3.76,2.35-1.18,0-1.81-.67-1.81-1.66Zm1.81-12.58c0-.17.02-.38.08-.67.15-.69.57-1.07,1.49-1.07s1.32.42,1.32.92c0,.17-.02.38-.08.67-.15.69-.57,1.07-1.49,1.07s-1.32-.42-1.32-.92Z"/>
      <path class="cls-2" d="m594.79,335.11c0-3.95,2.48-6.7,6.05-6.7,2.12,0,3.72,1.03,3.72,2.94,0,1.55-1.01,3.44-7.77,3.65-.02.19-.02.4-.02.46,0,1.43.46,2.69,2.58,2.69,1.49,0,2.35-.61,3.55-2.29l1.3.82c-1.22,1.93-2.67,3.07-5.04,3.07-2.81,0-4.37-1.57-4.37-4.64Zm2.16-1.6l-.02.23c5.02-.17,5.71-1.32,5.71-2.31,0-.84-.55-1.51-2-1.51-2.02,0-3.36,1.26-3.7,3.59Z"/>
      <path class="cls-2" d="m607.01,339.5l1.81-10.83h1.91l-.42,2.56h.11c.8-1.72,1.85-2.81,3.59-2.81,1.87,0,2.94,1.22,2.94,3.13,0,.46-.04.96-.15,1.55l-1.07,6.4h-1.91l1.07-6.36c.08-.48.11-.88.11-1.18,0-1.16-.53-1.93-1.7-1.93-.9,0-1.55.46-2.16,1.15-.27.31-1.03,1.22-1.22,2.39l-.99,5.92h-1.91Z"/>
      <path class="cls-2" d="m619.99,335.11c0-3.95,2.48-6.7,6.05-6.7,2.12,0,3.72,1.03,3.72,2.94,0,1.55-1.01,3.44-7.77,3.65-.02.19-.02.4-.02.46,0,1.43.46,2.69,2.58,2.69,1.49,0,2.35-.61,3.55-2.29l1.3.82c-1.22,1.93-2.67,3.07-5.04,3.07-2.81,0-4.37-1.57-4.37-4.64Zm2.16-1.6l-.02.23c5.02-.17,5.71-1.32,5.71-2.31,0-.84-.55-1.51-1.99-1.51-2.02,0-3.36,1.26-3.7,3.59Z"/>
      <path class="cls-2" d="m632.21,339.5l1.81-10.83h1.91l-.42,2.56h.1c.8-1.72,1.85-2.81,3.59-2.81,1.87,0,2.94,1.22,2.94,3.13,0,.46-.04.96-.15,1.55l-1.07,6.4h-1.91l1.07-6.36c.08-.48.1-.88.1-1.18,0-1.16-.52-1.93-1.7-1.93-.9,0-1.55.46-2.16,1.15-.27.31-1.03,1.22-1.22,2.39l-.99,5.92h-1.91Z"/>
      <path class="cls-2" d="m647.62,338.66c0-.17.04-.42.11-.73.15-.78.67-1.32,1.83-1.32,1.07,0,1.49.46,1.49,1.03,0,.17-.04.42-.11.76-.15.78-.67,1.32-1.83,1.32-1.07,0-1.49-.46-1.49-1.05Z"/>
    </g>
  </g>
  <g id="GG_Art._14" class="cls-3">
    <g class="cls-3">
      <path class="cls-2" d="m558.04,393.86h-.13c-.76,1.3-1.62,2.39-3.49,2.39-2.46,0-3.8-1.83-3.8-5.31,0-3.8,1.47-9.85,6.61-9.85,2.77,0,3.84,1.72,4.14,3.51l-1.85.52c-.25-1.26-.76-2.33-2.44-2.33-2.25,0-3.49,1.87-3.97,4.72l-.34,2.04c-.1.61-.13,1.32-.13,1.72,0,2.02.69,3.3,2.44,3.3,1.89,0,3.07-1.49,3.36-3.25l.19-1.11h-2.98l.25-1.53h4.81l-1.22,7.33h-1.83l.36-2.14Z"/>
      <path class="cls-2" d="m570.64,393.86h-.13c-.76,1.3-1.62,2.39-3.49,2.39-2.46,0-3.8-1.83-3.8-5.31,0-3.8,1.47-9.85,6.61-9.85,2.77,0,3.84,1.72,4.14,3.51l-1.85.52c-.25-1.26-.76-2.33-2.44-2.33-2.25,0-3.49,1.87-3.97,4.72l-.34,2.04c-.1.61-.13,1.32-.13,1.72,0,2.02.69,3.3,2.44,3.3,1.89,0,3.07-1.49,3.36-3.25l.19-1.11h-2.98l.25-1.53h4.81l-1.22,7.33h-1.83l.36-2.14Z"/>
      <path class="cls-2" d="m596.24,396l-.5-4.05h-4.96l-1.85,4.05h-2.1l6.82-14.66h2.71l1.95,14.66h-2.08Zm-1.47-12.64h-.19l-3.07,6.87h4.07l-.82-6.87Z"/>
      <path class="cls-2" d="m603.34,396l1.53-9.24h-2.92l.27-1.6h4.83l-.5,2.96h.11c.8-1.79,1.93-2.96,4.01-2.96h1.47l-.31,1.91h-1.89c-1.22,0-1.93.36-2.6,1.07-.32.34-.97,1.18-1.16,2.33l-.92,5.52h-1.91Z"/>
      <path class="cls-2" d="m615.73,394.49c0-.23.04-.63.08-.92l1.18-6.8h-3.07l.25-1.6h2.12c.76,0,1.11-.27,1.24-1.03l.46-2.79h1.81l-.65,3.82h4.43l-.25,1.6h-4.43l-1.28,7.64.42.23,4.45-3.04.94,1.18-2.16,1.58c-1.91,1.41-2.79,1.91-3.78,1.91-1.13,0-1.76-.65-1.76-1.76Z"/>
      <path class="cls-2" d="m628.83,395.16c0-.17.04-.42.1-.73.15-.78.67-1.32,1.83-1.32,1.07,0,1.49.46,1.49,1.03,0,.17-.04.42-.1.76-.15.78-.67,1.32-1.83,1.32-1.07,0-1.49-.46-1.49-1.05Z"/>
      <path class="cls-2" d="m651.03,396l.27-1.7h4.16l1.91-11.46h-.17l-4.09,3.55-1.07-1.22,4.37-3.82h3.21l-2.18,12.95h3.74l-.27,1.7h-9.87Z"/>
      <path class="cls-2" d="m669.65,396l.46-2.86h-7.12l.32-1.85,8.08-9.95h2.6l-1.7,10.18h2.12l-.25,1.62h-2.14l-.48,2.86h-1.89Zm-4.58-4.47h5.31l1.37-8.08h-.11l-6.57,8.08Z"/>
    </g>
  </g>
  <g id="Rechteck_3140" class="rechteck">
    <path class="cls-1" d="m150.83,88h373c50.53,0,91.5,40.97,91.5,91.5h0c0,50.53-40.97,91.5-91.5,91.5H150.83c-50.53,0-91.5-40.97-91.5-91.5h0c0-50.53,40.97-91.5,91.5-91.5Z"/>
    <path class="cls-2" d="m523.83,271H150.83c-50.45,0-91.5-41.05-91.5-91.5s41.05-91.5,91.5-91.5h373c50.45,0,91.5,41.05,91.5,91.5s-41.05,91.5-91.5,91.5ZM150.83,89c-49.9,0-90.5,40.6-90.5,90.5s40.6,90.5,90.5,90.5h373c49.9,0,90.5-40.6,90.5-90.5s-40.6-90.5-90.5-90.5H150.83Z"/>
  </g>
  <g id="Rechteck_3141" class="rechteck">
    <path class="cls-1" d="m223.83,270h421c26.23,0,47.5,21.27,47.5,47.5h0c0,26.23-21.27,47.5-47.5,47.5H223.83c-26.23,0-47.5-21.27-47.5-47.5h0c0-26.23,21.27-47.5,47.5-47.5Z"/>
    <path class="cls-2" d="m644.83,365H223.83c-26.19,0-47.5-21.31-47.5-47.5s21.31-47.5,47.5-47.5h421c26.19,0,47.5,21.31,47.5,47.5s-21.31,47.5-47.5,47.5Zm-421-94c-25.64,0-46.5,20.86-46.5,46.5s20.86,46.5,46.5,46.5h421c25.64,0,46.5-20.86,46.5-46.5s-20.86-46.5-46.5-46.5H223.83Z"/>
  </g>
  <g id="Rechteck_3142" class="rechteck">
    <path class="cls-1" d="m150.83,88h450c50.53,0,91.5,40.97,91.5,91.5h0c0,50.53-40.97,91.5-91.5,91.5H150.83c-50.53,0-91.5-40.97-91.5-91.5h0c0-50.53,40.97-91.5,91.5-91.5Z"/>
    <path class="cls-2" d="m600.83,271H150.83c-50.45,0-91.5-41.05-91.5-91.5s41.05-91.5,91.5-91.5h450c50.45,0,91.5,41.05,91.5,91.5s-41.05,91.5-91.5,91.5ZM150.83,89c-49.9,0-90.5,40.6-90.5,90.5s40.6,90.5,90.5,90.5h450c49.9,0,90.5-40.6,90.5-90.5s-40.6-90.5-90.5-90.5H150.83Z"/>
  </g>
  <g id="Rechteck_3143" class="rechteck">
    <path class="cls-1" d="m167.83,270h477.01c26.23,0,47.5,21.27,47.5,47.5h0c0,26.23-21.27,47.5-47.5,47.5H167.83c-26.23,0-47.5-21.27-47.5-47.5h0c0-26.23,21.27-47.5,47.5-47.5Z"/>
    <path class="cls-2" d="m644.83,365H167.83c-26.19,0-47.5-21.31-47.5-47.5s21.31-47.5,47.5-47.5h477.01c26.19,0,47.5,21.31,47.5,47.5s-21.31,47.5-47.5,47.5Zm-477.01-94c-25.64,0-46.5,20.86-46.5,46.5s20.86,46.5,46.5,46.5h477.01c25.64,0,46.5-20.86,46.5-46.5s-20.86-46.5-46.5-46.5H167.83Z"/>
  </g>
  <g id="Rechteck_3144" class="rechteck">
    <path class="cls-1" d="m106.83,270h538c26.23,0,47.5,21.27,47.5,47.5h0c0,26.23-21.27,47.5-47.5,47.5H106.83c-26.23,0-47.5-21.27-47.5-47.5h0c0-26.23,21.27-47.5,47.5-47.5Z"/>
    <path class="cls-2" d="m644.83,365H106.83c-26.19,0-47.5-21.31-47.5-47.5s21.31-47.5,47.5-47.5h538c26.19,0,47.5,21.31,47.5,47.5s-21.31,47.5-47.5,47.5ZM106.83,271c-25.64,0-46.5,20.86-46.5,46.5s20.86,46.5,46.5,46.5h538c25.64,0,46.5-20.86,46.5-46.5s-20.86-46.5-46.5-46.5H106.83Z"/>
  </g>
  <g id="Rechteck_3145" class="rechteck">
    <path class="cls-1" d="m553.33,364h115c13.25,0,24,10.75,24,24h0c0,13.25-10.75,24-24,24h-115c-13.25,0-24-10.75-24-24h0c0-13.25,10.75-24,24-24Z"/>
    <path class="cls-2" d="m668.33,412h-115c-13.23,0-24-10.77-24-24s10.77-24,24-24h115c13.23,0,24,10.77,24,24s-10.77,24-24,24Zm-115-47c-12.68,0-23,10.32-23,23s10.32,23,23,23h115c12.68,0,23-10.32,23-23s-10.32-23-23-23h-115Z"/>
  </g>
</svg>