<?xml version="1.0" encoding="UTF-8"?>
<svg id="Ebene_1"
  xmlns="http://www.w3.org/2000/svg" viewBox="0 0 751.67 500">
  <defs>
    <style></style>
  </defs>
  <g id="Flexible" class="cls-3">
    <g class="cls-3">
      <path class="cls-2" d="m108.25,131.48v4.42h12.97v8.74h-12.97v10.3h-10.12v-32.2h26.22v8.74h-16.1Z"/>
      <path class="cls-2" d="m156.51,146.07v8.88h-25.26v-32.2h10.12v23.33h15.14Z"/>
      <path class="cls-2" d="m173.53,131.48v3.22h12.97v8.37h-12.97v3.08h16.1v8.79h-26.22v-32.2h26.22v8.74h-16.1Z"/>
      <path class="cls-2" d="m219.76,138.8l10.63,16.15h-12.24l-5.61-9.25-5.61,9.25h-12.24l10.67-16.15-10.67-16.06h12.24l5.66,9.06,5.57-9.06h12.24l-10.63,16.06Z"/>
      <path class="cls-2" d="m235.44,122.74h10.12v32.2h-10.12v-32.2Z"/>
      <path class="cls-2" d="m281.4,138.8c1.43,1.61,2.25,3.63,2.25,5.89,0,5.7-4.6,10.26-10.31,10.26h-20.89v-32.2h20.89c5.7,0,10.31,4.6,10.31,10.31,0,2.25-.83,4.23-2.25,5.75Zm-19.05-3.87h9.39c.83,0,1.61-.74,1.61-1.66s-.74-1.66-1.61-1.66h-9.39v3.31Zm11,9.34c0-.83-.74-1.79-1.79-1.79h-9.2v3.59h9.25c.97,0,1.75-.78,1.75-1.79Z"/>
      <path class="cls-2" d="m314.89,146.07v8.88h-25.26v-32.2h10.12v23.33h15.14Z"/>
      <path class="cls-2" d="m331.9,131.48v3.22h12.97v8.37h-12.97v3.08h16.1v8.79h-26.22v-32.2h26.22v8.74h-16.1Z"/>
    </g>
  </g>
  <g id="Zwischennutzung" class="cls-3">
    <g class="cls-3">
      <path class="cls-2" d="m126.79,213.84l-14.86,14.45h14.86v8.88h-28.66v-8.88l14.81-14.45h-14.81v-8.88h28.66v8.88Z"/>
      <path class="cls-2" d="m179.97,204.96l-8.51,32.2h-10.72l-4.83-17.34-4.83,17.34h-10.72l-8.51-32.2h10.67l3.91,18.13,4.69-18.13h8.65l5.47,18.72,4.05-18.72h10.67Z"/>
      <path class="cls-2" d="m185.03,204.96h10.12v32.2h-10.12v-32.2Z"/>
      <path class="cls-2" d="m232.64,226.54c0,6.62-4.69,11.18-15.5,11.18h-.78c-12.88,0-15-7.18-15-11.5h10.17c.28,1.61,2.21,2.48,5.47,2.48h.14c3.63,0,5.15-.74,5.15-1.98,0-.92-.78-1.7-3.13-1.7h-5.24c-8,0-12.05-3.68-12.05-9.38s3.63-11.23,15-11.23h.46c13.02,0,14.63,8.05,14.63,11.18h-10.17c-.18-1.33-1.43-2.48-4.74-2.48h-.18c-3.82,0-4.69,1.06-4.69,2.02s.78,1.7,2.85,1.7h6.03c7.64,0,11.59,4,11.59,9.71Z"/>
      <path class="cls-2" d="m262.77,223.32h10.49c-1.01,8.7-8.01,14.4-17.53,14.4h-.14c-10.08,0-17.67-6.67-17.67-16.65s7.36-16.65,17.67-16.65h.14c9.52,0,16.52,5.71,17.53,14.4h-10.49c-.92-2.81-3.54-4.97-7.04-4.97h-.14c-4.37,0-7.36,3.04-7.36,7.22s2.99,7.22,7.36,7.22h.14c3.5,0,6.12-2.12,7.04-4.97Z"/>
      <path class="cls-2" d="m311.07,204.96v32.2h-10.12v-11.96h-11.59v11.96h-10.12v-32.2h10.12v11.27h11.59v-11.27h10.12Z"/>
      <path class="cls-2" d="m328.09,213.7v3.22h12.97v8.37h-12.97v3.08h16.1v8.79h-26.22v-32.2h26.22v8.74h-16.1Z"/>
      <path class="cls-2" d="m383.43,204.96v32.2h-9.94l-12.47-16.93v16.93h-9.94v-32.2h9.94l12.47,16.52v-16.52h9.94Z"/>
      <path class="cls-2" d="m422.67,204.96v32.2h-9.94l-12.47-16.93v16.93h-9.94v-32.2h9.94l12.47,16.52v-16.52h9.94Z"/>
      <path class="cls-2" d="m429.56,222.49v-17.53h10.12v16.61c0,3.4,1.52,6.39,5.75,6.39h.14c4.28,0,5.75-2.99,5.75-6.39v-16.61h10.12v17.53c0,9.98-6.03,15.23-15.87,15.23h-.14c-9.85,0-15.87-5.24-15.87-15.23Z"/>
      <path class="cls-2" d="m499.9,213.84h-10.72v23.32h-10.12v-23.32h-10.72v-8.88h31.56v8.88Z"/>
      <path class="cls-2" d="m535.46,213.84l-14.86,14.45h14.86v8.88h-28.66v-8.88l14.81-14.45h-14.81v-8.88h28.66v8.88Z"/>
      <path class="cls-2" d="m542.35,222.49v-17.53h10.12v16.61c0,3.4,1.52,6.39,5.75,6.39h.14c4.28,0,5.75-2.99,5.75-6.39v-16.61h10.12v17.53c0,9.98-6.03,15.23-15.87,15.23h-.14c-9.84,0-15.87-5.24-15.87-15.23Z"/>
      <path class="cls-2" d="m613.47,204.96v32.2h-9.94l-12.47-16.93v16.93h-9.94v-32.2h9.94l12.47,16.52v-16.52h9.94Z"/>
      <path class="cls-2" d="m619.45,221.06c0-9.94,7.36-16.65,17.67-16.65h.14c8.65,0,15.23,4.69,17.11,12.1h-11.41c-1.1-1.47-3.08-2.67-5.7-2.67h-.14c-4.46,0-7.36,3.04-7.36,7.31s2.9,7.54,7.36,7.54h.14c2.71,0,4.78-1.2,5.43-2.3h-5.43v-7.36l17.53.05v1.98c0,9.25-7.22,16.65-17.53,16.65h-.14c-10.08,0-17.67-6.67-17.67-16.65Z"/>
    </g>
  </g>
  <g id="ist_eine_Chance_ein_Experimentierfeld_für_Stadtentwicklung." class="cls-3">
    <g class="cls-3">
      <path class="cls-2" d="m367.34,308.76c0-.29.06-.63.13-.99l1.32-6.85h-3.8l.27-1.6h5.73l-1.78,9.28.46.19,3.91-3.46,1.11,1.03-1.78,1.7c-1.87,1.79-2.71,2.35-3.76,2.35-1.18,0-1.81-.67-1.81-1.66Zm1.81-12.58c0-.17.02-.38.08-.67.15-.69.57-1.07,1.49-1.07s1.32.42,1.32.92c0,.17-.02.38-.08.67-.15.69-.57,1.07-1.49,1.07s-1.32-.42-1.32-.92Z"/>
      <path class="cls-2" d="m376.92,308.42l1.3-1.09c.8,1.01,1.89,1.55,3.46,1.55,1.78,0,2.88-.71,2.88-1.91,0-.92-.65-1.2-1.49-1.34l-1.55-.25c-1.6-.25-3.17-.8-3.17-2.79,0-2.33,2.1-3.51,4.7-3.51,1.89,0,3.3.63,4.09,1.64l-1.26,1.13c-.4-.57-1.3-1.24-3-1.24s-2.67.69-2.67,1.79c0,.96.73,1.18,1.57,1.32l1.55.27c1.45.27,3.11.69,3.11,2.75,0,2.29-1.97,3.67-4.93,3.67-2.1,0-3.7-.71-4.6-1.99Z"/>
      <path class="cls-2" d="m391.94,308.66c0-.23.04-.63.08-.92l1.18-6.8h-3.07l.25-1.6h2.12c.76,0,1.11-.27,1.24-1.03l.46-2.79h1.8l-.65,3.82h4.43l-.25,1.6h-4.43l-1.28,7.64.42.23,4.45-3.04.95,1.18-2.16,1.57c-1.91,1.41-2.79,1.91-3.78,1.91-1.13,0-1.76-.65-1.76-1.76Z"/>
      <path class="cls-2" d="m415.2,305.78c0-3.95,2.48-6.7,6.05-6.7,2.12,0,3.72,1.03,3.72,2.94,0,1.55-1.01,3.44-7.77,3.65-.02.19-.02.4-.02.46,0,1.43.46,2.69,2.58,2.69,1.49,0,2.35-.61,3.55-2.29l1.3.82c-1.22,1.93-2.67,3.06-5.04,3.06-2.81,0-4.37-1.57-4.37-4.64Zm2.16-1.6l-.02.23c5.02-.17,5.71-1.32,5.71-2.31,0-.84-.55-1.51-2-1.51-2.02,0-3.36,1.26-3.7,3.59Z"/>
      <path class="cls-2" d="m430.34,308.76c0-.29.06-.63.12-.99l1.32-6.85h-3.8l.27-1.6h5.73l-1.78,9.28.46.19,3.91-3.46,1.11,1.03-1.78,1.7c-1.87,1.79-2.71,2.35-3.76,2.35-1.18,0-1.8-.67-1.8-1.66Zm1.8-12.58c0-.17.02-.38.08-.67.15-.69.57-1.07,1.49-1.07s1.32.42,1.32.92c0,.17-.02.38-.08.67-.15.69-.57,1.07-1.49,1.07s-1.32-.42-1.32-.92Z"/>
      <path class="cls-2" d="m440.02,310.17l1.81-10.83h1.91l-.42,2.56h.11c.8-1.72,1.85-2.81,3.59-2.81,1.87,0,2.94,1.22,2.94,3.13,0,.46-.04.96-.15,1.55l-1.07,6.4h-1.91l1.07-6.36c.08-.48.1-.88.1-1.18,0-1.15-.52-1.93-1.7-1.93-.9,0-1.55.46-2.16,1.15-.27.31-1.03,1.22-1.22,2.39l-.99,5.92h-1.91Z"/>
      <path class="cls-2" d="m453,305.78c0-3.95,2.48-6.7,6.05-6.7,2.12,0,3.72,1.03,3.72,2.94,0,1.55-1.01,3.44-7.77,3.65-.02.19-.02.4-.02.46,0,1.43.46,2.69,2.58,2.69,1.49,0,2.35-.61,3.55-2.29l1.3.82c-1.22,1.93-2.67,3.06-5.04,3.06-2.81,0-4.37-1.57-4.37-4.64Zm2.16-1.6l-.02.23c5.02-.17,5.71-1.32,5.71-2.31,0-.84-.55-1.51-2-1.51-2.02,0-3.36,1.26-3.7,3.59Z"/>
      <path class="cls-2" d="m478.27,305.07c0-3.82,1.51-9.8,6.61-9.8,2.81,0,3.88,1.72,4.16,3.51l-1.83.53c-.25-1.28-.78-2.33-2.46-2.33-2.25,0-3.51,1.83-3.99,4.72l-.36,2.08c-.08.59-.17,1.2-.17,1.81,0,1.91.8,3.15,2.73,3.15,1.62,0,2.41-.96,3.42-2.83l1.62.71c-1.11,2.39-2.58,3.82-5.23,3.82-3.13,0-4.51-1.93-4.51-5.35Z"/>
      <path class="cls-2" d="m493.03,294.63h1.91l-1.22,7.27h.1c.8-1.72,1.85-2.81,3.59-2.81,1.87,0,2.94,1.22,2.94,3.13,0,.46-.04.96-.15,1.55l-1.07,6.4h-1.91l1.07-6.36c.08-.48.11-.88.11-1.18,0-1.15-.53-1.93-1.7-1.93-.9,0-1.55.46-2.16,1.15-.29.34-1.03,1.22-1.22,2.39l-.99,5.92h-1.91l2.6-15.54Z"/>
      <path class="cls-2" d="m509.83,310.17l.42-2.56h-.06c-.84,1.68-1.91,2.81-3.8,2.81-2.21,0-3.34-1.47-3.34-4.2,0-3.17,1.43-7.14,5.08-7.14,1.62,0,2.67.76,3.11,2.16h.08l.32-1.91h1.91l-1.81,10.83h-1.91Zm-.34-2.54c.53-.57.99-1.41,1.15-2.39l.38-2.27c.23-1.43-.76-2.27-2.31-2.27-1.97,0-3.09,1.3-3.42,3.25l-.23,1.45c-.06.36-.08.67-.08.95,0,1.51.69,2.46,2.12,2.46.88,0,1.68-.4,2.39-1.18Z"/>
      <path class="cls-2" d="m515.62,310.17l1.81-10.83h1.91l-.42,2.56h.11c.8-1.72,1.85-2.81,3.59-2.81,1.87,0,2.94,1.22,2.94,3.13,0,.46-.04.96-.15,1.55l-1.07,6.4h-1.91l1.07-6.36c.08-.48.1-.88.1-1.18,0-1.15-.52-1.93-1.7-1.93-.9,0-1.55.46-2.16,1.15-.27.31-1.03,1.22-1.22,2.39l-.99,5.92h-1.91Z"/>
      <path class="cls-2" d="m528.64,305.84c0-4.05,2.42-6.76,5.65-6.76,2.33,0,3.46,1.15,3.86,2.62l-1.62.67c-.4-1.24-1.11-1.68-2.44-1.68-1.72,0-2.86,1.15-3.21,3.28l-.21,1.26c-.08.46-.11.73-.11,1.01,0,1.72.97,2.56,2.5,2.56.94,0,1.83-.29,3.51-2.58l1.32.8c-1.39,2.2-2.75,3.4-5.08,3.4-2.75,0-4.18-1.83-4.18-4.58Z"/>
      <path class="cls-2" d="m541.2,305.78c0-3.95,2.48-6.7,6.05-6.7,2.12,0,3.72,1.03,3.72,2.94,0,1.55-1.01,3.44-7.77,3.65-.02.19-.02.4-.02.46,0,1.43.46,2.69,2.58,2.69,1.49,0,2.35-.61,3.55-2.29l1.3.82c-1.22,1.93-2.67,3.06-5.04,3.06-2.81,0-4.37-1.57-4.37-4.64Zm2.16-1.6l-.02.23c5.02-.17,5.71-1.32,5.71-2.31,0-.84-.55-1.51-2-1.51-2.02,0-3.36,1.26-3.7,3.59Z"/>
      <path class="cls-2" d="m557.2,307.19h2.92l-3.44,5.98h-1.58l2.1-5.98Z"/>
      <path class="cls-2" d="m579,305.78c0-3.95,2.48-6.7,6.05-6.7,2.12,0,3.72,1.03,3.72,2.94,0,1.55-1.01,3.44-7.77,3.65-.02.19-.02.4-.02.46,0,1.43.46,2.69,2.58,2.69,1.49,0,2.35-.61,3.55-2.29l1.3.82c-1.22,1.93-2.67,3.06-5.04,3.06-2.81,0-4.37-1.57-4.37-4.64Zm2.16-1.6l-.02.23c5.02-.17,5.71-1.32,5.71-2.31,0-.84-.55-1.51-2-1.51-2.02,0-3.36,1.26-3.7,3.59Z"/>
      <path class="cls-2" d="m594.14,308.76c0-.29.06-.63.13-.99l1.32-6.85h-3.8l.27-1.6h5.73l-1.78,9.28.46.19,3.91-3.46,1.11,1.03-1.78,1.7c-1.87,1.79-2.71,2.35-3.76,2.35-1.18,0-1.81-.67-1.81-1.66Zm1.81-12.58c0-.17.02-.38.08-.67.15-.69.57-1.07,1.49-1.07s1.32.42,1.32.92c0,.17-.02.38-.08.67-.15.69-.57,1.07-1.49,1.07s-1.32-.42-1.32-.92Z"/>
      <path class="cls-2" d="m603.82,310.17l1.81-10.83h1.91l-.42,2.56h.1c.8-1.72,1.85-2.81,3.59-2.81,1.87,0,2.94,1.22,2.94,3.13,0,.46-.04.96-.15,1.55l-1.07,6.4h-1.91l1.07-6.36c.08-.48.11-.88.11-1.18,0-1.15-.53-1.93-1.7-1.93-.9,0-1.55.46-2.16,1.15-.27.31-1.03,1.22-1.22,2.39l-.99,5.92h-1.91Z"/>
    </g>
    <g class="cls-3">
      <path class="cls-2" d="m364.28,338.17l2.46-14.65h9.07l-.29,1.72h-7.08l-.78,4.66h6.82l-.29,1.72h-6.82l-.8,4.83h7.1l-.29,1.72h-9.09Z"/>
      <path class="cls-2" d="m376.04,335.84c0-.29.02-.71.08-1.32l1.72-.15c-.06.38-.08.78-.08,1.01,0,1.07.25,1.58.9,1.58,1.85,0,2.69-4.07,2.69-6.11,0-.71-.08-1.64-.27-2.14l-.29-.15-3.21,2.02-.78-1.11,1.41-1.05c1.05-.78,2.02-1.32,2.9-1.32,1.66,0,1.76,1.83,1.76,3.61l.15.02c.59-2.58,1.7-3.63,3.32-3.63,1.39,0,2.1.88,2.1,2.58,0,.27,0,.71-.08,1.32l-1.7.15c.04-.38.06-.78.06-1.03,0-1.05-.25-1.55-.9-1.55-1.87,0-2.67,4.12-2.67,6.11,0,.71.08,1.62.29,2.14l.31.15,3.04-2.14.8,1.09-1.05.9c-1.49,1.28-2.39,1.62-3.11,1.62-1.62,0-1.81-1.72-1.81-3.61l-.15-.02c-.57,2.58-1.7,3.63-3.32,3.63-1.41,0-2.12-.86-2.12-2.58Z"/>
      <path class="cls-2" d="m391.33,327.33h1.91l-.42,2.56h.06c.84-1.68,1.91-2.81,3.8-2.81,2.21,0,3.34,1.47,3.34,4.2,0,3.17-1.43,7.14-5.08,7.14-1.62,0-2.67-.76-3.11-2.16h-.08l-1.01,6.11h-1.91l2.5-15.03Zm6.45,6.21l.23-1.45c.06-.36.08-.67.08-.94,0-1.51-.69-2.46-2.12-2.46-.88,0-1.7.38-2.39,1.18-.5.59-1.01,1.41-1.18,2.39l-.38,2.27c-.23,1.43.78,2.27,2.33,2.27,1.97,0,3.09-1.3,3.42-3.25Z"/>
      <path class="cls-2" d="m402.6,333.78c0-3.95,2.48-6.7,6.05-6.7,2.12,0,3.72,1.03,3.72,2.94,0,1.55-1.01,3.44-7.77,3.65-.02.19-.02.4-.02.46,0,1.43.46,2.69,2.58,2.69,1.49,0,2.35-.61,3.55-2.29l1.3.82c-1.22,1.93-2.67,3.06-5.04,3.06-2.81,0-4.37-1.57-4.37-4.64Zm2.16-1.6l-.02.23c5.02-.17,5.71-1.32,5.71-2.31,0-.84-.54-1.51-1.99-1.51-2.02,0-3.36,1.26-3.7,3.59Z"/>
      <path class="cls-2" d="m417.34,338.17l1.53-9.24h-2.92l.27-1.6h4.83l-.5,2.96h.11c.8-1.79,1.93-2.96,4.01-2.96h1.47l-.32,1.91h-1.89c-1.22,0-1.93.36-2.6,1.07-.31.34-.97,1.18-1.15,2.33l-.92,5.52h-1.91Z"/>
      <path class="cls-2" d="m430.34,336.76c0-.29.06-.63.12-.99l1.32-6.85h-3.8l.27-1.6h5.73l-1.78,9.28.46.19,3.91-3.46,1.11,1.03-1.78,1.7c-1.87,1.79-2.71,2.35-3.76,2.35-1.18,0-1.8-.67-1.8-1.66Zm1.8-12.58c0-.17.02-.38.08-.67.15-.69.57-1.07,1.49-1.07s1.32.42,1.32.92c0,.17-.02.38-.08.67-.15.69-.57,1.07-1.49,1.07s-1.32-.42-1.32-.92Z"/>
      <path class="cls-2" d="m439.08,338.17l1.8-10.83h1.7l-.27,1.74h.08c.5-1.13,1.18-1.99,2.37-1.99s1.74.84,1.64,2.08h.08c.55-1.24,1.34-2.08,2.62-2.08,1.2,0,1.85.73,1.85,2.06,0,.42-.06,1.01-.15,1.51l-1.26,7.52h-1.7l1.22-7.24c.06-.46.12-.92.12-1.22,0-.73-.27-1.11-.86-1.11-.55,0-.94.34-1.28.82-.38.55-.61,1.18-.71,1.83l-1.18,6.93h-1.7l1.22-7.24c.08-.46.13-.84.13-1.18,0-.82-.27-1.15-.82-1.15s-.99.31-1.32.82c-.38.57-.63,1.2-.71,1.79l-1.18,6.97h-1.7Z"/>
      <path class="cls-2" d="m453,333.78c0-3.95,2.48-6.7,6.05-6.7,2.12,0,3.72,1.03,3.72,2.94,0,1.55-1.01,3.44-7.77,3.65-.02.19-.02.4-.02.46,0,1.43.46,2.69,2.58,2.69,1.49,0,2.35-.61,3.55-2.29l1.3.82c-1.22,1.93-2.67,3.06-5.04,3.06-2.81,0-4.37-1.57-4.37-4.64Zm2.16-1.6l-.02.23c5.02-.17,5.71-1.32,5.71-2.31,0-.84-.55-1.51-2-1.51-2.02,0-3.36,1.26-3.7,3.59Z"/>
      <path class="cls-2" d="m465.22,338.17l1.8-10.83h1.91l-.42,2.56h.1c.8-1.72,1.85-2.81,3.59-2.81,1.87,0,2.94,1.22,2.94,3.13,0,.46-.04.96-.15,1.55l-1.07,6.4h-1.91l1.07-6.36c.08-.48.11-.88.11-1.18,0-1.15-.53-1.93-1.7-1.93-.9,0-1.55.46-2.16,1.15-.27.31-1.03,1.22-1.22,2.39l-.99,5.92h-1.91Z"/>
      <path class="cls-2" d="m480.13,336.66c0-.23.04-.63.08-.92l1.18-6.8h-3.07l.25-1.6h2.12c.76,0,1.11-.27,1.24-1.03l.46-2.79h1.81l-.65,3.82h4.43l-.25,1.6h-4.43l-1.28,7.64.42.23,4.45-3.04.95,1.18-2.16,1.57c-1.91,1.41-2.79,1.91-3.78,1.91-1.13,0-1.76-.65-1.76-1.76Z"/>
      <path class="cls-2" d="m493.34,336.76c0-.29.06-.63.13-.99l1.32-6.85h-3.8l.27-1.6h5.73l-1.79,9.28.46.19,3.91-3.46,1.11,1.03-1.79,1.7c-1.87,1.79-2.71,2.35-3.76,2.35-1.18,0-1.81-.67-1.81-1.66Zm1.81-12.58c0-.17.02-.38.08-.67.15-.69.57-1.07,1.49-1.07s1.32.42,1.32.92c0,.17-.02.38-.08.67-.15.69-.57,1.07-1.49,1.07s-1.32-.42-1.32-.92Z"/>
      <path class="cls-2" d="m503.4,333.78c0-3.95,2.48-6.7,6.05-6.7,2.12,0,3.72,1.03,3.72,2.94,0,1.55-1.01,3.44-7.77,3.65-.02.19-.02.4-.02.46,0,1.43.46,2.69,2.58,2.69,1.49,0,2.35-.61,3.55-2.29l1.3.82c-1.22,1.93-2.67,3.06-5.04,3.06-2.81,0-4.37-1.57-4.37-4.64Zm2.16-1.6l-.02.23c5.02-.17,5.71-1.32,5.71-2.31,0-.84-.55-1.51-1.99-1.51-2.02,0-3.36,1.26-3.7,3.59Z"/>
      <path class="cls-2" d="m518.14,338.17l1.53-9.24h-2.92l.27-1.6h4.83l-.5,2.96h.11c.8-1.79,1.93-2.96,4.01-2.96h1.47l-.32,1.91h-1.89c-1.22,0-1.93.36-2.6,1.07-.32.34-.97,1.18-1.16,2.33l-.92,5.52h-1.91Z"/>
      <path class="cls-2" d="m527.93,340.1l-1.2-1.37,1.3-1.09,3.02,3.32.36-.08,2-11.95h-3.78l.27-1.6h3.76l.38-2.12c.23-1.51,1.22-2.58,2.94-2.58h3.67l-.27,1.6h-4.28l-.5,3.11h4.3l-.27,1.6h-4.3l-1.89,11.28c-.23,1.38-.92,2.41-2.27,2.41-1.01,0-1.66-.73-3.23-2.52Z"/>
      <path class="cls-2" d="m541.2,333.78c0-3.95,2.48-6.7,6.05-6.7,2.12,0,3.72,1.03,3.72,2.94,0,1.55-1.01,3.44-7.77,3.65-.02.19-.02.4-.02.46,0,1.43.46,2.69,2.58,2.69,1.49,0,2.35-.61,3.55-2.29l1.3.82c-1.22,1.93-2.67,3.06-5.04,3.06-2.81,0-4.37-1.57-4.37-4.64Zm2.16-1.6l-.02.23c5.02-.17,5.71-1.32,5.71-2.31,0-.84-.55-1.51-2-1.51-2.02,0-3.36,1.26-3.7,3.59Z"/>
      <path class="cls-2" d="m555.88,336.74c0-.25.02-.54.08-.88l2.23-11.63h-3.7l.27-1.6h5.67l-2.69,14,.48.17,4.05-3.53,1.07,1.03-1.99,1.87c-1.93,1.8-2.75,2.25-3.72,2.25-1.24,0-1.76-.69-1.76-1.68Z"/>
      <path class="cls-2" d="m573.24,335.61h-.06c-.84,1.68-1.91,2.81-3.8,2.81-2.2,0-3.34-1.47-3.34-4.2,0-3.17,1.43-7.14,5.08-7.14,1.62,0,2.67.76,3.11,2.16h.08l1.11-6.61h1.91l-2.6,15.54h-1.91l.42-2.56Zm-.76.02c.52-.57.99-1.41,1.16-2.39l.38-2.27c.23-1.43-.76-2.27-2.31-2.27-1.97,0-3.09,1.3-3.42,3.25l-.23,1.45c-.06.36-.08.67-.08.95,0,1.51.69,2.46,2.12,2.46.88,0,1.68-.4,2.39-1.18Z"/>
      <path class="cls-2" d="m590.93,340.1l-1.2-1.37,1.3-1.09,3.02,3.32.36-.08,1.99-11.95h-3.78l.27-1.6h3.76l.38-2.12c.23-1.51,1.22-2.58,2.94-2.58h3.67l-.27,1.6h-4.28l-.5,3.11h4.3l-.27,1.6h-4.3l-1.89,11.28c-.23,1.38-.92,2.41-2.27,2.41-1.01,0-1.66-.73-3.23-2.52Z"/>
      <path class="cls-2" d="m610.96,335.61h-.08c-.8,1.72-1.87,2.81-3.61,2.81-1.85,0-2.94-1.22-2.94-3.13,0-.46.04-.96.15-1.55l1.07-6.4h1.91l-1.05,6.36c-.08.46-.12.88-.12,1.18,0,1.16.54,1.93,1.7,1.93.9,0,1.58-.46,2.18-1.15.27-.31,1.01-1.22,1.2-2.39l.99-5.92h1.91l-1.81,10.83h-1.91l.42-2.56Zm-3.91-11.15c0-.15.04-.36.1-.57.17-.57.42-.96,1.34-.96s1.2.38,1.2.82c0,.15-.04.36-.11.57-.17.57-.42.97-1.34.97s-1.2-.38-1.2-.82Zm4.03,0c0-.15.04-.36.1-.57.17-.57.42-.96,1.34-.96s1.2.38,1.2.82c0,.15-.04.36-.11.57-.17.57-.42.97-1.34.97s-1.2-.38-1.2-.82Z"/>
      <path class="cls-2" d="m618.94,338.17l1.53-9.24h-2.92l.27-1.6h4.83l-.5,2.96h.1c.8-1.79,1.93-2.96,4.01-2.96h1.47l-.31,1.91h-1.89c-1.22,0-1.93.36-2.6,1.07-.32.34-.97,1.18-1.16,2.33l-.92,5.52h-1.91Z"/>
    </g>
    <g class="cls-3">
      <path class="cls-2" d="m363.82,363.9l1.41-1.22c.9,1.36,2.14,2.04,3.8,2.04,2.16,0,3.49-1.11,3.49-2.9,0-1.13-.59-1.81-2.18-2.16l-1.55-.34c-2.27-.53-3.28-1.74-3.28-3.61,0-2.75,2.14-4.45,5.33-4.45,2.46,0,4.01,1.03,4.79,2.35l-1.41,1.09c-.78-1.16-1.89-1.76-3.46-1.76-2.02,0-3.21,1.01-3.21,2.6,0,1.24.76,1.78,2.27,2.14l1.49.36c2.37.57,3.28,1.79,3.28,3.61,0,2.81-2.16,4.77-5.65,4.77-2.5,0-4.24-1.03-5.1-2.52Z"/>
      <path class="cls-2" d="m379.33,364.66c0-.23.04-.63.08-.92l1.18-6.8h-3.07l.25-1.6h2.12c.76,0,1.11-.27,1.24-1.03l.46-2.79h1.81l-.65,3.82h4.43l-.25,1.6h-4.43l-1.28,7.64.42.23,4.45-3.04.95,1.18-2.16,1.57c-1.91,1.41-2.79,1.91-3.78,1.91-1.13,0-1.76-.65-1.76-1.76Z"/>
      <path class="cls-2" d="m396.43,366.17l.42-2.56h-.06c-.84,1.68-1.91,2.81-3.8,2.81-2.2,0-3.34-1.47-3.34-4.2,0-3.17,1.43-7.14,5.08-7.14,1.62,0,2.67.76,3.11,2.16h.08l.32-1.91h1.91l-1.81,10.83h-1.91Zm-.34-2.54c.53-.57.99-1.41,1.16-2.39l.38-2.27c.23-1.43-.76-2.27-2.31-2.27-1.97,0-3.09,1.3-3.42,3.25l-.23,1.45c-.06.36-.08.67-.08.95,0,1.51.69,2.46,2.12,2.46.88,0,1.68-.4,2.39-1.18Z"/>
      <path class="cls-2" d="m409.45,363.61h-.06c-.84,1.68-1.91,2.81-3.8,2.81-2.2,0-3.34-1.47-3.34-4.2,0-3.17,1.43-7.14,5.08-7.14,1.62,0,2.67.76,3.11,2.16h.08l1.11-6.61h1.91l-2.6,15.54h-1.91l.42-2.56Zm-.76.02c.53-.57.99-1.41,1.16-2.39l.38-2.27c.23-1.43-.76-2.27-2.31-2.27-1.97,0-3.09,1.3-3.42,3.25l-.23,1.45c-.06.36-.08.67-.08.95,0,1.51.69,2.46,2.12,2.46.88,0,1.68-.4,2.39-1.18Z"/>
      <path class="cls-2" d="m417.13,364.66c0-.23.04-.63.08-.92l1.18-6.8h-3.07l.25-1.6h2.12c.76,0,1.11-.27,1.24-1.03l.46-2.79h1.81l-.65,3.82h4.43l-.25,1.6h-4.43l-1.28,7.64.42.23,4.45-3.04.94,1.18-2.16,1.57c-1.91,1.41-2.79,1.91-3.78,1.91-1.13,0-1.76-.65-1.76-1.76Z"/>
      <path class="cls-2" d="m427.8,361.78c0-3.95,2.48-6.7,6.05-6.7,2.12,0,3.72,1.03,3.72,2.94,0,1.55-1.01,3.44-7.77,3.65-.02.19-.02.4-.02.46,0,1.43.46,2.69,2.58,2.69,1.49,0,2.35-.61,3.55-2.29l1.3.82c-1.22,1.93-2.67,3.06-5.04,3.06-2.81,0-4.37-1.57-4.37-4.64Zm2.16-1.6l-.02.23c5.02-.17,5.71-1.32,5.71-2.31,0-.84-.55-1.51-2-1.51-2.02,0-3.36,1.26-3.7,3.59Z"/>
      <path class="cls-2" d="m440.02,366.17l1.81-10.83h1.91l-.42,2.56h.11c.8-1.72,1.85-2.81,3.59-2.81,1.87,0,2.94,1.22,2.94,3.13,0,.46-.04.96-.15,1.55l-1.07,6.4h-1.91l1.07-6.36c.08-.48.1-.88.1-1.18,0-1.15-.52-1.93-1.7-1.93-.9,0-1.55.46-2.16,1.15-.27.31-1.03,1.22-1.22,2.39l-.99,5.92h-1.91Z"/>
      <path class="cls-2" d="m454.93,364.66c0-.23.04-.63.08-.92l1.18-6.8h-3.06l.25-1.6h2.12c.76,0,1.11-.27,1.24-1.03l.46-2.79h1.81l-.65,3.82h4.43l-.25,1.6h-4.43l-1.28,7.64.42.23,4.45-3.04.94,1.18-2.16,1.57c-1.91,1.41-2.79,1.91-3.78,1.91-1.13,0-1.76-.65-1.76-1.76Z"/>
      <path class="cls-2" d="m464.91,364.21c0-.42.06-.94.15-1.51l1.22-7.37h1.66l-1.2,7.14c-.08.44-.13.88-.13,1.24,0,.76.32,1.11.9,1.11.52,0,.92-.34,1.28-.84.36-.5.55-1.26.65-1.8l1.16-6.85h1.62l-1.18,7.16c-.08.48-.1.88-.1,1.22,0,.78.25,1.13.86,1.13,1.47,0,2.62-3.34,2.62-6.38,0-1.03-.17-2.1-.46-2.79l1.53-.46c.36.76.59,1.89.59,3.19,0,2.52-.61,4.89-1.68,6.36-.78,1.07-1.81,1.62-2.96,1.62-1.22,0-1.93-.65-1.83-2.23h-.13c-.59,1.41-1.37,2.23-2.67,2.23s-1.91-.84-1.91-2.16Z"/>
      <path class="cls-2" d="m480.74,364.76c0-.29.06-.63.13-.99l1.32-6.85h-3.8l.27-1.6h5.73l-1.79,9.28.46.19,3.91-3.46,1.11,1.03-1.79,1.7c-1.87,1.79-2.71,2.35-3.76,2.35-1.18,0-1.81-.67-1.81-1.66Zm1.81-12.58c0-.17.02-.38.08-.67.15-.69.57-1.07,1.49-1.07s1.32.42,1.32.92c0,.17-.02.38-.08.67-.15.69-.57,1.07-1.49,1.07s-1.32-.42-1.32-.92Z"/>
      <path class="cls-2" d="m490.84,361.84c0-4.05,2.41-6.76,5.65-6.76,2.33,0,3.46,1.15,3.86,2.62l-1.62.67c-.4-1.24-1.11-1.68-2.44-1.68-1.72,0-2.86,1.15-3.21,3.28l-.21,1.26c-.08.46-.11.73-.11,1.01,0,1.72.97,2.56,2.5,2.56.95,0,1.83-.29,3.51-2.58l1.32.8c-1.39,2.2-2.75,3.4-5.08,3.4-2.75,0-4.18-1.83-4.18-4.58Z"/>
      <path class="cls-2" d="m505.63,350.63h1.91l-1.22,7.27h.1c.76-1.64,1.91-2.81,3.72-2.81s2.83,1.07,2.83,2.65c0,1.43-.84,3.09-4.26,3.95l1.37,3.06.29.06,2.58-2.39,1.01,1.03-1.41,1.43c-1.07,1.07-1.74,1.55-2.6,1.55s-1.34-.44-1.78-1.47l-1.58-3.55c3.32-.84,4.43-1.95,4.43-3.23,0-.94-.61-1.51-1.7-1.51-.97,0-1.62.46-2.23,1.2-.59.69-1.03,1.47-1.18,2.39l-.99,5.92h-1.91l2.6-15.54Z"/>
      <path class="cls-2" d="m518.08,364.74c0-.25.02-.54.08-.88l2.23-11.63h-3.7l.27-1.6h5.67l-2.69,14,.48.17,4.05-3.53,1.07,1.03-1.99,1.87c-1.93,1.8-2.75,2.25-3.72,2.25-1.24,0-1.76-.69-1.76-1.68Z"/>
      <path class="cls-2" d="m535.36,363.61h-.08c-.8,1.72-1.87,2.81-3.61,2.81-1.85,0-2.94-1.22-2.94-3.13,0-.46.04-.96.15-1.55l1.07-6.4h1.91l-1.05,6.36c-.08.46-.13.88-.13,1.18,0,1.16.55,1.93,1.7,1.93.9,0,1.57-.46,2.18-1.15.27-.31,1.01-1.22,1.2-2.39l.99-5.92h1.91l-1.81,10.83h-1.91l.42-2.56Z"/>
      <path class="cls-2" d="m540.82,366.17l1.81-10.83h1.91l-.42,2.56h.11c.8-1.72,1.85-2.81,3.59-2.81,1.87,0,2.94,1.22,2.94,3.13,0,.46-.04.96-.15,1.55l-1.07,6.4h-1.91l1.07-6.36c.08-.48.1-.88.1-1.18,0-1.15-.52-1.93-1.7-1.93-.9,0-1.55.46-2.16,1.15-.27.31-1.03,1.22-1.22,2.39l-.99,5.92h-1.91Z"/>
      <path class="cls-2" d="m552.92,369.11l1.26-1.24c.59.73,1.47,1.13,2.73,1.13,1.89,0,3-.86,3.42-3.29l.42-2.48h-.1c-.82,1.72-1.91,2.81-3.8,2.81-2.25,0-3.38-1.51-3.38-4.12,0-3.02,1.47-6.85,5.06-6.85,1.64,0,2.69.76,3.11,2.16h.08l.31-1.91h1.93l-1.79,10.69c-.57,3.25-2.54,4.6-5.35,4.6-1.79,0-3.09-.48-3.91-1.51Zm7.05-5.84c.42-.48.97-1.24,1.16-2.37l.31-1.95c.23-1.41-.76-2.25-2.33-2.25-1.93,0-3.09,1.3-3.4,3.21l-.19,1.09c-.06.36-.1.61-.1.94,0,1.58.71,2.48,2.14,2.48.86,0,1.7-.34,2.42-1.15Z"/>
      <path class="cls-2" d="m568.84,365.33c0-.17.04-.42.11-.73.15-.78.67-1.32,1.83-1.32,1.07,0,1.49.46,1.49,1.03,0,.17-.04.42-.1.76-.15.78-.67,1.32-1.83,1.32-1.07,0-1.49-.46-1.49-1.05Z"/>
    </g>
  </g>
  <g id="Rechteck_3179" class="rechteck">
    <path class="cls-1" d="m105.78,97.5h249.11c22.89,0,41.44,18.55,41.44,41.44h0c0,22.89-18.55,41.44-41.44,41.44H105.78c-22.89,0-41.44-18.55-41.44-41.44h0c0-22.89,18.55-41.44,41.44-41.44Z"/>
    <path class="cls-2" d="m354.89,180.39H105.78c-22.85,0-41.44-18.59-41.44-41.44s18.59-41.44,41.44-41.44h249.11c22.85,0,41.44,18.59,41.44,41.44s-18.59,41.44-41.44,41.44ZM105.78,98.5c-22.3,0-40.44,18.14-40.44,40.44s18.14,40.44,40.44,40.44h249.11c22.3,0,40.44-18.14,40.44-40.44s-18.14-40.44-40.44-40.44H105.78Z"/>
  </g>
  <g id="Rechteck_3182" class="rechteck">
    <path class="cls-1" d="m105.78,179.72h540.11c22.89,0,41.44,18.55,41.44,41.44h0c0,22.89-18.55,41.44-41.44,41.44H105.78c-22.89,0-41.44-18.55-41.44-41.44h0c0-22.89,18.55-41.44,41.44-41.44Z"/>
    <path class="cls-2" d="m645.89,262.61H105.78c-22.85,0-41.44-18.59-41.44-41.44s18.59-41.44,41.44-41.44h540.11c22.85,0,41.44,18.59,41.44,41.44s-18.59,41.44-41.44,41.44ZM105.78,180.72c-22.3,0-40.44,18.14-40.44,40.44s18.14,40.44,40.44,40.44h540.11c22.3,0,40.44-18.14,40.44-40.44s-18.14-40.44-40.44-40.44H105.78Z"/>
  </g>
  <g id="Rechteck_3183" class="rechteck">
    <path class="cls-1" d="m134.78,261.61h124.11c38.9,0,70.44,31.54,70.44,70.44h0c0,38.9-31.54,70.44-70.44,70.44h-124.11c-38.9,0-70.44-31.54-70.44-70.44h0c0-38.9,31.54-70.44,70.44-70.44Z"/>
    <path class="cls-2" d="m258.89,402.5h-124.11c-38.84,0-70.44-31.6-70.44-70.44s31.6-70.44,70.44-70.44h124.11c38.84,0,70.44,31.6,70.44,70.44s-31.6,70.44-70.44,70.44Zm-124.11-139.89c-38.29,0-69.44,31.15-69.44,69.44s31.15,69.44,69.44,69.44h124.11c38.29,0,69.44-31.15,69.44-69.44s-31.15-69.44-69.44-69.44h-124.11Z"/>
  </g>
  <g id="Rechteck_3180" class="rechteck">
    <path class="cls-1" d="m404.78,97.5h24.11c22.89,0,41.44,18.55,41.44,41.44h0c0,22.89-18.55,41.44-41.44,41.44h-24.11c-22.89,0-41.44-18.55-41.44-41.44h0c0-22.89,18.55-41.44,41.44-41.44Z"/>
    <path class="cls-2" d="m428.89,180.39h-24.11c-22.85,0-41.44-18.59-41.44-41.44s18.59-41.44,41.44-41.44h24.11c22.85,0,41.44,18.59,41.44,41.44s-18.59,41.44-41.44,41.44Zm-24.11-81.89c-22.3,0-40.44,18.14-40.44,40.44s18.14,40.44,40.44,40.44h24.11c22.3,0,40.44-18.14,40.44-40.44s-18.14-40.44-40.44-40.44h-24.11Z"/>
  </g>
  <g id="Rechteck_3181" class="rechteck">
    <path class="cls-1" d="m480.28,97.5h24.11c22.89,0,41.44,18.55,41.44,41.44h0c0,22.89-18.55,41.44-41.44,41.44h-24.11c-22.89,0-41.44-18.55-41.44-41.44h0c0-22.89,18.55-41.44,41.44-41.44Z"/>
    <path class="cls-2" d="m504.39,180.39h-24.11c-22.85,0-41.44-18.59-41.44-41.44s18.59-41.44,41.44-41.44h24.11c22.85,0,41.44,18.59,41.44,41.44s-18.59,41.44-41.44,41.44Zm-24.11-81.89c-22.3,0-40.44,18.14-40.44,40.44s18.14,40.44,40.44,40.44h24.11c22.3,0,40.44-18.14,40.44-40.44s-18.14-40.44-40.44-40.44h-24.11Z"/>
  </g>
  <g id="Rechteck_3185" class="rechteck">
    <path class="cls-1" d="m339.78,261.61h277.11c38.9,0,70.44,31.54,70.44,70.44h0c0,38.9-31.54,70.44-70.44,70.44h-277.11c-38.9,0-70.44-31.54-70.44-70.44h0c0-38.9,31.54-70.44,70.44-70.44Z"/>
    <path class="cls-2" d="m616.89,402.5h-277.11c-38.84,0-70.44-31.6-70.44-70.44s31.6-70.44,70.44-70.44h277.11c38.84,0,70.44,31.6,70.44,70.44s-31.6,70.44-70.44,70.44Zm-277.11-139.89c-38.29,0-69.44,31.15-69.44,69.44s31.15,69.44,69.44,69.44h277.11c38.29,0,69.44-31.15,69.44-69.44s-31.15-69.44-69.44-69.44h-277.11Z"/>
  </g>
  <g id="Rechteck_3186" class="rechteck">
    <path class="cls-1" d="m134.78,261.61h124.11c38.9,0,70.44,31.54,70.44,70.44h0c0,38.9-31.54,70.44-70.44,70.44h-124.11c-38.9,0-70.44-31.54-70.44-70.44h0c0-38.9,31.54-70.44,70.44-70.44Z"/>
    <path class="cls-2" d="m258.89,402.5h-124.11c-38.84,0-70.44-31.6-70.44-70.44s31.6-70.44,70.44-70.44h124.11c38.84,0,70.44,31.6,70.44,70.44s-31.6,70.44-70.44,70.44Zm-124.11-139.89c-38.29,0-69.44,31.15-69.44,69.44s31.15,69.44,69.44,69.44h124.11c38.29,0,69.44-31.15,69.44-69.44s-31.15-69.44-69.44-69.44h-124.11Z"/>
  </g>
</svg>