<?xml version="1.0" encoding="UTF-8"?>
<svg id="Ebene_1"
  xmlns="http://www.w3.org/2000/svg" viewBox="0 0 751.67 500">
  <defs>
    <style>.cls-1{fill:none;}.cls-2{fill:#252525;}.cls-3{isolation:isolate;}</style>
  </defs>
  <g id="Leerstand" class="cls-3">
    <g class="cls-3">
      <path class="cls-2" d="m150.39,174.9v8.88h-25.26v-32.2h10.12v23.33h15.14Z"/>
      <path class="cls-2" d="m167.41,160.32v3.22h12.97v8.37h-12.97v3.08h16.1v8.79h-26.22v-32.2h26.22v8.74h-16.1Z"/>
      <path class="cls-2" d="m200.53,160.32v3.22h12.97v8.37h-12.97v3.08h16.1v8.79h-26.22v-32.2h26.22v8.74h-16.1Z"/>
      <path class="cls-2" d="m223.53,151.58h17.53c8.23,0,13.66,5.57,13.66,12.42,0,4.19-2.02,7.91-5.52,10.17l6.35,9.62h-11.73l-4.37-7.36h-5.75v7.36h-10.17v-32.2Zm17.53,15.96c1.93,0,3.54-1.56,3.54-3.54s-1.61-3.54-3.54-3.54h-7.36v7.08h7.36Z"/>
      <path class="cls-2" d="m291.66,173.15c0,6.62-4.69,11.18-15.5,11.18h-.78c-12.88,0-15-7.18-15-11.5h10.17c.28,1.61,2.21,2.48,5.47,2.48h.14c3.63,0,5.15-.74,5.15-1.98,0-.92-.78-1.7-3.13-1.7h-5.24c-8,0-12.05-3.68-12.05-9.38s3.63-11.23,15-11.23h.46c13.02,0,14.63,8.05,14.63,11.18h-10.17c-.18-1.33-1.43-2.48-4.74-2.48h-.18c-3.82,0-4.69,1.06-4.69,2.02s.78,1.7,2.85,1.7h6.03c7.64,0,11.59,4,11.59,9.71Z"/>
      <path class="cls-2" d="m327.58,160.46h-10.72v23.32h-10.12v-23.32h-10.72v-8.88h31.56v8.88Z"/>
      <path class="cls-2" d="m352.33,178.67h-12.28l-1.33,5.11h-10.21l8.51-32.2h18.4l8.51,32.2h-10.26l-1.33-5.11Zm-2.35-8.97l-2.39-9.25h-2.85l-2.39,9.25h7.64Z"/>
      <path class="cls-2" d="m401.32,151.58v32.2h-9.94l-12.47-16.93v16.93h-9.94v-32.2h9.94l12.47,16.52v-16.52h9.94Z"/>
      <path class="cls-2" d="m440.1,167.68c0,9.94-7.64,16.1-17.71,16.1h-14.17v-32.2h14.17c10.08,0,17.71,6.12,17.71,16.1Zm-10.3,0c0-4.14-3.13-7.27-7.41-7.27h-4.09v14.54h4.09c4.28-.09,7.41-3.17,7.41-7.27Z"/>
    </g>
  </g>
  <g id="Wohnraum_" class="cls-3">
    <g class="cls-3">
      <path class="cls-2" d="m299.92,235.13l-8.51,32.2h-10.72l-4.83-17.34-4.83,17.34h-10.72l-8.51-32.2h10.67l3.91,18.13,4.69-18.13h8.65l5.47,18.72,4.05-18.72h10.67Z"/>
      <path class="cls-2" d="m338.14,251.23c0,9.98-7.36,16.65-17.67,16.65h-.14c-10.08,0-17.67-6.67-17.67-16.65s7.36-16.65,17.67-16.65h.14c10.31,0,17.67,6.72,17.67,16.65Zm-10.31,0c0-4.19-2.99-7.22-7.36-7.22h-.14c-4.37,0-7.36,3.04-7.36,7.22s2.99,7.22,7.36,7.22h.14c4.37,0,7.36-2.99,7.36-7.22Z"/>
      <path class="cls-2" d="m375.95,235.13v32.2h-10.12v-11.96h-11.59v11.96h-10.12v-32.2h10.12v11.27h11.59v-11.27h10.12Z"/>
      <path class="cls-2" d="m415.19,235.13v32.2h-9.94l-12.47-16.93v16.93h-9.94v-32.2h9.94l12.47,16.52v-16.52h9.94Z"/>
      <path class="cls-2" d="m422.08,235.13h17.53c8.23,0,13.66,5.57,13.66,12.42,0,4.19-2.02,7.91-5.52,10.17l6.35,9.62h-11.73l-4.37-7.36h-5.75v7.36h-10.17v-32.2Zm17.53,15.96c1.93,0,3.54-1.56,3.54-3.54s-1.61-3.54-3.54-3.54h-7.36v7.08h7.36Z"/>
      <path class="cls-2" d="m481.61,262.23h-12.28l-1.33,5.11h-10.21l8.51-32.2h18.4l8.51,32.2h-10.26l-1.33-5.11Zm-2.35-8.97l-2.39-9.25h-2.85l-2.39,9.25h7.64Z"/>
      <path class="cls-2" d="m496.88,252.66v-17.53h10.12v16.61c0,3.4,1.52,6.39,5.75,6.39h.14c4.28,0,5.75-2.99,5.75-6.39v-16.61h10.12v17.53c0,9.98-6.03,15.23-15.87,15.23h-.14c-9.84,0-15.87-5.24-15.87-15.23Z"/>
      <path class="cls-2" d="m571.77,235.13v32.2h-9.89v-16.1l-7.96,9.98-8.37-10.26v16.38h-9.89v-32.2h9.89l8.37,11.09,7.96-11.09h9.89Z"/>
      <path class="cls-2" d="m578.67,246.4v-11.27h10.12v11.27l-1.84,9.98h-6.44l-1.84-9.98Zm0,11.41h10.12v9.52h-10.12v-9.52Z"/>
    </g>
  </g>
  <g id="zu" class="cls-3">
    <g class="cls-3">
      <path class="cls-2" d="m153.8,244.01l-14.86,14.45h14.86v8.88h-28.66v-8.88l14.81-14.45h-14.81v-8.88h28.66v8.88Z"/>
      <path class="cls-2" d="m160.69,252.66v-17.53h10.12v16.61c0,3.4,1.52,6.39,5.75,6.39h.14c4.28,0,5.75-2.99,5.75-6.39v-16.61h10.12v17.53c0,9.98-6.03,15.23-15.87,15.23h-.14c-9.84,0-15.87-5.24-15.87-15.23Z"/>
    </g>
  </g>
  <g id="Rechteck_3171">
    <path class="cls-1" d="m132.78,126.34h323.11c22.89,0,41.44,18.55,41.44,41.44h0c0,22.89-18.55,41.44-41.44,41.44H132.78c-22.89,0-41.44-18.55-41.44-41.44h0c0-22.89,18.55-41.44,41.44-41.44Z"/>
    <path class="cls-2" d="m455.89,209.22H132.78c-22.85,0-41.44-18.59-41.44-41.44s18.59-41.44,41.44-41.44h323.11c22.85,0,41.44,18.59,41.44,41.44s-18.59,41.44-41.44,41.44ZM132.78,127.34c-22.3,0-40.44,18.14-40.44,40.44s18.14,40.44,40.44,40.44h323.11c22.3,0,40.44-18.14,40.44-40.44s-18.14-40.44-40.44-40.44H132.78Z"/>
  </g>
  <g id="Rechteck_3173">
    <path class="cls-1" d="m132.78,208.22h52.11c22.89,0,41.44,18.55,41.44,41.44h0c0,22.89-18.55,41.44-41.44,41.44h-52.11c-22.89,0-41.44-18.55-41.44-41.44h0c0-22.89,18.55-41.44,41.44-41.44Z"/>
    <path class="cls-2" d="m184.89,291.11h-52.11c-22.85,0-41.44-18.59-41.44-41.44s18.59-41.44,41.44-41.44h52.11c22.85,0,41.44,18.59,41.44,41.44s-18.59,41.44-41.44,41.44Zm-52.11-81.89c-22.3,0-40.44,18.14-40.44,40.44s18.14,40.44,40.44,40.44h52.11c22.3,0,40.44-18.14,40.44-40.44s-18.14-40.44-40.44-40.44h-52.11Z"/>
  </g>
  <g id="Rechteck_3172">
    <path class="cls-1" d="m267.78,208.22h323.11c22.89,0,41.44,18.55,41.44,41.44h0c0,22.89-18.55,41.44-41.44,41.44h-323.11c-22.89,0-41.44-18.55-41.44-41.44h0c0-22.89,18.55-41.44,41.44-41.44Z"/>
    <path class="cls-2" d="m590.89,291.11h-323.11c-22.85,0-41.44-18.59-41.44-41.44s18.59-41.44,41.44-41.44h323.11c22.85,0,41.44,18.59,41.44,41.44s-18.59,41.44-41.44,41.44Zm-323.11-81.89c-22.3,0-40.44,18.14-40.44,40.44s18.14,40.44,40.44,40.44h323.11c22.3,0,40.44-18.14,40.44-40.44s-18.14-40.44-40.44-40.44h-323.11Z"/>
  </g>
  <g id="Rechteck_3174">
    <path class="cls-1" d="m132.78,290.78h404.11c22.89,0,41.44,18.55,41.44,41.44h0c0,22.89-18.55,41.44-41.44,41.44H132.78c-22.89,0-41.44-18.55-41.44-41.44h0c0-22.89,18.55-41.44,41.44-41.44Z"/>
    <path class="cls-2" d="m536.89,373.66H132.78c-22.85,0-41.44-18.59-41.44-41.44s18.59-41.44,41.44-41.44h404.11c22.85,0,41.44,18.59,41.44,41.44s-18.59,41.44-41.44,41.44Zm-404.11-81.89c-22.3,0-40.44,18.14-40.44,40.44s18.14,40.44,40.44,40.44h404.11c22.3,0,40.44-18.14,40.44-40.44s-18.14-40.44-40.44-40.44H132.78Z"/>
  </g>
  <g id="Umwidmung_Umnutzung_und_Weiterentwicklung_zum_Gemeinwohl_" class="cls-3">
    <g class="cls-3">
      <path class="cls-2" d="m127.96,311.57l-1.43,8.55c-.23,1.36-.27,1.95-.27,2.44,0,1.36.44,2.22,2.2,2.22,2.6,0,2.94-1.53,3.4-4.22l1.51-8.99h1.99l-1.45,8.63c-.71,4.26-1.53,6.28-5.44,6.28-3.09,0-4.22-1.39-4.22-3.78,0-.86.17-2.04.36-3.13l1.34-8h1.99Z"/>
      <path class="cls-2" d="m135.58,326.22l1.81-10.83h1.7l-.27,1.74h.08c.5-1.13,1.18-1.99,2.37-1.99s1.74.84,1.64,2.08h.08c.55-1.24,1.34-2.08,2.62-2.08,1.2,0,1.85.73,1.85,2.06,0,.42-.06,1.01-.15,1.51l-1.26,7.52h-1.7l1.22-7.24c.06-.46.13-.92.13-1.22,0-.74-.27-1.11-.86-1.11-.55,0-.94.34-1.28.82-.38.55-.61,1.18-.71,1.83l-1.18,6.93h-1.7l1.22-7.24c.08-.46.13-.84.13-1.18,0-.82-.27-1.15-.82-1.15s-.99.31-1.32.82c-.38.57-.63,1.2-.71,1.79l-1.18,6.97h-1.7Z"/>
      <path class="cls-2" d="m148.81,324.27c0-.42.06-.94.15-1.51l1.22-7.37h1.66l-1.2,7.14c-.08.44-.13.88-.13,1.24,0,.76.31,1.11.9,1.11.52,0,.92-.34,1.28-.84s.55-1.26.65-1.81l1.15-6.84h1.62l-1.18,7.16c-.08.48-.1.88-.1,1.22,0,.78.25,1.13.86,1.13,1.47,0,2.62-3.34,2.62-6.38,0-1.03-.17-2.1-.46-2.79l1.53-.46c.36.76.59,1.89.59,3.19,0,2.52-.61,4.89-1.68,6.36-.78,1.07-1.81,1.62-2.96,1.62-1.22,0-1.93-.65-1.83-2.23h-.13c-.59,1.41-1.36,2.23-2.67,2.23s-1.91-.84-1.91-2.16Z"/>
      <path class="cls-2" d="m164.64,324.81c0-.29.06-.63.13-.99l1.32-6.84h-3.8l.27-1.6h5.73l-1.78,9.28.46.19,3.91-3.46,1.11,1.03-1.78,1.7c-1.87,1.79-2.71,2.35-3.76,2.35-1.18,0-1.81-.67-1.81-1.66Zm1.81-12.58c0-.17.02-.38.08-.67.15-.69.57-1.07,1.49-1.07s1.32.42,1.32.92c0,.17-.02.38-.08.67-.15.69-.57,1.07-1.49,1.07s-1.32-.42-1.32-.92Z"/>
      <path class="cls-2" d="m181.55,323.66h-.06c-.84,1.68-1.91,2.81-3.8,2.81-2.2,0-3.34-1.47-3.34-4.2,0-3.17,1.43-7.14,5.08-7.14,1.62,0,2.67.76,3.11,2.16h.08l1.11-6.61h1.91l-2.6,15.54h-1.91l.42-2.56Zm-.76.02c.52-.57.99-1.41,1.15-2.39l.38-2.27c.23-1.43-.76-2.27-2.31-2.27-1.97,0-3.09,1.3-3.42,3.25l-.23,1.45c-.06.36-.08.67-.08.94,0,1.51.69,2.46,2.12,2.46.88,0,1.68-.4,2.39-1.18Z"/>
      <path class="cls-2" d="m185.98,326.22l1.81-10.83h1.7l-.27,1.74h.08c.5-1.13,1.18-1.99,2.37-1.99s1.74.84,1.64,2.08h.08c.55-1.24,1.34-2.08,2.62-2.08,1.2,0,1.85.73,1.85,2.06,0,.42-.06,1.01-.15,1.51l-1.26,7.52h-1.7l1.22-7.24c.06-.46.13-.92.13-1.22,0-.74-.27-1.11-.86-1.11-.55,0-.94.34-1.28.82-.38.55-.61,1.18-.71,1.83l-1.18,6.93h-1.7l1.22-7.24c.08-.46.13-.84.13-1.18,0-.82-.27-1.15-.82-1.15s-.99.31-1.32.82c-.38.57-.63,1.2-.71,1.79l-1.18,6.97h-1.7Z"/>
      <path class="cls-2" d="m206.66,323.66h-.08c-.8,1.72-1.87,2.81-3.61,2.81-1.85,0-2.94-1.22-2.94-3.13,0-.46.04-.96.15-1.55l1.07-6.4h1.91l-1.05,6.36c-.08.46-.13.88-.13,1.18,0,1.16.55,1.93,1.7,1.93.9,0,1.57-.46,2.18-1.15.27-.31,1.01-1.22,1.2-2.39l.99-5.92h1.91l-1.81,10.83h-1.91l.42-2.56Z"/>
      <path class="cls-2" d="m212.12,326.22l1.81-10.83h1.91l-.42,2.56h.1c.8-1.72,1.85-2.81,3.59-2.81,1.87,0,2.94,1.22,2.94,3.13,0,.46-.04.96-.15,1.55l-1.07,6.4h-1.91l1.07-6.36c.08-.48.1-.88.1-1.18,0-1.16-.52-1.93-1.7-1.93-.9,0-1.55.46-2.16,1.15-.27.31-1.03,1.22-1.22,2.39l-.99,5.92h-1.91Z"/>
      <path class="cls-2" d="m224.22,329.16l1.26-1.24c.59.73,1.47,1.13,2.73,1.13,1.89,0,3-.86,3.42-3.3l.42-2.48h-.1c-.82,1.72-1.91,2.81-3.8,2.81-2.25,0-3.38-1.51-3.38-4.12,0-3.02,1.47-6.84,5.06-6.84,1.64,0,2.69.76,3.11,2.16h.08l.31-1.91h1.93l-1.78,10.69c-.57,3.25-2.54,4.6-5.35,4.6-1.78,0-3.09-.48-3.91-1.51Zm7.05-5.84c.42-.48.97-1.24,1.15-2.37l.31-1.95c.23-1.41-.76-2.25-2.33-2.25-1.93,0-3.09,1.3-3.4,3.21l-.19,1.09c-.06.36-.1.61-.1.94,0,1.58.71,2.48,2.14,2.48.86,0,1.7-.34,2.41-1.16Z"/>
      <path class="cls-2" d="m241.1,323.24h2.92l-3.44,5.98h-1.57l2.1-5.98Z"/>
      <path class="cls-2" d="m266.55,311.57l-1.43,8.55c-.23,1.36-.27,1.95-.27,2.44,0,1.36.44,2.22,2.2,2.22,2.6,0,2.94-1.53,3.4-4.22l1.51-8.99h1.99l-1.45,8.63c-.71,4.26-1.53,6.28-5.44,6.28-3.09,0-4.22-1.39-4.22-3.78,0-.86.17-2.04.36-3.13l1.34-8h1.99Z"/>
      <path class="cls-2" d="m274.18,326.22l1.81-10.83h1.7l-.27,1.74h.08c.5-1.13,1.18-1.99,2.37-1.99s1.74.84,1.64,2.08h.08c.55-1.24,1.34-2.08,2.62-2.08,1.2,0,1.85.73,1.85,2.06,0,.42-.06,1.01-.15,1.51l-1.26,7.52h-1.7l1.22-7.24c.06-.46.13-.92.13-1.22,0-.74-.27-1.11-.86-1.11-.55,0-.94.34-1.28.82-.38.55-.61,1.18-.71,1.83l-1.18,6.93h-1.7l1.22-7.24c.08-.46.13-.84.13-1.18,0-.82-.27-1.15-.82-1.15s-.99.31-1.32.82c-.38.57-.63,1.2-.71,1.79l-1.18,6.97h-1.7Z"/>
      <path class="cls-2" d="m287.72,326.22l1.81-10.83h1.91l-.42,2.56h.1c.8-1.72,1.85-2.81,3.59-2.81,1.87,0,2.94,1.22,2.94,3.13,0,.46-.04.96-.15,1.55l-1.07,6.4h-1.91l1.07-6.36c.08-.48.1-.88.1-1.18,0-1.16-.52-1.93-1.7-1.93-.9,0-1.55.46-2.16,1.15-.27.31-1.03,1.22-1.22,2.39l-.99,5.92h-1.91Z"/>
      <path class="cls-2" d="m307.46,323.66h-.08c-.8,1.72-1.87,2.81-3.61,2.81-1.85,0-2.94-1.22-2.94-3.13,0-.46.04-.96.15-1.55l1.07-6.4h1.91l-1.05,6.36c-.08.46-.13.88-.13,1.18,0,1.16.55,1.93,1.7,1.93.9,0,1.57-.46,2.18-1.15.27-.31,1.01-1.22,1.2-2.39l.99-5.92h1.91l-1.81,10.83h-1.91l.42-2.56Z"/>
      <path class="cls-2" d="m315.23,324.71c0-.23.04-.63.08-.92l1.18-6.8h-3.07l.25-1.6h2.12c.76,0,1.11-.27,1.24-1.03l.46-2.79h1.81l-.65,3.82h4.43l-.25,1.6h-4.43l-1.28,7.64.42.23,4.45-3.04.94,1.18-2.16,1.58c-1.91,1.41-2.79,1.91-3.78,1.91-1.13,0-1.76-.65-1.76-1.76Z"/>
      <path class="cls-2" d="m330.98,325.95l-3.44-1.22-.1.08-.23,1.41h-1.83l.25-1.81,7.37-6.61c-1.53-.82-2.44-1.09-3.25-1.09-1.45,0-1.76,1.07-1.76,2.35h-1.51v-.23c0-2.37,1.22-3.7,3.3-3.7,1.2,0,2.39.44,3.97,1.49l.36.21.1-.08.21-1.37h1.85l-.27,1.76-7.37,6.61,5.12,1.16.23-.25-.65-2.65,1.3-.5.34.8c.34.74.57,1.51.57,2.16,0,1.01-.82,1.95-2.2,1.95-.67,0-1.39-.13-2.33-.48Z"/>
      <path class="cls-2" d="m345.26,323.66h-.08c-.8,1.72-1.87,2.81-3.61,2.81-1.85,0-2.94-1.22-2.94-3.13,0-.46.04-.96.15-1.55l1.07-6.4h1.91l-1.05,6.36c-.08.46-.13.88-.13,1.18,0,1.16.55,1.93,1.7,1.93.9,0,1.57-.46,2.18-1.15.27-.31,1.01-1.22,1.2-2.39l.99-5.92h1.91l-1.81,10.83h-1.91l.42-2.56Z"/>
      <path class="cls-2" d="m350.72,326.22l1.81-10.83h1.91l-.42,2.56h.1c.8-1.72,1.85-2.81,3.59-2.81,1.87,0,2.94,1.22,2.94,3.13,0,.46-.04.96-.15,1.55l-1.07,6.4h-1.91l1.07-6.36c.08-.48.1-.88.1-1.18,0-1.16-.52-1.93-1.7-1.93-.9,0-1.55.46-2.16,1.15-.27.31-1.03,1.22-1.22,2.39l-.99,5.92h-1.91Z"/>
      <path class="cls-2" d="m362.82,329.16l1.26-1.24c.59.73,1.47,1.13,2.73,1.13,1.89,0,3-.86,3.42-3.3l.42-2.48h-.1c-.82,1.72-1.91,2.81-3.8,2.81-2.25,0-3.38-1.51-3.38-4.12,0-3.02,1.47-6.84,5.06-6.84,1.64,0,2.69.76,3.11,2.16h.08l.31-1.91h1.93l-1.78,10.69c-.57,3.25-2.54,4.6-5.35,4.6-1.78,0-3.09-.48-3.91-1.51Zm7.05-5.84c.42-.48.97-1.24,1.15-2.37l.31-1.95c.23-1.41-.76-2.25-2.33-2.25-1.93,0-3.09,1.3-3.4,3.21l-.19,1.09c-.06.36-.1.61-.1.94,0,1.58.71,2.48,2.14,2.48.86,0,1.7-.34,2.41-1.16Z"/>
      <path class="cls-2" d="m395.66,323.66h-.08c-.8,1.72-1.87,2.81-3.61,2.81-1.85,0-2.94-1.22-2.94-3.13,0-.46.04-.96.15-1.55l1.07-6.4h1.91l-1.05,6.36c-.08.46-.13.88-.13,1.18,0,1.16.55,1.93,1.7,1.93.9,0,1.57-.46,2.18-1.15.27-.31,1.01-1.22,1.2-2.39l.99-5.92h1.91l-1.81,10.83h-1.91l.42-2.56Z"/>
      <path class="cls-2" d="m401.12,326.22l1.81-10.83h1.91l-.42,2.56h.11c.8-1.72,1.85-2.81,3.59-2.81,1.87,0,2.94,1.22,2.94,3.13,0,.46-.04.96-.15,1.55l-1.07,6.4h-1.91l1.07-6.36c.08-.48.11-.88.11-1.18,0-1.16-.53-1.93-1.7-1.93-.9,0-1.55.46-2.16,1.15-.27.31-1.03,1.22-1.22,2.39l-.99,5.92h-1.91Z"/>
      <path class="cls-2" d="m420.94,323.66h-.06c-.84,1.68-1.91,2.81-3.8,2.81-2.21,0-3.34-1.47-3.34-4.2,0-3.17,1.43-7.14,5.08-7.14,1.62,0,2.67.76,3.11,2.16h.08l1.11-6.61h1.91l-2.6,15.54h-1.91l.42-2.56Zm-.76.02c.52-.57.99-1.41,1.15-2.39l.38-2.27c.23-1.43-.76-2.27-2.31-2.27-1.97,0-3.09,1.3-3.42,3.25l-.23,1.45c-.06.36-.08.67-.08.94,0,1.51.69,2.46,2.12,2.46.88,0,1.68-.4,2.39-1.18Z"/>
    </g>
    <g class="cls-3">
      <path class="cls-2" d="m123.65,354.22l1.34-14.66h1.74l-.82,8.36-.42,4.37h.17l3.28-9.03h2.14l.34,9.03h.17l.97-4.22,1.99-8.5h1.76l-3.55,14.66h-2.81l-.21-8.69h-.17l-3.11,8.69h-2.81Z"/>
      <path class="cls-2" d="m136.9,349.83c0-3.95,2.48-6.7,6.05-6.7,2.12,0,3.72,1.03,3.72,2.94,0,1.55-1.01,3.44-7.77,3.65-.02.19-.02.4-.02.46,0,1.43.46,2.69,2.58,2.69,1.49,0,2.35-.61,3.55-2.29l1.3.82c-1.22,1.93-2.67,3.07-5.04,3.07-2.81,0-4.37-1.57-4.37-4.64Zm2.16-1.6l-.02.23c5.02-.17,5.71-1.32,5.71-2.31,0-.84-.55-1.51-1.99-1.51-2.02,0-3.36,1.26-3.7,3.59Z"/>
      <path class="cls-2" d="m152.04,352.81c0-.29.06-.63.13-.99l1.32-6.84h-3.8l.27-1.6h5.73l-1.78,9.28.46.19,3.91-3.46,1.11,1.03-1.78,1.7c-1.87,1.79-2.71,2.35-3.76,2.35-1.18,0-1.81-.67-1.81-1.66Zm1.81-12.58c0-.17.02-.38.08-.67.15-.69.57-1.07,1.49-1.07s1.32.42,1.32.92c0,.17-.02.38-.08.67-.15.69-.57,1.07-1.49,1.07s-1.32-.42-1.32-.92Z"/>
      <path class="cls-2" d="m164.03,352.71c0-.23.04-.63.08-.92l1.18-6.8h-3.07l.25-1.6h2.12c.76,0,1.11-.27,1.24-1.03l.46-2.79h1.81l-.65,3.82h4.43l-.25,1.6h-4.43l-1.28,7.64.42.23,4.45-3.04.94,1.18-2.16,1.58c-1.91,1.41-2.79,1.91-3.78,1.91-1.13,0-1.76-.65-1.76-1.76Z"/>
      <path class="cls-2" d="m174.7,349.83c0-3.95,2.48-6.7,6.05-6.7,2.12,0,3.72,1.03,3.72,2.94,0,1.55-1.01,3.44-7.77,3.65-.02.19-.02.4-.02.46,0,1.43.46,2.69,2.58,2.69,1.49,0,2.35-.61,3.55-2.29l1.3.82c-1.22,1.93-2.67,3.07-5.04,3.07-2.81,0-4.37-1.57-4.37-4.64Zm2.16-1.6l-.02.23c5.02-.17,5.71-1.32,5.71-2.31,0-.84-.55-1.51-1.99-1.51-2.02,0-3.36,1.26-3.7,3.59Z"/>
      <path class="cls-2" d="m189.44,354.22l1.53-9.24h-2.92l.27-1.6h4.83l-.5,2.96h.1c.8-1.79,1.93-2.96,4.01-2.96h1.47l-.31,1.91h-1.89c-1.22,0-1.93.36-2.6,1.07-.31.34-.97,1.18-1.15,2.33l-.92,5.52h-1.91Z"/>
      <path class="cls-2" d="m199.9,349.83c0-3.95,2.48-6.7,6.05-6.7,2.12,0,3.72,1.03,3.72,2.94,0,1.55-1.01,3.44-7.77,3.65-.02.19-.02.4-.02.46,0,1.43.46,2.69,2.58,2.69,1.49,0,2.35-.61,3.55-2.29l1.3.82c-1.22,1.93-2.67,3.07-5.04,3.07-2.81,0-4.37-1.57-4.37-4.64Zm2.16-1.6l-.02.23c5.02-.17,5.71-1.32,5.71-2.31,0-.84-.55-1.51-1.99-1.51-2.02,0-3.36,1.26-3.7,3.59Z"/>
      <path class="cls-2" d="m212.12,354.22l1.81-10.83h1.91l-.42,2.56h.1c.8-1.72,1.85-2.81,3.59-2.81,1.87,0,2.94,1.22,2.94,3.13,0,.46-.04.96-.15,1.55l-1.07,6.4h-1.91l1.07-6.36c.08-.48.1-.88.1-1.18,0-1.16-.52-1.93-1.7-1.93-.9,0-1.55.46-2.16,1.15-.27.31-1.03,1.22-1.22,2.39l-.99,5.92h-1.91Z"/>
      <path class="cls-2" d="m227.03,352.71c0-.23.04-.63.08-.92l1.18-6.8h-3.07l.25-1.6h2.12c.76,0,1.11-.27,1.24-1.03l.46-2.79h1.81l-.65,3.82h4.43l-.25,1.6h-4.43l-1.28,7.64.42.23,4.45-3.04.94,1.18-2.16,1.58c-1.91,1.41-2.79,1.91-3.78,1.91-1.13,0-1.76-.65-1.76-1.76Z"/>
      <path class="cls-2" d="m237.01,352.27c0-.42.06-.94.15-1.51l1.22-7.37h1.66l-1.2,7.14c-.08.44-.13.88-.13,1.24,0,.76.31,1.11.9,1.11.52,0,.92-.34,1.28-.84s.55-1.26.65-1.81l1.15-6.84h1.62l-1.18,7.16c-.08.48-.1.88-.1,1.22,0,.78.25,1.13.86,1.13,1.47,0,2.62-3.34,2.62-6.38,0-1.03-.17-2.1-.46-2.79l1.53-.46c.36.76.59,1.89.59,3.19,0,2.52-.61,4.89-1.68,6.36-.78,1.07-1.81,1.62-2.96,1.62-1.22,0-1.93-.65-1.83-2.23h-.13c-.59,1.41-1.36,2.23-2.67,2.23s-1.91-.84-1.91-2.16Z"/>
      <path class="cls-2" d="m252.84,352.81c0-.29.06-.63.13-.99l1.32-6.84h-3.8l.27-1.6h5.73l-1.78,9.28.46.19,3.91-3.46,1.11,1.03-1.78,1.7c-1.87,1.79-2.71,2.35-3.76,2.35-1.18,0-1.81-.67-1.81-1.66Zm1.81-12.58c0-.17.02-.38.08-.67.15-.69.57-1.07,1.49-1.07s1.32.42,1.32.92c0,.17-.02.38-.08.67-.15.69-.57,1.07-1.49,1.07s-1.32-.42-1.32-.92Z"/>
      <path class="cls-2" d="m262.94,349.9c0-4.05,2.41-6.76,5.65-6.76,2.33,0,3.46,1.15,3.86,2.62l-1.62.67c-.4-1.24-1.11-1.68-2.44-1.68-1.72,0-2.86,1.15-3.21,3.28l-.21,1.26c-.08.46-.1.73-.1,1.01,0,1.72.97,2.56,2.5,2.56.94,0,1.83-.29,3.51-2.58l1.32.8c-1.39,2.2-2.75,3.4-5.08,3.4-2.75,0-4.18-1.83-4.18-4.58Z"/>
      <path class="cls-2" d="m277.73,338.68h1.91l-1.22,7.26h.1c.76-1.64,1.91-2.81,3.72-2.81s2.83,1.07,2.83,2.65c0,1.43-.84,3.09-4.26,3.95l1.36,3.07.29.06,2.58-2.39,1.01,1.03-1.41,1.43c-1.07,1.07-1.74,1.55-2.6,1.55s-1.34-.44-1.78-1.47l-1.57-3.55c3.32-.84,4.43-1.95,4.43-3.23,0-.94-.61-1.51-1.7-1.51-.97,0-1.62.46-2.23,1.2-.59.69-1.03,1.47-1.18,2.39l-.99,5.92h-1.91l2.6-15.54Z"/>
      <path class="cls-2" d="m290.18,352.79c0-.25.02-.55.08-.88l2.23-11.63h-3.7l.27-1.6h5.67l-2.69,14,.48.17,4.05-3.53,1.07,1.03-1.99,1.87c-1.93,1.8-2.75,2.25-3.72,2.25-1.24,0-1.76-.69-1.76-1.68Z"/>
      <path class="cls-2" d="m307.46,351.66h-.08c-.8,1.72-1.87,2.81-3.61,2.81-1.85,0-2.94-1.22-2.94-3.13,0-.46.04-.96.15-1.55l1.07-6.4h1.91l-1.05,6.36c-.08.46-.13.88-.13,1.18,0,1.16.55,1.93,1.7,1.93.9,0,1.57-.46,2.18-1.15.27-.31,1.01-1.22,1.2-2.39l.99-5.92h1.91l-1.81,10.83h-1.91l.42-2.56Z"/>
      <path class="cls-2" d="m312.92,354.22l1.81-10.83h1.91l-.42,2.56h.1c.8-1.72,1.85-2.81,3.59-2.81,1.87,0,2.94,1.22,2.94,3.13,0,.46-.04.96-.15,1.55l-1.07,6.4h-1.91l1.07-6.36c.08-.48.1-.88.1-1.18,0-1.16-.52-1.93-1.7-1.93-.9,0-1.55.46-2.16,1.15-.27.31-1.03,1.22-1.22,2.39l-.99,5.92h-1.91Z"/>
      <path class="cls-2" d="m325.02,357.16l1.26-1.24c.59.73,1.47,1.13,2.73,1.13,1.89,0,3-.86,3.42-3.3l.42-2.48h-.1c-.82,1.72-1.91,2.81-3.8,2.81-2.25,0-3.38-1.51-3.38-4.12,0-3.02,1.47-6.84,5.06-6.84,1.64,0,2.69.76,3.11,2.16h.08l.31-1.91h1.93l-1.78,10.69c-.57,3.25-2.54,4.6-5.35,4.6-1.78,0-3.09-.48-3.91-1.51Zm7.05-5.84c.42-.48.97-1.24,1.15-2.37l.31-1.95c.23-1.41-.76-2.25-2.33-2.25-1.93,0-3.09,1.3-3.4,3.21l-.19,1.09c-.06.36-.1.61-.1.94,0,1.58.71,2.48,2.14,2.48.86,0,1.7-.34,2.41-1.16Z"/>
      <path class="cls-2" d="m356.18,353.95l-3.44-1.22-.1.08-.23,1.41h-1.83l.25-1.81,7.37-6.61c-1.53-.82-2.44-1.09-3.25-1.09-1.45,0-1.76,1.07-1.76,2.35h-1.51v-.23c0-2.37,1.22-3.7,3.3-3.7,1.2,0,2.39.44,3.97,1.49l.36.21.1-.08.21-1.37h1.85l-.27,1.76-7.37,6.61,5.12,1.16.23-.25-.65-2.65,1.3-.5.34.8c.34.74.57,1.51.57,2.16,0,1.01-.82,1.95-2.2,1.95-.67,0-1.39-.13-2.33-.48Z"/>
      <path class="cls-2" d="m370.46,351.66h-.08c-.8,1.72-1.87,2.81-3.61,2.81-1.85,0-2.94-1.22-2.94-3.13,0-.46.04-.96.15-1.55l1.07-6.4h1.91l-1.05,6.36c-.08.46-.13.88-.13,1.18,0,1.16.55,1.93,1.7,1.93.9,0,1.57-.46,2.18-1.15.27-.31,1.01-1.22,1.2-2.39l.99-5.92h1.91l-1.81,10.83h-1.91l.42-2.56Z"/>
      <path class="cls-2" d="m374.98,354.22l1.81-10.83h1.7l-.27,1.74h.08c.5-1.13,1.18-1.99,2.37-1.99s1.74.84,1.64,2.08h.08c.55-1.24,1.34-2.08,2.62-2.08,1.2,0,1.85.73,1.85,2.06,0,.42-.06,1.01-.15,1.51l-1.26,7.52h-1.7l1.22-7.24c.06-.46.13-.92.13-1.22,0-.74-.27-1.11-.86-1.11-.55,0-.94.34-1.28.82-.38.55-.61,1.18-.71,1.83l-1.18,6.93h-1.7l1.22-7.24c.08-.46.13-.84.13-1.18,0-.82-.27-1.15-.82-1.15s-.99.31-1.32.82c-.38.57-.63,1.2-.71,1.79l-1.18,6.97h-1.7Z"/>
      <path class="cls-2" d="m408.74,352.08h-.13c-.76,1.3-1.62,2.39-3.49,2.39-2.46,0-3.8-1.83-3.8-5.31,0-3.8,1.47-9.85,6.61-9.85,2.77,0,3.84,1.72,4.14,3.51l-1.85.52c-.25-1.26-.76-2.33-2.44-2.33-2.25,0-3.49,1.87-3.97,4.72l-.34,2.04c-.1.61-.13,1.32-.13,1.72,0,2.02.69,3.3,2.44,3.3,1.89,0,3.07-1.49,3.36-3.25l.19-1.11h-2.98l.25-1.53h4.81l-1.22,7.33h-1.83l.36-2.14Z"/>
      <path class="cls-2" d="m414.1,349.83c0-3.95,2.48-6.7,6.05-6.7,2.12,0,3.72,1.03,3.72,2.94,0,1.55-1.01,3.44-7.77,3.65-.02.19-.02.4-.02.46,0,1.43.46,2.69,2.58,2.69,1.49,0,2.35-.61,3.55-2.29l1.3.82c-1.22,1.93-2.67,3.07-5.04,3.07-2.81,0-4.37-1.57-4.37-4.64Zm2.16-1.6l-.02.23c5.02-.17,5.71-1.32,5.71-2.31,0-.84-.55-1.51-2-1.51-2.02,0-3.36,1.26-3.7,3.59Z"/>
      <path class="cls-2" d="m425.38,354.22l1.81-10.83h1.7l-.27,1.74h.08c.5-1.13,1.18-1.99,2.37-1.99s1.74.84,1.64,2.08h.08c.55-1.24,1.34-2.08,2.62-2.08,1.2,0,1.85.73,1.85,2.06,0,.42-.06,1.01-.15,1.51l-1.26,7.52h-1.7l1.22-7.24c.06-.46.13-.92.13-1.22,0-.74-.27-1.11-.86-1.11-.55,0-.94.34-1.28.82-.38.55-.61,1.18-.71,1.83l-1.18,6.93h-1.7l1.22-7.24c.08-.46.13-.84.13-1.18,0-.82-.27-1.15-.82-1.15s-.99.31-1.32.82c-.38.57-.63,1.2-.71,1.79l-1.18,6.97h-1.7Z"/>
      <path class="cls-2" d="m439.3,349.83c0-3.95,2.48-6.7,6.05-6.7,2.12,0,3.72,1.03,3.72,2.94,0,1.55-1.01,3.44-7.77,3.65-.02.19-.02.4-.02.46,0,1.43.46,2.69,2.58,2.69,1.49,0,2.35-.61,3.55-2.29l1.3.82c-1.22,1.93-2.67,3.07-5.04,3.07-2.81,0-4.37-1.57-4.37-4.64Zm2.16-1.6l-.02.23c5.02-.17,5.71-1.32,5.71-2.31,0-.84-.55-1.51-1.99-1.51-2.02,0-3.36,1.26-3.7,3.59Z"/>
      <path class="cls-2" d="m454.44,352.81c0-.29.06-.63.13-.99l1.32-6.84h-3.8l.27-1.6h5.73l-1.79,9.28.46.19,3.91-3.46,1.11,1.03-1.79,1.7c-1.87,1.79-2.71,2.35-3.76,2.35-1.18,0-1.81-.67-1.81-1.66Zm1.81-12.58c0-.17.02-.38.08-.67.15-.69.57-1.07,1.49-1.07s1.32.42,1.32.92c0,.17-.02.38-.08.67-.15.69-.57,1.07-1.49,1.07s-1.32-.42-1.32-.92Z"/>
      <path class="cls-2" d="m464.12,354.22l1.81-10.83h1.91l-.42,2.56h.11c.8-1.72,1.85-2.81,3.59-2.81,1.87,0,2.94,1.22,2.94,3.13,0,.46-.04.96-.15,1.55l-1.07,6.4h-1.91l1.07-6.36c.08-.48.11-.88.11-1.18,0-1.16-.53-1.93-1.7-1.93-.9,0-1.55.46-2.16,1.15-.27.31-1.03,1.22-1.22,2.39l-.99,5.92h-1.91Z"/>
      <path class="cls-2" d="m476.4,352.27c0-.42.06-.94.15-1.51l1.22-7.37h1.66l-1.2,7.14c-.08.44-.13.88-.13,1.24,0,.76.31,1.11.9,1.11.53,0,.92-.34,1.28-.84.36-.5.55-1.26.65-1.81l1.16-6.84h1.62l-1.18,7.16c-.08.48-.1.88-.1,1.22,0,.78.25,1.13.86,1.13,1.47,0,2.62-3.34,2.62-6.38,0-1.03-.17-2.1-.46-2.79l1.53-.46c.36.76.59,1.89.59,3.19,0,2.52-.61,4.89-1.68,6.36-.78,1.07-1.81,1.62-2.96,1.62-1.22,0-1.93-.65-1.83-2.23h-.13c-.59,1.41-1.36,2.23-2.67,2.23s-1.91-.84-1.91-2.16Z"/>
      <path class="cls-2" d="m489.49,349.88c0-4.14,2.5-6.74,5.75-6.74,2.83,0,4.33,1.85,4.33,4.6,0,4.14-2.5,6.74-5.77,6.74-2.81,0-4.3-1.85-4.3-4.6Zm7.83-.27l.21-1.32c.08-.46.1-.78.1-1.03,0-1.72-.97-2.52-2.48-2.52-1.91,0-3.09,1.24-3.42,3.28l-.21,1.32c-.08.46-.11.78-.11,1.03,0,1.72.97,2.52,2.48,2.52,1.91,0,3.09-1.24,3.42-3.28Z"/>
      <path class="cls-2" d="m504.52,338.68h1.91l-1.22,7.26h.1c.8-1.72,1.85-2.81,3.59-2.81,1.87,0,2.94,1.22,2.94,3.13,0,.46-.04.96-.15,1.55l-1.07,6.4h-1.91l1.07-6.36c.08-.48.1-.88.1-1.18,0-1.16-.52-1.93-1.7-1.93-.9,0-1.55.46-2.16,1.15-.29.34-1.03,1.22-1.22,2.39l-.99,5.92h-1.91l2.6-15.54Z"/>
      <path class="cls-2" d="m516.98,352.79c0-.25.02-.55.08-.88l2.23-11.63h-3.7l.27-1.6h5.67l-2.69,14,.48.17,4.05-3.53,1.07,1.03-2,1.87c-1.93,1.8-2.75,2.25-3.72,2.25-1.24,0-1.76-.69-1.76-1.68Z"/>
      <path class="cls-2" d="m529.95,353.42c0-.13.02-.36.11-.76.17-.78.63-1.3,1.78-1.3,1.05,0,1.47.44,1.47,1.01,0,.13-.02.34-.1.76-.15.78-.63,1.3-1.79,1.3-1.05,0-1.47-.44-1.47-1.01Zm1.91-4.14l.23-5.46.71-4.26h2.12l-.71,4.26-1.62,5.46h-.73Z"/>
    </g>
  </g>
  <g id="Rechteck_3175" class="rechteck">
    <path class="cls-1" d="m132.78,126.34h360.11c22.89,0,41.44,18.55,41.44,41.44h0c0,22.89-18.55,41.44-41.44,41.44H132.78c-22.89,0-41.44-18.55-41.44-41.44h0c0-22.89,18.55-41.44,41.44-41.44Z"/>
    <path class="cls-2" d="m492.89,209.22H132.78c-22.85,0-41.44-18.59-41.44-41.44s18.59-41.44,41.44-41.44h360.11c22.85,0,41.44,18.59,41.44,41.44s-18.59,41.44-41.44,41.44ZM132.78,127.34c-22.3,0-40.44,18.14-40.44,40.44s18.14,40.44,40.44,40.44h360.11c22.3,0,40.44-18.14,40.44-40.44s-18.14-40.44-40.44-40.44H132.78Z"/>
  </g>
  <g id="Rechteck_3176" class="rechteck">
    <path class="cls-1" d="m132.78,126.34h392.11c22.89,0,41.44,18.55,41.44,41.44h0c0,22.89-18.55,41.44-41.44,41.44H132.78c-22.89,0-41.44-18.55-41.44-41.44h0c0-22.89,18.55-41.44,41.44-41.44Z"/>
    <path class="cls-2" d="m524.89,209.22H132.78c-22.85,0-41.44-18.59-41.44-41.44s18.59-41.44,41.44-41.44h392.11c22.85,0,41.44,18.59,41.44,41.44s-18.59,41.44-41.44,41.44ZM132.78,127.34c-22.3,0-40.44,18.14-40.44,40.44s18.14,40.44,40.44,40.44h392.11c22.3,0,40.44-18.14,40.44-40.44s-18.14-40.44-40.44-40.44H132.78Z"/>
  </g>
  <g id="Rechteck_3177" class="rechteck">
    <path class="cls-1" d="m132.78,290.78h435.11c22.89,0,41.44,18.55,41.44,41.44h0c0,22.89-18.55,41.44-41.44,41.44H132.78c-22.89,0-41.44-18.55-41.44-41.44h0c0-22.89,18.55-41.44,41.44-41.44Z"/>
    <path class="cls-2" d="m567.89,373.66H132.78c-22.85,0-41.44-18.59-41.44-41.44s18.59-41.44,41.44-41.44h435.11c22.85,0,41.44,18.59,41.44,41.44s-18.59,41.44-41.44,41.44Zm-435.11-81.89c-22.3,0-40.44,18.14-40.44,40.44s18.14,40.44,40.44,40.44h435.11c22.3,0,40.44-18.14,40.44-40.44s-18.14-40.44-40.44-40.44H132.78Z"/>
  </g>
  <g id="Rechteck_3178" class="rechteck">
    <path class="cls-1" d="m267.78,208.22h351.11c22.89,0,41.44,18.55,41.44,41.44h0c0,22.89-18.55,41.44-41.44,41.44h-351.11c-22.89,0-41.44-18.55-41.44-41.44h0c0-22.89,18.55-41.44,41.44-41.44Z"/>
    <path class="cls-2" d="m618.89,291.11h-351.11c-22.85,0-41.44-18.59-41.44-41.44s18.59-41.44,41.44-41.44h351.11c22.85,0,41.44,18.59,41.44,41.44s-18.59,41.44-41.44,41.44Zm-351.11-81.89c-22.3,0-40.44,18.14-40.44,40.44s18.14,40.44,40.44,40.44h351.11c22.3,0,40.44-18.14,40.44-40.44s-18.14-40.44-40.44-40.44h-351.11Z"/>
  </g>
</svg>