<?xml version="1.0" encoding="UTF-8"?>
<svg id="Ebene_1"
  xmlns="http://www.w3.org/2000/svg" viewBox="0 0 751.67 500">
  <defs>
    <style>.cls-1{fill:none;}.cls-2{fill:#252525;}.cls-3{isolation:isolate;}</style>
  </defs>
  <g id="Leerstand" class="cls-3">
    <g class="cls-3">
      <path class="cls-2" d="m169.59,174.87v13.9h-39.53v-50.4h15.84v36.51h23.69Z"/>
      <path class="cls-2" d="m196.23,152.05v5.04h20.31v13.11h-20.31v4.82h25.2v13.75h-41.04v-50.4h41.04v13.68h-25.2Z"/>
      <path class="cls-2" d="m248.07,152.05v5.04h20.31v13.11h-20.31v4.82h25.2v13.75h-41.04v-50.4h41.04v13.68h-25.2Z"/>
      <path class="cls-2" d="m284.07,138.36h27.43c12.89,0,21.39,8.71,21.39,19.44,0,6.55-3.17,12.39-8.64,15.91l9.94,15.05h-18.36l-6.84-11.52h-9v11.52h-15.91v-50.4Zm27.43,24.99c3.02,0,5.54-2.45,5.54-5.54s-2.52-5.54-5.54-5.54h-11.52v11.09h11.52Z"/>
      <path class="cls-2" d="m390.7,172.14c0,10.37-7.34,17.5-24.27,17.5h-1.22c-20.16,0-23.47-11.23-23.47-18h15.91c.43,2.52,3.46,3.89,8.57,3.89h.22c5.69,0,8.06-1.15,8.06-3.1,0-1.44-1.22-2.66-4.9-2.66h-8.21c-12.53,0-18.87-5.76-18.87-14.69s5.69-17.57,23.47-17.57h.72c20.38,0,22.9,12.6,22.9,17.5h-15.91c-.29-2.09-2.23-3.89-7.42-3.89h-.29c-5.98,0-7.34,1.66-7.34,3.17s1.22,2.66,4.46,2.66h9.43c11.95,0,18.15,6.26,18.15,15.19Z"/>
      <path class="cls-2" d="m446.94,152.26h-16.78v36.51h-15.84v-36.51h-16.78v-13.9h49.4v13.9Z"/>
      <path class="cls-2" d="m485.67,180.78h-19.23l-2.09,7.99h-15.99l13.32-50.4h28.8l13.32,50.4h-16.06l-2.09-7.99Zm-3.67-14.04l-3.74-14.47h-4.46l-3.74,14.47h11.95Z"/>
      <path class="cls-2" d="m562.35,138.36v50.4h-15.55l-19.51-26.5v26.5h-15.55v-50.4h15.55l19.51,25.85v-25.85h15.55Z"/>
      <path class="cls-2" d="m623.05,163.57c0,15.55-11.95,25.2-27.72,25.2h-22.18v-50.4h22.18c15.77,0,27.72,9.58,27.72,25.2Zm-16.13,0c0-6.48-4.9-11.38-11.59-11.38h-6.41v22.75h6.41c6.7-.14,11.59-4.97,11.59-11.38Z"/>
    </g>
  </g>
  <g id="Stillstand" class="cls-3">
    <g class="cls-3">
      <path class="cls-2" d="m163.61,347.07c0,10.37-7.34,17.5-24.27,17.5h-1.22c-20.16,0-23.47-11.23-23.47-18h15.91c.43,2.52,3.46,3.89,8.57,3.89h.22c5.69,0,8.06-1.15,8.06-3.1,0-1.44-1.22-2.66-4.9-2.66h-8.21c-12.53,0-18.87-5.76-18.87-14.69s5.69-17.57,23.47-17.57h.72c20.38,0,22.9,12.6,22.9,17.5h-15.91c-.29-2.09-2.23-3.89-7.42-3.89h-.29c-5.98,0-7.34,1.66-7.34,3.17s1.22,2.66,4.46,2.66h9.43c11.95,0,18.15,6.26,18.15,15.19Z"/>
      <path class="cls-2" d="m219.84,327.2h-16.78v36.51h-15.84v-36.51h-16.78v-13.9h49.4v13.9Z"/>
      <path class="cls-2" d="m230.64,313.3h15.84v50.4h-15.84v-50.4Z"/>
      <path class="cls-2" d="m296.81,349.81v13.9h-39.53v-50.4h15.84v36.51h23.69Z"/>
      <path class="cls-2" d="m347.14,349.81v13.9h-39.53v-50.4h15.84v36.51h23.69Z"/>
      <path class="cls-2" d="m404.38,347.07c0,10.37-7.34,17.5-24.27,17.5h-1.22c-20.16,0-23.47-11.23-23.47-18h15.91c.43,2.52,3.46,3.89,8.57,3.89h.22c5.69,0,8.07-1.15,8.07-3.1,0-1.44-1.22-2.66-4.9-2.66h-8.21c-12.53,0-18.87-5.76-18.87-14.69s5.69-17.57,23.47-17.57h.72c20.38,0,22.9,12.6,22.9,17.5h-15.91c-.29-2.09-2.23-3.89-7.42-3.89h-.29c-5.98,0-7.34,1.66-7.34,3.17s1.22,2.66,4.46,2.66h9.43c11.95,0,18.15,6.26,18.15,15.19Z"/>
      <path class="cls-2" d="m460.61,327.2h-16.78v36.51h-15.84v-36.51h-16.78v-13.9h49.4v13.9Z"/>
      <path class="cls-2" d="m499.35,355.72h-19.23l-2.09,7.99h-15.99l13.32-50.4h28.8l13.32,50.4h-16.06l-2.09-7.99Zm-3.67-14.04l-3.75-14.47h-4.46l-3.74,14.47h11.95Z"/>
      <path class="cls-2" d="m576.03,313.3v50.4h-15.55l-19.51-26.5v26.5h-15.55v-50.4h15.55l19.51,25.85v-25.85h15.55Z"/>
      <path class="cls-2" d="m636.72,338.51c0,15.55-11.95,25.2-27.72,25.2h-22.18v-50.4h22.18c15.77,0,27.72,9.58,27.72,25.2Zm-16.13,0c0-6.48-4.9-11.38-11.59-11.38h-6.41v22.75h6.41c6.7-.14,11.59-4.97,11.59-11.38Z"/>
    </g>
  </g>
  <g id="ist" class="cls-3">
    <g class="cls-3">
      <path class="cls-2" d="m360.84,257.3c0-.29.06-.63.13-.99l1.32-6.84h-3.8l.27-1.6h5.73l-1.78,9.28.46.19,3.91-3.46,1.11,1.03-1.78,1.7c-1.87,1.79-2.71,2.35-3.76,2.35-1.18,0-1.81-.67-1.81-1.66Zm1.81-12.58c0-.17.02-.38.08-.67.15-.69.57-1.07,1.49-1.07s1.32.42,1.32.92c0,.17-.02.38-.08.67-.15.69-.57,1.07-1.49,1.07s-1.32-.42-1.32-.92Z"/>
      <path class="cls-2" d="m370.42,256.97l1.3-1.09c.8,1.01,1.89,1.55,3.46,1.55,1.78,0,2.88-.71,2.88-1.91,0-.92-.65-1.2-1.49-1.34l-1.55-.25c-1.6-.25-3.17-.8-3.17-2.79,0-2.33,2.1-3.51,4.7-3.51,1.89,0,3.3.63,4.09,1.64l-1.26,1.13c-.4-.57-1.3-1.24-3-1.24s-2.67.69-2.67,1.78c0,.97.73,1.18,1.57,1.32l1.55.27c1.45.27,3.11.69,3.11,2.75,0,2.29-1.97,3.67-4.93,3.67-2.1,0-3.7-.71-4.6-1.99Z"/>
      <path class="cls-2" d="m385.43,257.2c0-.23.04-.63.08-.92l1.18-6.8h-3.07l.25-1.6h2.12c.76,0,1.11-.27,1.24-1.03l.46-2.79h1.81l-.65,3.82h4.43l-.25,1.6h-4.43l-1.28,7.64.42.23,4.45-3.04.95,1.18-2.16,1.58c-1.91,1.41-2.79,1.91-3.78,1.91-1.13,0-1.76-.65-1.76-1.76Z"/>
    </g>
  </g>
  <g id="Rechteck_3146" class="rechteck">
    <path class="cls-1" d="m128.33,98.71h495c38.11,0,69,30.89,69,69h0c0,38.11-30.89,69-69,69H128.33c-38.11,0-69-30.89-69-69h0c0-38.11,30.89-69,69-69Z"/>
    <path class="cls-2" d="m623.33,236.71H128.33c-38.05,0-69-30.95-69-69s30.95-69,69-69h495c38.05,0,69,30.95,69,69s-30.95,69-69,69ZM128.33,99.71c-37.5,0-68,30.5-68,68s30.5,68,68,68h495c37.5,0,68-30.5,68-68s-30.5-68-68-68H128.33Z"/>
  </g>
  <g id="Rechteck_3147" class="rechteck">
    <path class="cls-1" d="m125.13,269.71h501.42c36.34,0,65.79,29.46,65.79,65.79h0c0,36.34-29.46,65.79-65.79,65.79H125.13c-36.34,0-65.79-29.46-65.79-65.79h0c0-36.34,29.46-65.79,65.79-65.79Z"/>
    <path class="cls-2" d="m626.54,401.29H125.13c-36.28,0-65.79-29.51-65.79-65.79s29.51-65.79,65.79-65.79h501.42c36.28,0,65.79,29.51,65.79,65.79s-29.51,65.79-65.79,65.79ZM125.13,270.71c-35.73,0-64.79,29.07-64.79,64.79s29.07,64.79,64.79,64.79h501.42c35.73,0,64.79-29.07,64.79-64.79s-29.07-64.79-64.79-64.79H125.13Z"/>
  </g>
  <g id="Rechteck_3148" class="rechteck">
    <path class="cls-1" d="m231.81,209.94h288.05c22.51,0,40.77,18.25,40.77,40.77h0c0,22.51-18.25,40.77-40.77,40.77H231.81c-22.51,0-40.77-18.25-40.77-40.77h0c0-22.51,18.25-40.77,40.77-40.77Z"/>
    <path class="cls-2" d="m519.86,291.47H231.81c-22.48,0-40.77-18.29-40.77-40.77s18.29-40.77,40.77-40.77h288.05c22.48,0,40.77,18.29,40.77,40.77s-18.29,40.77-40.77,40.77Zm-288.05-80.53c-21.93,0-39.77,17.84-39.77,39.77s17.84,39.77,39.77,39.77h288.05c21.93,0,39.77-17.84,39.77-39.77s-17.84-39.77-39.77-39.77H231.81Z"/>
  </g>
  <g id="Rechteck_3149" class="rechteck">
    <path class="cls-1" d="m270.81,209.94h210.05c22.51,0,40.77,18.25,40.77,40.77h0c0,22.51-18.25,40.77-40.77,40.77h-210.05c-22.51,0-40.77-18.25-40.77-40.77h0c0-22.51,18.25-40.77,40.77-40.77Z"/>
    <path class="cls-2" d="m480.86,291.47h-210.05c-22.48,0-40.77-18.29-40.77-40.77s18.29-40.77,40.77-40.77h210.05c22.48,0,40.77,18.29,40.77,40.77s-18.29,40.77-40.77,40.77Zm-210.05-80.53c-21.93,0-39.77,17.84-39.77,39.77s17.84,39.77,39.77,39.77h210.05c21.93,0,39.77-17.84,39.77-39.77s-17.84-39.77-39.77-39.77h-210.05Z"/>
  </g>
  <g id="Rechteck_3150" class="rechteck">
    <path class="cls-1" d="m194.81,209.94h362.05c22.51,0,40.77,18.25,40.77,40.77h0c0,22.51-18.25,40.77-40.77,40.77H194.81c-22.51,0-40.77-18.25-40.77-40.77h0c0-22.51,18.25-40.77,40.77-40.77Z"/>
    <path class="cls-2" d="m556.86,291.47H194.81c-22.48,0-40.77-18.29-40.77-40.77s18.29-40.77,40.77-40.77h362.05c22.48,0,40.77,18.29,40.77,40.77s-18.29,40.77-40.77,40.77Zm-362.05-80.53c-21.93,0-39.77,17.84-39.77,39.77s17.84,39.77,39.77,39.77h362.05c21.93,0,39.77-17.84,39.77-39.77s-17.84-39.77-39.77-39.77H194.81Z"/>
  </g>
  <g id="Rechteck_3151" class="rechteck">
    <path class="cls-1" d="m125.13,269.71h501.42c36.34,0,65.79,29.46,65.79,65.79h0c0,36.34-29.46,65.79-65.79,65.79H125.13c-36.34,0-65.79-29.46-65.79-65.79h0c0-36.34,29.46-65.79,65.79-65.79Z"/>
    <path class="cls-2" d="m626.54,401.29H125.13c-36.28,0-65.79-29.51-65.79-65.79s29.51-65.79,65.79-65.79h501.42c36.28,0,65.79,29.51,65.79,65.79s-29.51,65.79-65.79,65.79ZM125.13,270.71c-35.73,0-64.79,29.07-64.79,64.79s29.07,64.79,64.79,64.79h501.42c35.73,0,64.79-29.07,64.79-64.79s-29.07-64.79-64.79-64.79H125.13Z"/>
  </g>
</svg>