<?xml version="1.0" encoding="UTF-8"?>
<svg id="Ebene_1"
  xmlns="http://www.w3.org/2000/svg" viewBox="0 0 751.67 500">
  <defs>
    <style>.cls-1,.cls-2{fill:none;}.cls-3{fill:#252525;}.cls-4{isolation:isolate;}.cls-2{stroke:#252525;}</style>
  </defs>
  <g id="Spekulativer_Leerstand" class="cls-4">
    <g class="cls-4">
      <path class="cls-3" d="m149.23,70.37c0,6.62-4.69,11.18-15.5,11.18h-.78c-12.88,0-15-7.18-15-11.5h10.17c.28,1.61,2.21,2.48,5.47,2.48h.14c3.63,0,5.15-.74,5.15-1.98,0-.92-.78-1.7-3.13-1.7h-5.24c-8,0-12.05-3.68-12.05-9.38s3.63-11.23,15-11.23h.46c13.02,0,14.63,8.05,14.63,11.18h-10.17c-.18-1.33-1.43-2.48-4.74-2.48h-.18c-3.82,0-4.69,1.06-4.69,2.03s.78,1.7,2.85,1.7h6.03c7.64,0,11.59,4,11.59,9.71Z"/>
      <path class="cls-3" d="m186.62,61.22c0,6.85-5.43,12.42-13.66,12.42h-7.41v7.36h-10.12v-32.2h17.53c8.23,0,13.66,5.57,13.66,12.42Zm-10.12,0c0-1.98-1.61-3.54-3.54-3.54h-7.41v7.08h7.41c1.93,0,3.54-1.56,3.54-3.54Z"/>
      <path class="cls-3" d="m202.72,57.54v3.22h12.97v8.37h-12.97v3.08h16.1v8.79h-26.22v-32.2h26.22v8.74h-16.1Z"/>
      <path class="cls-3" d="m249.05,64.9l7.64,16.1h-10.95l-5.61-11.96h-4.23v11.96h-10.17v-32.2h10.17v11.41h4.51l5.34-11.41h10.95l-7.64,16.1Z"/>
      <path class="cls-3" d="m262.2,66.32v-17.53h10.12v16.61c0,3.4,1.52,6.39,5.75,6.39h.14c4.28,0,5.75-2.99,5.75-6.39v-16.61h10.12v17.53c0,9.98-6.03,15.23-15.87,15.23h-.14c-9.84,0-15.87-5.24-15.87-15.23Z"/>
      <path class="cls-3" d="m326.23,72.12v8.88h-25.26v-32.2h10.12v23.32h15.14Z"/>
      <path class="cls-3" d="m355.12,75.89h-12.28l-1.33,5.11h-10.21l8.51-32.2h18.4l8.51,32.2h-10.26l-1.33-5.11Zm-2.35-8.97l-2.39-9.25h-2.85l-2.39,9.25h7.64Z"/>
      <path class="cls-3" d="m399.19,57.68h-10.72v23.32h-10.12v-23.32h-10.72v-8.88h31.56v8.88Z"/>
      <path class="cls-3" d="m406.09,48.8h10.12v32.2h-10.12v-32.2Z"/>
      <path class="cls-3" d="m456.69,48.8l-8.51,32.2h-18.49v-.37l-8.42-31.84h10.67l5.71,23.32h2.58l5.75-23.32h10.72Z"/>
      <path class="cls-3" d="m471.87,57.54v3.22h12.97v8.37h-12.97v3.08h16.1v8.79h-26.22v-32.2h26.22v8.74h-16.1Z"/>
      <path class="cls-3" d="m494.87,48.8h17.53c8.23,0,13.66,5.57,13.66,12.42,0,4.19-2.02,7.91-5.52,10.17l6.35,9.62h-11.73l-4.37-7.36h-5.75v7.36h-10.17v-32.2Zm17.53,15.96c1.93,0,3.54-1.56,3.54-3.54s-1.61-3.54-3.54-3.54h-7.36v7.08h7.36Z"/>
    </g>
    <g class="cls-4">
      <path class="cls-3" d="m143.89,128.12v8.88h-25.26v-32.2h10.12v23.33h15.14Z"/>
      <path class="cls-3" d="m160.91,113.54v3.22h12.97v8.37h-12.97v3.08h16.1v8.79h-26.22v-32.2h26.22v8.74h-16.1Z"/>
      <path class="cls-3" d="m194.03,113.54v3.22h12.97v8.37h-12.97v3.08h16.1v8.79h-26.22v-32.2h26.22v8.74h-16.1Z"/>
      <path class="cls-3" d="m217.03,104.8h17.53c8.23,0,13.66,5.57,13.66,12.42,0,4.19-2.02,7.91-5.52,10.17l6.35,9.62h-11.73l-4.37-7.36h-5.75v7.36h-10.17v-32.2Zm17.53,15.96c1.93,0,3.54-1.56,3.54-3.54s-1.61-3.54-3.54-3.54h-7.36v7.08h7.36Z"/>
      <path class="cls-3" d="m285.16,126.37c0,6.62-4.69,11.18-15.5,11.18h-.78c-12.88,0-15-7.18-15-11.5h10.17c.28,1.61,2.21,2.48,5.47,2.48h.14c3.63,0,5.15-.74,5.15-1.98,0-.92-.78-1.7-3.13-1.7h-5.24c-8,0-12.05-3.68-12.05-9.38s3.63-11.23,15-11.23h.46c13.02,0,14.63,8.05,14.63,11.18h-10.17c-.18-1.33-1.43-2.48-4.74-2.48h-.18c-3.82,0-4.69,1.06-4.69,2.02s.78,1.7,2.85,1.7h6.03c7.64,0,11.59,4,11.59,9.71Z"/>
      <path class="cls-3" d="m321.08,113.68h-10.72v23.32h-10.12v-23.32h-10.72v-8.88h31.56v8.88Z"/>
      <path class="cls-3" d="m345.83,131.89h-12.28l-1.33,5.11h-10.21l8.51-32.2h18.4l8.51,32.2h-10.26l-1.33-5.11Zm-2.35-8.97l-2.39-9.25h-2.85l-2.39,9.25h7.64Z"/>
      <path class="cls-3" d="m394.82,104.8v32.2h-9.94l-12.47-16.93v16.93h-9.94v-32.2h9.94l12.47,16.52v-16.52h9.94Z"/>
      <path class="cls-3" d="m433.6,120.9c0,9.94-7.64,16.1-17.71,16.1h-14.17v-32.2h14.17c10.07,0,17.71,6.12,17.71,16.1Zm-10.31,0c0-4.14-3.13-7.27-7.41-7.27h-4.09v14.54h4.09c4.28-.09,7.41-3.17,7.41-7.27Z"/>
    </g>
  </g>
  <g id="Sozial_Schädlich" class="cls-4">
    <g class="cls-4">
      <path class="cls-2" d="m279.73,227.37c0,6.62-4.69,11.18-15.5,11.18h-.78c-12.88,0-15-7.18-15-11.5h10.17c.28,1.61,2.21,2.48,5.47,2.48h.14c3.63,0,5.15-.74,5.15-1.98,0-.92-.78-1.7-3.13-1.7h-5.24c-8,0-12.05-3.68-12.05-9.38s3.63-11.23,15-11.23h.46c13.02,0,14.63,8.05,14.63,11.18h-10.17c-.18-1.33-1.43-2.48-4.74-2.48h-.18c-3.82,0-4.69,1.06-4.69,2.02s.78,1.7,2.85,1.7h6.03c7.64,0,11.59,4,11.59,9.71Z"/>
      <path class="cls-2" d="m320.48,221.9c0,9.98-7.36,16.65-17.67,16.65h-.14c-10.08,0-17.67-6.67-17.67-16.65s7.36-16.65,17.67-16.65h.14c10.31,0,17.67,6.72,17.67,16.65Zm-10.31,0c0-4.19-2.99-7.22-7.36-7.22h-.14c-4.37,0-7.36,3.04-7.36,7.22s2.99,7.22,7.36,7.22h.14c4.37,0,7.36-2.99,7.36-7.22Z"/>
      <path class="cls-2" d="m355.12,214.68l-14.86,14.45h14.86v8.88h-28.66v-8.88l14.81-14.45h-14.81v-8.88h28.66v8.88Z"/>
      <path class="cls-2" d="m362.02,205.8h10.12v32.2h-10.12v-32.2Z"/>
      <path class="cls-2" d="m401.95,232.89h-12.28l-1.33,5.11h-10.21l8.51-32.2h18.4l8.51,32.2h-10.26l-1.33-5.11Zm-2.35-8.97l-2.39-9.25h-2.85l-2.39,9.25h7.64Z"/>
      <path class="cls-2" d="m443.85,229.12v8.88h-25.26v-32.2h10.12v23.33h15.14Z"/>
    </g>
    <g class="cls-4">
      <path class="cls-2" d="m279.73,283.37c0,6.62-4.69,11.18-15.5,11.18h-.78c-12.88,0-15-7.18-15-11.5h10.17c.28,1.61,2.21,2.48,5.47,2.48h.14c3.63,0,5.15-.74,5.15-1.98,0-.92-.78-1.7-3.13-1.7h-5.24c-8,0-12.05-3.68-12.05-9.38s3.63-11.23,15-11.23h.46c13.02,0,14.63,8.05,14.63,11.18h-10.17c-.18-1.33-1.43-2.48-4.74-2.48h-.18c-3.82,0-4.69,1.06-4.69,2.02s.78,1.7,2.85,1.7h6.03c7.64,0,11.59,4,11.59,9.71Z"/>
      <path class="cls-2" d="m309.86,280.15h10.49c-1.01,8.7-8.01,14.4-17.53,14.4h-.14c-10.08,0-17.67-6.67-17.67-16.65s7.36-16.65,17.67-16.65h.14c9.52,0,16.52,5.71,17.53,14.4h-10.49c-.92-2.81-3.54-4.97-7.04-4.97h-.14c-4.37,0-7.36,3.04-7.36,7.22s2.99,7.22,7.36,7.22h.14c3.5,0,6.12-2.12,7.04-4.97Z"/>
      <path class="cls-2" d="m358.16,261.8v32.2h-10.12v-11.96h-11.59v11.96h-10.12v-32.2h10.12v11.27h11.59v-11.27h10.12Z"/>
      <path class="cls-2" d="m387.96,288.89h-12.28l-1.33,5.11h-10.21l8.51-32.2h18.4l8.51,32.2h-10.26l-1.33-5.11Zm-15.87-37.08h8.51v8.33h-8.51v-8.33Zm13.53,28.11l-2.39-9.25h-2.85l-2.39,9.25h7.64Zm-2.67-28.11h8.51v8.33h-8.51v-8.33Z"/>
      <path class="cls-2" d="m436.49,277.9c0,9.94-7.64,16.1-17.71,16.1h-14.17v-32.2h14.17c10.08,0,17.71,6.12,17.71,16.1Zm-10.3,0c0-4.14-3.13-7.27-7.41-7.27h-4.09v14.54h4.09c4.28-.09,7.41-3.17,7.41-7.27Z"/>
      <path class="cls-2" d="m467.73,285.12v8.88h-25.26v-32.2h10.12v23.33h15.13Z"/>
      <path class="cls-2" d="m474.62,261.8h10.12v32.2h-10.12v-32.2Z"/>
      <path class="cls-2" d="m516.49,280.15h10.49c-1.01,8.7-8,14.4-17.53,14.4h-.14c-10.07,0-17.67-6.67-17.67-16.65s7.36-16.65,17.67-16.65h.14c9.52,0,16.52,5.71,17.53,14.4h-10.49c-.92-2.81-3.54-4.97-7.04-4.97h-.14c-4.37,0-7.36,3.04-7.36,7.22s2.99,7.22,7.36,7.22h.14c3.5,0,6.12-2.12,7.04-4.97Z"/>
      <path class="cls-2" d="m564.78,261.8v32.2h-10.12v-11.96h-11.59v11.96h-10.12v-32.2h10.12v11.27h11.59v-11.27h10.12Z"/>
    </g>
  </g>
  <g id="ist" class="cls-4">
    <g class="cls-4">
      <path class="cls-3" d="m94.84,206.09c0-.29.06-.63.13-.99l1.32-6.84h-3.8l.27-1.6h5.73l-1.78,9.28.46.19,3.91-3.46,1.11,1.03-1.78,1.7c-1.87,1.79-2.71,2.35-3.76,2.35-1.18,0-1.81-.67-1.81-1.66Zm1.81-12.58c0-.17.02-.38.08-.67.15-.69.57-1.07,1.49-1.07s1.32.42,1.32.92c0,.17-.02.38-.08.67-.15.69-.57,1.07-1.49,1.07s-1.32-.42-1.32-.92Z"/>
      <path class="cls-3" d="m104.42,205.76l1.3-1.09c.8,1.01,1.89,1.55,3.46,1.55,1.78,0,2.88-.71,2.88-1.91,0-.92-.65-1.2-1.49-1.34l-1.55-.25c-1.6-.25-3.17-.8-3.17-2.79,0-2.33,2.1-3.51,4.7-3.51,1.89,0,3.3.63,4.09,1.64l-1.26,1.13c-.4-.57-1.3-1.24-3-1.24s-2.67.69-2.67,1.78c0,.97.73,1.18,1.57,1.32l1.55.27c1.45.27,3.11.69,3.11,2.75,0,2.29-1.97,3.67-4.93,3.67-2.1,0-3.7-.71-4.6-1.99Z"/>
      <path class="cls-3" d="m119.43,205.99c0-.23.04-.63.08-.92l1.18-6.8h-3.07l.25-1.6h2.12c.76,0,1.11-.27,1.24-1.03l.46-2.79h1.81l-.65,3.82h4.43l-.25,1.6h-4.43l-1.28,7.64.42.23,4.45-3.04.94,1.18-2.16,1.58c-1.91,1.41-2.79,1.91-3.78,1.91-1.13,0-1.76-.65-1.76-1.76Z"/>
    </g>
  </g>
  <g id="Er_geht_auf_Kosten_potenzieller_Mieter_innen_und_zerstört_gewachsene_Strukturen." class="cls-4">
    <g class="cls-4">
      <path class="cls-3" d="m77.78,387l2.46-14.66h9.07l-.29,1.72h-7.08l-.78,4.66h6.82l-.29,1.72h-6.82l-.8,4.83h7.1l-.29,1.72h-9.09Z"/>
      <path class="cls-3" d="m93.04,387l1.53-9.24h-2.92l.27-1.6h4.83l-.5,2.96h.1c.8-1.79,1.93-2.96,4.01-2.96h1.47l-.31,1.91h-1.89c-1.22,0-1.93.36-2.6,1.07-.31.34-.97,1.18-1.15,2.33l-.92,5.52h-1.91Z"/>
      <path class="cls-3" d="m115.22,389.94l1.26-1.24c.59.73,1.47,1.13,2.73,1.13,1.89,0,3-.86,3.42-3.3l.42-2.48h-.1c-.82,1.72-1.91,2.81-3.8,2.81-2.25,0-3.38-1.51-3.38-4.12,0-3.02,1.47-6.84,5.06-6.84,1.64,0,2.69.76,3.11,2.16h.08l.31-1.91h1.93l-1.78,10.69c-.57,3.25-2.54,4.6-5.35,4.6-1.78,0-3.09-.48-3.91-1.51Zm7.05-5.84c.42-.48.97-1.24,1.15-2.37l.31-1.95c.23-1.41-.76-2.25-2.33-2.25-1.93,0-3.09,1.3-3.4,3.21l-.19,1.09c-.06.36-.1.61-.1.94,0,1.58.71,2.48,2.14,2.48.86,0,1.7-.34,2.41-1.16Z"/>
      <path class="cls-3" d="m128.7,382.61c0-3.95,2.48-6.7,6.05-6.7,2.12,0,3.72,1.03,3.72,2.94,0,1.55-1.01,3.44-7.77,3.65-.02.19-.02.4-.02.46,0,1.43.46,2.69,2.58,2.69,1.49,0,2.35-.61,3.55-2.29l1.3.82c-1.22,1.93-2.67,3.07-5.04,3.07-2.81,0-4.37-1.57-4.37-4.64Zm2.16-1.6l-.02.23c5.02-.17,5.71-1.32,5.71-2.31,0-.84-.55-1.51-1.99-1.51-2.02,0-3.36,1.26-3.7,3.59Z"/>
      <path class="cls-3" d="m143.53,371.46h1.91l-1.22,7.26h.1c.8-1.72,1.85-2.81,3.59-2.81,1.87,0,2.94,1.22,2.94,3.13,0,.46-.04.96-.15,1.55l-1.07,6.4h-1.91l1.07-6.36c.08-.48.1-.88.1-1.18,0-1.16-.52-1.93-1.7-1.93-.9,0-1.55.46-2.16,1.15-.29.34-1.03,1.22-1.22,2.39l-.99,5.92h-1.91l2.6-15.54Z"/>
      <path class="cls-3" d="m155.83,385.49c0-.23.04-.63.08-.92l1.18-6.8h-3.07l.25-1.6h2.12c.76,0,1.11-.27,1.24-1.03l.46-2.79h1.81l-.65,3.82h4.43l-.25,1.6h-4.43l-1.28,7.64.42.23,4.45-3.04.94,1.18-2.16,1.58c-1.91,1.41-2.79,1.91-3.78,1.91-1.13,0-1.76-.65-1.76-1.76Z"/>
      <path class="cls-3" d="m185.53,387l.42-2.56h-.06c-.84,1.68-1.91,2.81-3.8,2.81-2.2,0-3.34-1.47-3.34-4.2,0-3.17,1.43-7.14,5.08-7.14,1.62,0,2.67.76,3.11,2.16h.08l.31-1.91h1.91l-1.81,10.83h-1.91Zm-.34-2.54c.52-.57.99-1.41,1.15-2.39l.38-2.27c.23-1.43-.76-2.27-2.31-2.27-1.97,0-3.09,1.3-3.42,3.25l-.23,1.45c-.06.36-.08.67-.08.94,0,1.51.69,2.46,2.12,2.46.88,0,1.68-.4,2.39-1.18Z"/>
      <path class="cls-3" d="m198.46,384.44h-.08c-.8,1.72-1.87,2.81-3.61,2.81-1.85,0-2.94-1.22-2.94-3.13,0-.46.04-.96.15-1.55l1.07-6.4h1.91l-1.05,6.36c-.08.46-.13.88-.13,1.18,0,1.16.55,1.93,1.7,1.93.9,0,1.57-.46,2.18-1.15.27-.31,1.01-1.22,1.2-2.39l.99-5.92h1.91l-1.81,10.83h-1.91l.42-2.56Z"/>
      <path class="cls-3" d="m203.63,388.93l-1.2-1.37,1.3-1.09,3.02,3.32.36-.08,1.99-11.95h-3.78l.27-1.6h3.76l.38-2.12c.23-1.51,1.22-2.58,2.94-2.58h3.67l-.27,1.6h-4.28l-.5,3.11h4.3l-.27,1.6h-4.3l-1.89,11.28c-.23,1.38-.92,2.41-2.27,2.41-1.01,0-1.66-.73-3.23-2.52Z"/>
      <path class="cls-3" d="m234.06,380.01l-2.44,2.48-.76,4.51h-1.99l2.46-14.66h1.99l-1.24,7.37h.1l2.71-2.96,4.3-4.41h2.46l-6.11,6.28,3.74,8.38h-2.18l-3.04-6.99Z"/>
      <path class="cls-3" d="m241.89,382.66c0-4.14,2.5-6.74,5.75-6.74,2.83,0,4.33,1.85,4.33,4.6,0,4.14-2.5,6.74-5.77,6.74-2.81,0-4.3-1.85-4.3-4.6Zm7.83-.27l.21-1.32c.08-.46.1-.78.1-1.03,0-1.72-.97-2.52-2.48-2.52-1.91,0-3.09,1.24-3.42,3.28l-.21,1.32c-.08.46-.1.78-.1,1.03,0,1.72.97,2.52,2.48,2.52,1.91,0,3.09-1.24,3.42-3.28Z"/>
      <path class="cls-3" d="m254.22,385.26l1.3-1.09c.8,1.01,1.89,1.55,3.46,1.55,1.78,0,2.88-.71,2.88-1.91,0-.92-.65-1.2-1.49-1.34l-1.55-.25c-1.6-.25-3.17-.8-3.17-2.79,0-2.33,2.1-3.51,4.7-3.51,1.89,0,3.3.63,4.09,1.64l-1.26,1.13c-.4-.57-1.3-1.24-3-1.24s-2.67.69-2.67,1.78c0,.97.73,1.18,1.57,1.32l1.55.27c1.45.27,3.11.69,3.11,2.75,0,2.29-1.97,3.67-4.93,3.67-2.1,0-3.7-.71-4.6-1.99Z"/>
      <path class="cls-3" d="m269.23,385.49c0-.23.04-.63.08-.92l1.18-6.8h-3.07l.25-1.6h2.12c.76,0,1.11-.27,1.24-1.03l.46-2.79h1.81l-.65,3.82h4.43l-.25,1.6h-4.43l-1.28,7.64.42.23,4.45-3.04.94,1.18-2.16,1.58c-1.91,1.41-2.79,1.91-3.78,1.91-1.13,0-1.76-.65-1.76-1.76Z"/>
      <path class="cls-3" d="m279.9,382.61c0-3.95,2.48-6.7,6.05-6.7,2.12,0,3.72,1.03,3.72,2.94,0,1.55-1.01,3.44-7.77,3.65-.02.19-.02.4-.02.46,0,1.43.46,2.69,2.58,2.69,1.49,0,2.35-.61,3.55-2.29l1.3.82c-1.22,1.93-2.67,3.07-5.04,3.07-2.81,0-4.37-1.57-4.37-4.64Zm2.16-1.6l-.02.23c5.02-.17,5.71-1.32,5.71-2.31,0-.84-.55-1.51-1.99-1.51-2.02,0-3.36,1.26-3.7,3.59Z"/>
      <path class="cls-3" d="m292.12,387l1.81-10.83h1.91l-.42,2.56h.1c.8-1.72,1.85-2.81,3.59-2.81,1.87,0,2.94,1.22,2.94,3.13,0,.46-.04.96-.15,1.55l-1.07,6.4h-1.91l1.07-6.36c.08-.48.1-.88.1-1.18,0-1.16-.52-1.93-1.7-1.93-.9,0-1.55.46-2.16,1.15-.27.31-1.03,1.22-1.22,2.39l-.99,5.92h-1.91Z"/>
      <path class="cls-3" d="m319.02,376.17h1.91l-.42,2.56h.06c.84-1.68,1.91-2.81,3.8-2.81,2.2,0,3.34,1.47,3.34,4.2,0,3.17-1.43,7.14-5.08,7.14-1.62,0-2.67-.76-3.11-2.16h-.08l-1.01,6.11h-1.91l2.5-15.03Zm6.45,6.21l.23-1.45c.06-.36.08-.67.08-.94,0-1.51-.69-2.46-2.12-2.46-.88,0-1.7.38-2.39,1.18-.5.59-1.01,1.41-1.18,2.39l-.38,2.27c-.23,1.43.78,2.27,2.33,2.27,1.97,0,3.09-1.3,3.42-3.25Z"/>
      <path class="cls-3" d="m330.09,382.66c0-4.14,2.5-6.74,5.75-6.74,2.83,0,4.33,1.85,4.33,4.6,0,4.14-2.5,6.74-5.77,6.74-2.81,0-4.3-1.85-4.3-4.6Zm7.83-.27l.21-1.32c.08-.46.1-.78.1-1.03,0-1.72-.97-2.52-2.48-2.52-1.91,0-3.09,1.24-3.42,3.28l-.21,1.32c-.08.46-.1.78-.1,1.03,0,1.72.97,2.52,2.48,2.52,1.91,0,3.09-1.24,3.42-3.28Z"/>
      <path class="cls-3" d="m344.83,385.49c0-.23.04-.63.08-.92l1.18-6.8h-3.07l.25-1.6h2.12c.76,0,1.11-.27,1.24-1.03l.46-2.79h1.81l-.65,3.82h4.43l-.25,1.6h-4.43l-1.28,7.64.42.23,4.45-3.04.94,1.18-2.16,1.58c-1.91,1.41-2.79,1.91-3.78,1.91-1.13,0-1.76-.65-1.76-1.76Z"/>
      <path class="cls-3" d="m355.5,382.61c0-3.95,2.48-6.7,6.05-6.7,2.12,0,3.72,1.03,3.72,2.94,0,1.55-1.01,3.44-7.77,3.65-.02.19-.02.4-.02.46,0,1.43.46,2.69,2.58,2.69,1.49,0,2.35-.61,3.55-2.29l1.3.82c-1.22,1.93-2.67,3.07-5.04,3.07-2.81,0-4.37-1.57-4.37-4.64Zm2.16-1.6l-.02.23c5.02-.17,5.71-1.32,5.71-2.31,0-.84-.55-1.51-1.99-1.51-2.02,0-3.36,1.26-3.7,3.59Z"/>
      <path class="cls-3" d="m367.72,387l1.81-10.83h1.91l-.42,2.56h.1c.8-1.72,1.85-2.81,3.59-2.81,1.87,0,2.94,1.22,2.94,3.13,0,.46-.04.96-.15,1.55l-1.07,6.4h-1.91l1.07-6.36c.08-.48.1-.88.1-1.18,0-1.16-.52-1.93-1.7-1.93-.9,0-1.55.46-2.16,1.15-.27.31-1.03,1.22-1.22,2.39l-.99,5.92h-1.91Z"/>
      <path class="cls-3" d="m385.78,386.73l-3.44-1.22-.1.08-.23,1.41h-1.83l.25-1.81,7.37-6.61c-1.53-.82-2.44-1.09-3.25-1.09-1.45,0-1.76,1.07-1.76,2.35h-1.51v-.23c0-2.37,1.22-3.7,3.3-3.7,1.2,0,2.39.44,3.97,1.49l.36.21.1-.08.21-1.37h1.85l-.27,1.76-7.37,6.61,5.12,1.16.23-.25-.65-2.65,1.3-.5.34.8c.34.74.57,1.51.57,2.16,0,1.01-.82,1.95-2.2,1.95-.67,0-1.39-.13-2.33-.48Z"/>
      <path class="cls-3" d="m395.84,385.59c0-.29.06-.63.12-.99l1.32-6.84h-3.8l.27-1.6h5.73l-1.78,9.28.46.19,3.91-3.46,1.11,1.03-1.78,1.7c-1.87,1.79-2.71,2.35-3.76,2.35-1.18,0-1.8-.67-1.8-1.66Zm1.8-12.58c0-.17.02-.38.08-.67.15-.69.57-1.07,1.49-1.07s1.32.42,1.32.92c0,.17-.02.38-.08.67-.15.69-.57,1.07-1.49,1.07s-1.32-.42-1.32-.92Z"/>
      <path class="cls-3" d="m405.9,382.61c0-3.95,2.48-6.7,6.05-6.7,2.12,0,3.72,1.03,3.72,2.94,0,1.55-1.01,3.44-7.77,3.65-.02.19-.02.4-.02.46,0,1.43.46,2.69,2.58,2.69,1.49,0,2.35-.61,3.55-2.29l1.3.82c-1.22,1.93-2.67,3.07-5.04,3.07-2.81,0-4.37-1.57-4.37-4.64Zm2.16-1.6l-.02.23c5.02-.17,5.71-1.32,5.71-2.31,0-.84-.55-1.51-2-1.51-2.02,0-3.36,1.26-3.7,3.59Z"/>
      <path class="cls-3" d="m420.58,385.57c0-.25.02-.55.08-.88l2.23-11.63h-3.7l.27-1.6h5.67l-2.69,14,.48.17,4.05-3.53,1.07,1.03-2,1.87c-1.93,1.8-2.75,2.25-3.72,2.25-1.24,0-1.76-.69-1.76-1.68Z"/>
      <path class="cls-3" d="m433.18,385.57c0-.25.02-.55.08-.88l2.23-11.63h-3.7l.27-1.6h5.67l-2.69,14,.48.17,4.05-3.53,1.07,1.03-2,1.87c-1.93,1.8-2.75,2.25-3.72,2.25-1.24,0-1.76-.69-1.76-1.68Z"/>
      <path class="cls-3" d="m443.7,382.61c0-3.95,2.48-6.7,6.05-6.7,2.12,0,3.72,1.03,3.72,2.94,0,1.55-1.01,3.44-7.77,3.65-.02.19-.02.4-.02.46,0,1.43.46,2.69,2.58,2.69,1.49,0,2.35-.61,3.55-2.29l1.3.82c-1.22,1.93-2.67,3.07-5.04,3.07-2.81,0-4.37-1.57-4.37-4.64Zm2.16-1.6l-.02.23c5.02-.17,5.71-1.32,5.71-2.31,0-.84-.55-1.51-1.99-1.51-2.02,0-3.36,1.26-3.7,3.59Z"/>
      <path class="cls-3" d="m458.44,387l1.53-9.24h-2.92l.27-1.6h4.83l-.5,2.96h.1c.8-1.79,1.93-2.96,4.01-2.96h1.47l-.31,1.91h-1.89c-1.22,0-1.93.36-2.6,1.07-.32.34-.97,1.18-1.16,2.33l-.92,5.52h-1.91Z"/>
    </g>
    <g class="cls-4">
      <path class="cls-3" d="m86.62,407.8l.8-4.58h-.17l-4.33,7.54-1.78-7.54h-.17l-.71,4.58-1.2,7.2h-1.78l2.46-14.66h2.37l1.41,6.19h.15l3.49-6.19h2.5l-2.44,14.66h-1.78l1.2-7.2Z"/>
      <path class="cls-3" d="m93.44,413.59c0-.29.06-.63.13-.99l1.32-6.84h-3.8l.27-1.6h5.73l-1.78,9.28.46.19,3.91-3.46,1.11,1.03-1.78,1.7c-1.87,1.79-2.71,2.35-3.76,2.35-1.18,0-1.81-.67-1.81-1.66Zm1.81-12.58c0-.17.02-.38.08-.67.15-.69.57-1.07,1.49-1.07s1.32.42,1.32.92c0,.17-.02.38-.08.67-.15.69-.57,1.07-1.49,1.07s-1.32-.42-1.32-.92Z"/>
      <path class="cls-3" d="m103.5,410.61c0-3.95,2.48-6.7,6.05-6.7,2.12,0,3.72,1.03,3.72,2.94,0,1.55-1.01,3.44-7.77,3.65-.02.19-.02.4-.02.46,0,1.43.46,2.69,2.58,2.69,1.49,0,2.35-.61,3.55-2.29l1.3.82c-1.22,1.93-2.67,3.07-5.04,3.07-2.81,0-4.37-1.57-4.37-4.64Zm2.16-1.6l-.02.23c5.02-.17,5.71-1.32,5.71-2.31,0-.84-.55-1.51-1.99-1.51-2.02,0-3.36,1.26-3.7,3.59Z"/>
      <path class="cls-3" d="m118.03,413.49c0-.23.04-.63.08-.92l1.18-6.8h-3.07l.25-1.6h2.12c.76,0,1.11-.27,1.24-1.03l.46-2.79h1.81l-.65,3.82h4.43l-.25,1.6h-4.43l-1.28,7.64.42.23,4.45-3.04.94,1.18-2.16,1.58c-1.91,1.41-2.79,1.91-3.78,1.91-1.13,0-1.76-.65-1.76-1.76Z"/>
      <path class="cls-3" d="m128.7,410.61c0-3.95,2.48-6.7,6.05-6.7,2.12,0,3.72,1.03,3.72,2.94,0,1.55-1.01,3.44-7.77,3.65-.02.19-.02.4-.02.46,0,1.43.46,2.69,2.58,2.69,1.49,0,2.35-.61,3.55-2.29l1.3.82c-1.22,1.93-2.67,3.07-5.04,3.07-2.81,0-4.37-1.57-4.37-4.64Zm2.16-1.6l-.02.23c5.02-.17,5.71-1.32,5.71-2.31,0-.84-.55-1.51-1.99-1.51-2.02,0-3.36,1.26-3.7,3.59Z"/>
      <path class="cls-3" d="m143.44,415l1.53-9.24h-2.92l.27-1.6h4.83l-.5,2.96h.1c.8-1.79,1.93-2.96,4.01-2.96h1.47l-.31,1.91h-1.89c-1.22,0-1.93.36-2.6,1.07-.31.34-.97,1.18-1.15,2.33l-.92,5.52h-1.91Z"/>
      <path class="cls-3" d="m155.52,413.91l-1.28-1.03,3.11-3.44-3.8-1.43.73-1.47,3.86,1.34.73-4.39h1.72l-.73,4.39,4.2-1.34.23,1.55-4.24,1.41,1.97,3.44-1.43.97-1.97-3.53-3.11,3.53Z"/>
      <path class="cls-3" d="m169.04,413.59c0-.29.06-.63.13-.99l1.32-6.84h-3.8l.27-1.6h5.73l-1.78,9.28.46.19,3.91-3.46,1.11,1.03-1.78,1.7c-1.87,1.79-2.71,2.35-3.76,2.35-1.18,0-1.81-.67-1.81-1.66Zm1.81-12.58c0-.17.02-.38.08-.67.15-.69.57-1.07,1.49-1.07s1.32.42,1.32.92c0,.17-.02.38-.08.67-.15.69-.57,1.07-1.49,1.07s-1.32-.42-1.32-.92Z"/>
      <path class="cls-3" d="m178.72,415l1.81-10.83h1.91l-.42,2.56h.1c.8-1.72,1.85-2.81,3.59-2.81,1.87,0,2.94,1.22,2.94,3.13,0,.46-.04.96-.15,1.55l-1.07,6.4h-1.91l1.07-6.36c.08-.48.1-.88.1-1.18,0-1.16-.52-1.93-1.7-1.93-.9,0-1.55.46-2.16,1.15-.27.31-1.03,1.22-1.22,2.39l-.99,5.92h-1.91Z"/>
      <path class="cls-3" d="m191.32,415l1.81-10.83h1.91l-.42,2.56h.1c.8-1.72,1.85-2.81,3.59-2.81,1.87,0,2.94,1.22,2.94,3.13,0,.46-.04.96-.15,1.55l-1.07,6.4h-1.91l1.07-6.36c.08-.48.1-.88.1-1.18,0-1.16-.52-1.93-1.7-1.93-.9,0-1.55.46-2.16,1.15-.27.31-1.03,1.22-1.22,2.39l-.99,5.92h-1.91Z"/>
      <path class="cls-3" d="m204.3,410.61c0-3.95,2.48-6.7,6.05-6.7,2.12,0,3.72,1.03,3.72,2.94,0,1.55-1.01,3.44-7.77,3.65-.02.19-.02.4-.02.46,0,1.43.46,2.69,2.58,2.69,1.49,0,2.35-.61,3.55-2.29l1.3.82c-1.22,1.93-2.67,3.07-5.04,3.07-2.81,0-4.37-1.57-4.37-4.64Zm2.16-1.6l-.02.23c5.02-.17,5.71-1.32,5.71-2.31,0-.84-.55-1.51-1.99-1.51-2.02,0-3.36,1.26-3.7,3.59Z"/>
      <path class="cls-3" d="m216.52,415l1.81-10.83h1.91l-.42,2.56h.1c.8-1.72,1.85-2.81,3.59-2.81,1.87,0,2.94,1.22,2.94,3.13,0,.46-.04.96-.15,1.55l-1.07,6.4h-1.91l1.07-6.36c.08-.48.1-.88.1-1.18,0-1.16-.52-1.93-1.7-1.93-.9,0-1.55.46-2.16,1.15-.27.31-1.03,1.22-1.22,2.39l-.99,5.92h-1.91Z"/>
      <path class="cls-3" d="m248.86,412.44h-.08c-.8,1.72-1.87,2.81-3.61,2.81-1.85,0-2.94-1.22-2.94-3.13,0-.46.04-.96.15-1.55l1.07-6.4h1.91l-1.05,6.36c-.08.46-.13.88-.13,1.18,0,1.16.55,1.93,1.7,1.93.9,0,1.57-.46,2.18-1.15.27-.31,1.01-1.22,1.2-2.39l.99-5.92h1.91l-1.81,10.83h-1.91l.42-2.56Z"/>
      <path class="cls-3" d="m254.32,415l1.81-10.83h1.91l-.42,2.56h.1c.8-1.72,1.85-2.81,3.59-2.81,1.87,0,2.94,1.22,2.94,3.13,0,.46-.04.96-.15,1.55l-1.07,6.4h-1.91l1.07-6.36c.08-.48.1-.88.1-1.18,0-1.16-.52-1.93-1.7-1.93-.9,0-1.55.46-2.16,1.15-.27.31-1.03,1.22-1.22,2.39l-.99,5.92h-1.91Z"/>
      <path class="cls-3" d="m274.15,412.44h-.06c-.84,1.68-1.91,2.81-3.8,2.81-2.2,0-3.34-1.47-3.34-4.2,0-3.17,1.43-7.14,5.08-7.14,1.62,0,2.67.76,3.11,2.16h.08l1.11-6.61h1.91l-2.6,15.54h-1.91l.42-2.56Zm-.76.02c.52-.57.99-1.41,1.15-2.39l.38-2.27c.23-1.43-.76-2.27-2.31-2.27-1.97,0-3.09,1.3-3.42,3.25l-.23,1.45c-.06.36-.08.67-.08.94,0,1.51.69,2.46,2.12,2.46.88,0,1.68-.4,2.39-1.18Z"/>
      <path class="cls-3" d="m297.58,414.73l-3.44-1.22-.1.08-.23,1.41h-1.83l.25-1.81,7.37-6.61c-1.53-.82-2.44-1.09-3.25-1.09-1.45,0-1.76,1.07-1.76,2.35h-1.51v-.23c0-2.37,1.22-3.7,3.3-3.7,1.2,0,2.39.44,3.97,1.49l.36.21.1-.08.21-1.37h1.85l-.27,1.76-7.37,6.61,5.12,1.16.23-.25-.65-2.65,1.3-.5.34.8c.34.74.57,1.51.57,2.16,0,1.01-.82,1.95-2.2,1.95-.67,0-1.39-.13-2.33-.48Z"/>
      <path class="cls-3" d="m305.1,410.61c0-3.95,2.48-6.7,6.05-6.7,2.12,0,3.72,1.03,3.72,2.94,0,1.55-1.01,3.44-7.77,3.65-.02.19-.02.4-.02.46,0,1.43.46,2.69,2.58,2.69,1.49,0,2.35-.61,3.55-2.29l1.3.82c-1.22,1.93-2.67,3.07-5.04,3.07-2.81,0-4.37-1.57-4.37-4.64Zm2.16-1.6l-.02.23c5.02-.17,5.71-1.32,5.71-2.31,0-.84-.55-1.51-1.99-1.51-2.02,0-3.36,1.26-3.7,3.59Z"/>
      <path class="cls-3" d="m319.84,415l1.53-9.24h-2.92l.27-1.6h4.83l-.5,2.96h.1c.8-1.79,1.93-2.96,4.01-2.96h1.47l-.31,1.91h-1.89c-1.22,0-1.93.36-2.6,1.07-.31.34-.97,1.18-1.15,2.33l-.92,5.52h-1.91Z"/>
      <path class="cls-3" d="m329.82,413.26l1.3-1.09c.8,1.01,1.89,1.55,3.46,1.55,1.78,0,2.88-.71,2.88-1.91,0-.92-.65-1.2-1.49-1.34l-1.55-.25c-1.6-.25-3.17-.8-3.17-2.79,0-2.33,2.1-3.51,4.7-3.51,1.89,0,3.3.63,4.09,1.64l-1.26,1.13c-.4-.57-1.3-1.24-3-1.24s-2.67.69-2.67,1.78c0,.97.73,1.18,1.57,1.32l1.55.27c1.45.27,3.11.69,3.11,2.75,0,2.29-1.97,3.67-4.93,3.67-2.1,0-3.7-.71-4.6-1.99Z"/>
      <path class="cls-3" d="m344.83,413.49c0-.23.04-.63.08-.92l1.18-6.8h-3.07l.25-1.6h2.12c.76,0,1.11-.27,1.24-1.03l.46-2.79h1.81l-.65,3.82h4.43l-.25,1.6h-4.43l-1.28,7.64.42.23,4.45-3.04.94,1.18-2.16,1.58c-1.91,1.41-2.79,1.91-3.78,1.91-1.13,0-1.76-.65-1.76-1.76Z"/>
      <path class="cls-3" d="m355.29,410.66c0-4.14,2.5-6.74,5.75-6.74,2.83,0,4.33,1.85,4.33,4.6,0,4.14-2.5,6.74-5.77,6.74-2.81,0-4.3-1.85-4.3-4.6Zm7.83-.27l.21-1.32c.08-.46.1-.78.1-1.03,0-1.72-.97-2.52-2.48-2.52-1.91,0-3.09,1.24-3.42,3.28l-.21,1.32c-.08.46-.1.78-.1,1.03,0,1.72.97,2.52,2.48,2.52,1.91,0,3.09-1.24,3.42-3.28Zm-4.7-9.09c0-.15.04-.36.1-.57.17-.57.42-.97,1.34-.97s1.2.38,1.2.82c0,.15-.04.36-.1.57-.17.57-.42.97-1.34.97s-1.2-.38-1.2-.82Zm4.03,0c0-.15.04-.36.1-.57.17-.57.42-.97,1.34-.97s1.2.38,1.2.82c0,.15-.04.36-.1.57-.17.57-.42.97-1.34.97s-1.2-.38-1.2-.82Z"/>
      <path class="cls-3" d="m370.24,415l1.53-9.24h-2.92l.27-1.6h4.83l-.5,2.96h.1c.8-1.79,1.93-2.96,4.01-2.96h1.47l-.32,1.91h-1.89c-1.22,0-1.93.36-2.6,1.07-.31.34-.97,1.18-1.15,2.33l-.92,5.52h-1.91Z"/>
      <path class="cls-3" d="m382.63,413.49c0-.23.04-.63.08-.92l1.18-6.8h-3.07l.25-1.6h2.12c.76,0,1.11-.27,1.24-1.03l.46-2.79h1.81l-.65,3.82h4.43l-.25,1.6h-4.43l-1.28,7.64.42.23,4.45-3.04.94,1.18-2.16,1.58c-1.91,1.41-2.79,1.91-3.78,1.91-1.13,0-1.76-.65-1.76-1.76Z"/>
    </g>
    <g class="cls-4">
      <path class="cls-3" d="m77.42,445.94l1.26-1.24c.59.73,1.47,1.13,2.73,1.13,1.89,0,3-.86,3.42-3.3l.42-2.48h-.1c-.82,1.72-1.91,2.81-3.8,2.81-2.25,0-3.38-1.51-3.38-4.12,0-3.02,1.47-6.84,5.06-6.84,1.64,0,2.69.76,3.11,2.16h.08l.31-1.91h1.93l-1.78,10.69c-.57,3.25-2.54,4.6-5.35,4.6-1.78,0-3.09-.48-3.91-1.51Zm7.05-5.84c.42-.48.97-1.24,1.15-2.37l.31-1.95c.23-1.41-.76-2.25-2.33-2.25-1.93,0-3.09,1.3-3.4,3.21l-.19,1.09c-.06.36-.1.61-.1.94,0,1.58.71,2.48,2.14,2.48.86,0,1.7-.34,2.41-1.16Z"/>
      <path class="cls-3" d="m90.9,438.61c0-3.95,2.48-6.7,6.05-6.7,2.12,0,3.72,1.03,3.72,2.94,0,1.55-1.01,3.44-7.77,3.65-.02.19-.02.4-.02.46,0,1.43.46,2.69,2.58,2.69,1.49,0,2.35-.61,3.55-2.29l1.3.82c-1.22,1.93-2.67,3.07-5.04,3.07-2.81,0-4.37-1.57-4.37-4.64Zm2.16-1.6l-.02.23c5.02-.17,5.71-1.32,5.71-2.31,0-.84-.55-1.51-1.99-1.51-2.02,0-3.36,1.26-3.7,3.59Z"/>
      <path class="cls-3" d="m102.81,441.05c0-.42.06-.94.15-1.51l1.22-7.37h1.66l-1.2,7.14c-.08.44-.13.88-.13,1.24,0,.76.31,1.11.9,1.11.52,0,.92-.34,1.28-.84s.55-1.26.65-1.81l1.15-6.84h1.62l-1.18,7.16c-.08.48-.1.88-.1,1.22,0,.78.25,1.13.86,1.13,1.47,0,2.62-3.34,2.62-6.38,0-1.03-.17-2.1-.46-2.79l1.53-.46c.36.76.59,1.89.59,3.19,0,2.52-.61,4.89-1.68,6.36-.78,1.07-1.81,1.62-2.96,1.62-1.22,0-1.93-.65-1.83-2.23h-.13c-.59,1.41-1.36,2.23-2.67,2.23s-1.91-.84-1.91-2.16Z"/>
      <path class="cls-3" d="m122.53,443l.42-2.56h-.06c-.84,1.68-1.91,2.81-3.8,2.81-2.2,0-3.34-1.47-3.34-4.2,0-3.17,1.43-7.14,5.08-7.14,1.62,0,2.67.76,3.11,2.16h.08l.31-1.91h1.91l-1.81,10.83h-1.91Zm-.34-2.54c.52-.57.99-1.41,1.15-2.39l.38-2.27c.23-1.43-.76-2.27-2.31-2.27-1.97,0-3.09,1.3-3.42,3.25l-.23,1.45c-.06.36-.08.67-.08.94,0,1.51.69,2.46,2.12,2.46.88,0,1.68-.4,2.39-1.18Z"/>
      <path class="cls-3" d="m128.74,438.68c0-4.05,2.41-6.76,5.65-6.76,2.33,0,3.46,1.15,3.86,2.62l-1.62.67c-.4-1.24-1.11-1.68-2.44-1.68-1.72,0-2.86,1.15-3.21,3.28l-.21,1.26c-.08.46-.1.73-.1,1.01,0,1.72.97,2.56,2.5,2.56.94,0,1.83-.29,3.51-2.58l1.32.8c-1.39,2.2-2.75,3.4-5.08,3.4-2.75,0-4.18-1.83-4.18-4.58Z"/>
      <path class="cls-3" d="m143.53,427.46h1.91l-1.22,7.26h.1c.8-1.72,1.85-2.81,3.59-2.81,1.87,0,2.94,1.22,2.94,3.13,0,.46-.04.96-.15,1.55l-1.07,6.4h-1.91l1.07-6.36c.08-.48.1-.88.1-1.18,0-1.16-.52-1.93-1.7-1.93-.9,0-1.55.46-2.16,1.15-.29.34-1.03,1.22-1.22,2.39l-.99,5.92h-1.91l2.6-15.54Z"/>
      <path class="cls-3" d="m153.42,441.26l1.3-1.09c.8,1.01,1.89,1.55,3.46,1.55,1.78,0,2.88-.71,2.88-1.91,0-.92-.65-1.2-1.49-1.34l-1.55-.25c-1.6-.25-3.17-.8-3.17-2.79,0-2.33,2.1-3.51,4.7-3.51,1.89,0,3.3.63,4.09,1.64l-1.26,1.13c-.4-.57-1.3-1.24-3-1.24s-2.67.69-2.67,1.78c0,.97.73,1.18,1.57,1.32l1.55.27c1.45.27,3.11.69,3.11,2.75,0,2.29-1.97,3.67-4.93,3.67-2.1,0-3.7-.71-4.6-1.99Z"/>
      <path class="cls-3" d="m166.5,438.61c0-3.95,2.48-6.7,6.05-6.7,2.12,0,3.72,1.03,3.72,2.94,0,1.55-1.01,3.44-7.77,3.65-.02.19-.02.4-.02.46,0,1.43.46,2.69,2.58,2.69,1.49,0,2.35-.61,3.55-2.29l1.3.82c-1.22,1.93-2.67,3.07-5.04,3.07-2.81,0-4.37-1.57-4.37-4.64Zm2.16-1.6l-.02.23c5.02-.17,5.71-1.32,5.71-2.31,0-.84-.55-1.51-1.99-1.51-2.02,0-3.36,1.26-3.7,3.59Z"/>
      <path class="cls-3" d="m178.72,443l1.81-10.83h1.91l-.42,2.56h.1c.8-1.72,1.85-2.81,3.59-2.81,1.87,0,2.94,1.22,2.94,3.13,0,.46-.04.96-.15,1.55l-1.07,6.4h-1.91l1.07-6.36c.08-.48.1-.88.1-1.18,0-1.16-.52-1.93-1.7-1.93-.9,0-1.55.46-2.16,1.15-.27.31-1.03,1.22-1.22,2.39l-.99,5.92h-1.91Z"/>
      <path class="cls-3" d="m191.7,438.61c0-3.95,2.48-6.7,6.05-6.7,2.12,0,3.72,1.03,3.72,2.94,0,1.55-1.01,3.44-7.77,3.65-.02.19-.02.4-.02.46,0,1.43.46,2.69,2.58,2.69,1.49,0,2.35-.61,3.55-2.29l1.3.82c-1.22,1.93-2.67,3.07-5.04,3.07-2.81,0-4.37-1.57-4.37-4.64Zm2.16-1.6l-.02.23c5.02-.17,5.71-1.32,5.71-2.31,0-.84-.55-1.51-1.99-1.51-2.02,0-3.36,1.26-3.7,3.59Z"/>
      <path class="cls-3" d="m215.91,440.73l1.41-1.22c.9,1.36,2.14,2.04,3.8,2.04,2.16,0,3.49-1.11,3.49-2.9,0-1.13-.59-1.81-2.18-2.16l-1.55-.34c-2.27-.52-3.28-1.74-3.28-3.61,0-2.75,2.14-4.45,5.33-4.45,2.46,0,4.01,1.03,4.79,2.35l-1.41,1.09c-.78-1.16-1.89-1.76-3.46-1.76-2.02,0-3.21,1.01-3.21,2.6,0,1.24.76,1.78,2.27,2.14l1.49.36c2.37.57,3.28,1.78,3.28,3.61,0,2.81-2.16,4.77-5.65,4.77-2.5,0-4.24-1.03-5.1-2.52Z"/>
      <path class="cls-3" d="m231.43,441.49c0-.23.04-.63.08-.92l1.18-6.8h-3.07l.25-1.6h2.12c.76,0,1.11-.27,1.24-1.03l.46-2.79h1.81l-.65,3.82h4.43l-.25,1.6h-4.43l-1.28,7.64.42.23,4.45-3.04.94,1.18-2.16,1.58c-1.91,1.41-2.79,1.91-3.78,1.91-1.13,0-1.76-.65-1.76-1.76Z"/>
      <path class="cls-3" d="m244.24,443l1.53-9.24h-2.92l.27-1.6h4.83l-.5,2.96h.1c.8-1.79,1.93-2.96,4.01-2.96h1.47l-.31,1.91h-1.89c-1.22,0-1.93.36-2.6,1.07-.31.34-.97,1.18-1.15,2.33l-.92,5.52h-1.91Z"/>
      <path class="cls-3" d="m261.46,440.44h-.08c-.8,1.72-1.87,2.81-3.61,2.81-1.85,0-2.94-1.22-2.94-3.13,0-.46.04-.96.15-1.55l1.07-6.4h1.91l-1.05,6.36c-.08.46-.13.88-.13,1.18,0,1.16.55,1.93,1.7,1.93.9,0,1.57-.46,2.18-1.15.27-.31,1.01-1.22,1.2-2.39l.99-5.92h1.91l-1.81,10.83h-1.91l.42-2.56Z"/>
      <path class="cls-3" d="m269.53,427.46h1.91l-1.22,7.26h.1c.76-1.64,1.91-2.81,3.72-2.81s2.83,1.07,2.83,2.65c0,1.43-.84,3.09-4.26,3.95l1.36,3.07.29.06,2.58-2.39,1.01,1.03-1.41,1.43c-1.07,1.07-1.74,1.55-2.6,1.55s-1.34-.44-1.78-1.47l-1.57-3.55c3.32-.84,4.43-1.95,4.43-3.23,0-.94-.61-1.51-1.7-1.51-.97,0-1.62.46-2.23,1.2-.59.69-1.03,1.47-1.18,2.39l-.99,5.92h-1.91l2.6-15.54Z"/>
      <path class="cls-3" d="m281.83,441.49c0-.23.04-.63.08-.92l1.18-6.8h-3.07l.25-1.6h2.12c.76,0,1.11-.27,1.24-1.03l.46-2.79h1.81l-.65,3.82h4.43l-.25,1.6h-4.43l-1.28,7.64.42.23,4.45-3.04.94,1.18-2.16,1.58c-1.91,1.41-2.79,1.91-3.78,1.91-1.13,0-1.76-.65-1.76-1.76Z"/>
      <path class="cls-3" d="m299.26,440.44h-.08c-.8,1.72-1.87,2.81-3.61,2.81-1.85,0-2.94-1.22-2.94-3.13,0-.46.04-.96.15-1.55l1.07-6.4h1.91l-1.05,6.36c-.08.46-.13.88-.13,1.18,0,1.16.55,1.93,1.7,1.93.9,0,1.57-.46,2.18-1.15.27-.31,1.01-1.22,1.2-2.39l.99-5.92h1.91l-1.81,10.83h-1.91l.42-2.56Z"/>
      <path class="cls-3" d="m307.24,443l1.53-9.24h-2.92l.27-1.6h4.83l-.5,2.96h.1c.8-1.79,1.93-2.96,4.01-2.96h1.47l-.31,1.91h-1.89c-1.22,0-1.93.36-2.6,1.07-.31.34-.97,1.18-1.15,2.33l-.92,5.52h-1.91Z"/>
      <path class="cls-3" d="m317.7,438.61c0-3.95,2.48-6.7,6.05-6.7,2.12,0,3.72,1.03,3.72,2.94,0,1.55-1.01,3.44-7.77,3.65-.02.19-.02.4-.02.46,0,1.43.46,2.69,2.58,2.69,1.49,0,2.35-.61,3.55-2.29l1.3.82c-1.22,1.93-2.67,3.07-5.04,3.07-2.81,0-4.37-1.57-4.37-4.64Zm2.16-1.6l-.02.23c5.02-.17,5.71-1.32,5.71-2.31,0-.84-.55-1.51-1.99-1.51-2.02,0-3.36,1.26-3.7,3.59Z"/>
      <path class="cls-3" d="m329.92,443l1.81-10.83h1.91l-.42,2.56h.1c.8-1.72,1.85-2.81,3.59-2.81,1.87,0,2.94,1.22,2.94,3.13,0,.46-.04.96-.15,1.55l-1.07,6.4h-1.91l1.07-6.36c.08-.48.1-.88.1-1.18,0-1.16-.52-1.93-1.7-1.93-.9,0-1.55.46-2.16,1.15-.27.31-1.03,1.22-1.22,2.39l-.99,5.92h-1.91Z"/>
      <path class="cls-3" d="m345.33,442.16c0-.17.04-.42.1-.73.15-.78.67-1.32,1.83-1.32,1.07,0,1.49.46,1.49,1.03,0,.17-.04.42-.1.76-.15.78-.67,1.32-1.83,1.32-1.07,0-1.49-.46-1.49-1.05Z"/>
    </g>
  </g>
  <g id="Rechteck_3152" class="rechteck">
    <path class="cls-1" d="m142.83,14h358c43.63,0,79,35.37,79,79h0c0,43.63-35.37,79-79,79H142.83c-43.63,0-79-35.37-79-79h0c0-43.63,35.37-79,79-79Z"/>
    <path class="cls-3" d="m500.83,172H142.83c-43.56,0-79-35.44-79-79S99.27,14,142.83,14h358c43.56,0,79,35.44,79,79s-35.44,79-79,79ZM142.83,15c-43.01,0-78,34.99-78,78s34.99,78,78,78h358c43.01,0,78-34.99,78-78s-34.99-78-78-78H142.83Z"/>
  </g>
  <g id="Rechteck_3154" class="rechteck">
    <path class="cls-1" d="m227.83,171h358c43.63,0,79,35.37,79,79h0c0,43.63-35.37,79-79,79H227.83c-43.63,0-79-35.37-79-79h0c0-43.63,35.37-79,79-79Z"/>
    <path class="cls-3" d="m585.83,329H227.83c-43.56,0-79-35.44-79-79s35.44-79,79-79h358c43.56,0,79,35.44,79,79s-35.44,79-79,79ZM227.83,172c-43.01,0-78,34.99-78,78s34.99,78,78,78h358c43.01,0,78-34.99,78-78s-34.99-78-78-78H227.83Z"/>
  </g>
  <g id="Rechteck_3155" class="rechteck">
    <path class="cls-1" d="m92.83,328h358c43.63,0,79,35.37,79,79h0c0,43.63-35.37,79-79,79H92.83c-43.63,0-79-35.37-79-79h0c0-43.63,35.37-79,79-79Z"/>
    <path class="cls-3" d="m450.83,486H92.83c-43.56,0-79-35.44-79-79s35.44-79,79-79h358c43.56,0,79,35.44,79,79s-35.44,79-79,79ZM92.83,329c-43.01,0-78,34.99-78,78s34.99,78,78,78h358c43.01,0,78-34.99,78-78s-34.99-78-78-78H92.83Z"/>
  </g>
  <g id="Rechteck_3153" class="rechteck">
    <path class="cls-1" d="m86.33,171h47c15.74,0,28.5,12.76,28.5,28.5h0c0,15.74-12.76,28.5-28.5,28.5h-47c-15.74,0-28.5-12.76-28.5-28.5h0c0-15.74,12.76-28.5,28.5-28.5Z"/>
    <path class="cls-3" d="m133.33,228h-47c-15.71,0-28.5-12.79-28.5-28.5s12.79-28.5,28.5-28.5h47c15.71,0,28.5,12.79,28.5,28.5s-12.79,28.5-28.5,28.5Zm-47-56c-15.16,0-27.5,12.34-27.5,27.5s12.34,27.5,27.5,27.5h47c15.16,0,27.5-12.34,27.5-27.5s-12.34-27.5-27.5-27.5h-47Z"/>
  </g>
  <g id="Rechteck_3156" class="rechteck">
    <path class="cls-1" d="m227.83,171h396c43.63,0,79,35.37,79,79h0c0,43.63-35.37,79-79,79H227.83c-43.63,0-79-35.37-79-79h0c0-43.63,35.37-79,79-79Z"/>
    <path class="cls-3" d="m623.83,329H227.83c-43.56,0-79-35.44-79-79s35.44-79,79-79h396c43.56,0,79,35.44,79,79s-35.44,79-79,79ZM227.83,172c-43.01,0-78,34.99-78,78s34.99,78,78,78h396c43.01,0,78-34.99,78-78s-34.99-78-78-78H227.83Z"/>
  </g>
  <g id="Rechteck_3157" class="rechteck">
    <path class="cls-1" d="m227.83,171h431c43.63,0,79,35.37,79,79h0c0,43.63-35.37,79-79,79H227.83c-43.63,0-79-35.37-79-79h0c0-43.63,35.37-79,79-79Z"/>
    <path class="cls-3" d="m658.83,329H227.83c-43.56,0-79-35.44-79-79s35.44-79,79-79h431c43.56,0,79,35.44,79,79s-35.44,79-79,79ZM227.83,172c-43.01,0-78,34.99-78,78s34.99,78,78,78h431c43.01,0,78-34.99,78-78s-34.99-78-78-78H227.83Z"/>
  </g>
  <g id="Rechteck_3158" class="rechteck">
    <path class="cls-1" d="m63.33,171h70c15.74,0,28.5,12.76,28.5,28.5h0c0,15.74-12.76,28.5-28.5,28.5H63.33c-15.74,0-28.5-12.76-28.5-28.5h0c0-15.74,12.76-28.5,28.5-28.5Z"/>
    <path class="cls-3" d="m133.33,228H63.33c-15.71,0-28.5-12.79-28.5-28.5s12.79-28.5,28.5-28.5h70c15.71,0,28.5,12.79,28.5,28.5s-12.79,28.5-28.5,28.5Zm-70-56c-15.16,0-27.5,12.34-27.5,27.5s12.34,27.5,27.5,27.5h70c15.16,0,27.5-12.34,27.5-27.5s-12.34-27.5-27.5-27.5H63.33Z"/>
  </g>
  <g id="Rechteck_3159" class="rechteck">
    <path class="cls-1" d="m42.33,171h91c15.74,0,28.5,12.76,28.5,28.5h0c0,15.74-12.76,28.5-28.5,28.5H42.33c-15.74,0-28.5-12.76-28.5-28.5h0c0-15.74,12.76-28.5,28.5-28.5Z"/>
    <path class="cls-3" d="m133.33,228H42.33c-15.71,0-28.5-12.79-28.5-28.5s12.79-28.5,28.5-28.5h91c15.71,0,28.5,12.79,28.5,28.5s-12.79,28.5-28.5,28.5Zm-91-56c-15.16,0-27.5,12.34-27.5,27.5s12.34,27.5,27.5,27.5h91c15.16,0,27.5-12.34,27.5-27.5s-12.34-27.5-27.5-27.5H42.33Z"/>
  </g>
</svg>