<?xml version="1.0" encoding="UTF-8"?>
<svg id="Ebene_1"
  xmlns="http://www.w3.org/2000/svg" viewBox="0 0 751.67 500">
  <defs>
    <style>.cls-1{fill:none;}.cls-2{fill:#252525;}.cls-3{isolation:isolate;}</style>
  </defs>
  <g id="Transparenz" class="cls-3">
    <g class="cls-3">
      <path class="cls-2" d="m94.88,157.35h-10.72v23.32h-10.12v-23.32h-10.72v-8.88h31.56v8.88Z"/>
      <path class="cls-2" d="m104.07,148.47h17.53c8.23,0,13.66,5.57,13.66,12.42,0,4.19-2.02,7.91-5.52,10.17l6.35,9.62h-11.73l-4.37-7.36h-5.75v7.36h-10.17v-32.2Zm17.53,15.96c1.93,0,3.54-1.56,3.54-3.54s-1.61-3.54-3.54-3.54h-7.36v7.08h7.36Z"/>
      <path class="cls-2" d="m165.9,175.57h-12.28l-1.33,5.11h-10.21l8.51-32.2h18.4l8.51,32.2h-10.26l-1.33-5.11Zm-2.35-8.97l-2.39-9.25h-2.85l-2.39,9.25h7.64Z"/>
      <path class="cls-2" d="m217.19,148.47v32.2h-9.94l-12.47-16.93v16.93h-9.94v-32.2h9.94l12.47,16.52v-16.52h9.94Z"/>
      <path class="cls-2" d="m256.98,170.05c0,6.62-4.69,11.18-15.5,11.18h-.78c-12.88,0-15-7.18-15-11.5h10.17c.28,1.61,2.21,2.48,5.47,2.48h.14c3.63,0,5.15-.74,5.15-1.98,0-.92-.78-1.7-3.13-1.7h-5.24c-8,0-12.05-3.68-12.05-9.38s3.63-11.23,15-11.23h.46c13.02,0,14.63,8.05,14.63,11.18h-10.17c-.18-1.33-1.43-2.48-4.74-2.48h-.18c-3.82,0-4.69,1.06-4.69,2.02s.78,1.7,2.85,1.7h6.03c7.64,0,11.59,4,11.59,9.71Z"/>
      <path class="cls-2" d="m296.68,160.89c0,6.85-5.43,12.42-13.66,12.42h-7.41v7.36h-10.12v-32.2h17.53c8.23,0,13.66,5.57,13.66,12.42Zm-10.12,0c0-1.98-1.61-3.54-3.54-3.54h-7.41v7.08h7.41c1.93,0,3.54-1.56,3.54-3.54Z"/>
      <path class="cls-2" d="m323.73,175.57h-12.28l-1.33,5.11h-10.21l8.51-32.2h18.4l8.51,32.2h-10.26l-1.33-5.11Zm-2.35-8.97l-2.39-9.25h-2.85l-2.39,9.25h7.64Z"/>
      <path class="cls-2" d="m342.67,148.47h17.53c8.23,0,13.66,5.57,13.66,12.42,0,4.19-2.02,7.91-5.52,10.17l6.35,9.62h-11.73l-4.37-7.36h-5.75v7.36h-10.17v-32.2Zm17.53,15.96c1.93,0,3.54-1.56,3.54-3.54s-1.61-3.54-3.54-3.54h-7.36v7.08h7.36Z"/>
      <path class="cls-2" d="m392.63,157.21v3.22h12.97v8.37h-12.97v3.08h16.1v8.79h-26.22v-32.2h26.22v8.74h-16.1Z"/>
      <path class="cls-2" d="m450.27,148.47v32.2h-9.94l-12.47-16.93v16.93h-9.94v-32.2h9.94l12.47,16.52v-16.52h9.94Z"/>
      <path class="cls-2" d="m488.13,157.35l-14.86,14.45h14.86v8.88h-28.66v-8.88l14.81-14.45h-14.81v-8.88h28.66v8.88Z"/>
    </g>
  </g>
  <g id="Rechteck_2426">
    <path class="cls-1" d="m89.23,122.25h420c23.47,0,42.5,19.03,42.5,42.5h0c0,23.47-19.03,42.5-42.5,42.5H89.23c-23.47,0-42.5-19.03-42.5-42.5h0c0-23.47,19.03-42.5,42.5-42.5Z"/>
    <path class="cls-2" d="m509.23,207.25H89.23c-23.43,0-42.5-19.07-42.5-42.5s19.07-42.5,42.5-42.5h420c23.43,0,42.5,19.07,42.5,42.5s-19.07,42.5-42.5,42.5ZM89.23,123.25c-22.88,0-41.5,18.62-41.5,41.5s18.62,41.5,41.5,41.5h420c22.88,0,41.5-18.62,41.5-41.5s-18.62-41.5-41.5-41.5H89.23Z"/>
  </g>
  <g id="Rechteck_2427">
    <path class="cls-1" d="m138.23,73.25h373c50.53,0,91.5,40.97,91.5,91.5h0c0,50.53-40.97,91.5-91.5,91.5H138.23c-50.53,0-91.5-40.97-91.5-91.5h0c0-50.53,40.97-91.5,91.5-91.5Z"/>
    <path class="cls-2" d="m511.23,256.25H138.23c-50.45,0-91.5-41.05-91.5-91.5s41.05-91.5,91.5-91.5h373c50.45,0,91.5,41.05,91.5,91.5s-41.05,91.5-91.5,91.5ZM138.23,74.25c-49.9,0-90.5,40.6-90.5,90.5s40.6,90.5,90.5,90.5h373c49.9,0,90.5-40.6,90.5-90.5s-40.6-90.5-90.5-90.5H138.23Z"/>
  </g>
  <g id="Rechteck_2430">
    <path class="cls-1" d="m250.73,255.25h366c48.6,0,88,39.4,88,88h0c0,48.6-39.4,88-88,88H250.73c-48.6,0-88-39.4-88-88h0c0-48.6,39.4-88,88-88Z"/>
    <path class="cls-2" d="m616.73,431.25H250.73c-48.52,0-88-39.48-88-88s39.48-88,88-88h366c48.52,0,88,39.48,88,88s-39.48,88-88,88Zm-366-175c-47.97,0-87,39.03-87,87s39.03,87,87,87h366c47.97,0,87-39.03,87-87s-39.03-87-87-87H250.73Z"/>
  </g>
  <g id="Rechteck_2429">
    <path class="cls-1" d="m187.73,23.25h325c77.87,0,141,63.13,141,141h0c0,77.87-63.13,141-141,141H187.73c-77.87,0-141-63.13-141-141h0c0-77.87,63.13-141,141-141Z"/>
    <path class="cls-2" d="m512.73,305.25H187.73c-77.75,0-141-63.25-141-141S109.98,23.25,187.73,23.25h325c77.75,0,141,63.25,141,141s-63.25,141-141,141ZM187.73,24.25c-77.2,0-140,62.8-140,140s62.8,140,140,140h325c77.2,0,140-62.8,140-140s-62.8-140-140-140H187.73Z"/>
  </g>
  <g id="Wir_wollen" class="cls-3">
    <g class="cls-3">
      <path class="cls-2" d="m105.57,109.56l1.34-14.66h1.74l-.82,8.36-.42,4.37h.17l3.28-9.03h2.14l.34,9.03h.17l.97-4.22,1.99-8.5h1.76l-3.55,14.66h-2.81l-.21-8.69h-.17l-3.11,8.69h-2.81Z"/>
      <path class="cls-2" d="m121.37,108.15c0-.29.06-.63.13-.99l1.32-6.84h-3.8l.27-1.6h5.73l-1.78,9.28.46.19,3.91-3.46,1.11,1.03-1.78,1.7c-1.87,1.79-2.71,2.35-3.76,2.35-1.18,0-1.81-.67-1.81-1.66Zm1.81-12.58c0-.17.02-.38.08-.67.15-.69.57-1.07,1.49-1.07s1.32.42,1.32.92c0,.17-.02.38-.08.67-.15.69-.57,1.07-1.49,1.07s-1.32-.42-1.32-.92Z"/>
      <path class="cls-2" d="m133.57,109.56l1.53-9.24h-2.92l.27-1.6h4.83l-.5,2.96h.1c.8-1.79,1.93-2.96,4.01-2.96h1.47l-.31,1.91h-1.89c-1.22,0-1.93.36-2.6,1.07-.31.34-.97,1.18-1.15,2.33l-.92,5.52h-1.91Z"/>
      <path class="cls-2" d="m155.93,107.61c0-.42.06-.94.15-1.51l1.22-7.37h1.66l-1.2,7.14c-.08.44-.13.88-.13,1.24,0,.76.31,1.11.9,1.11.52,0,.92-.34,1.28-.84s.55-1.26.65-1.81l1.15-6.84h1.62l-1.18,7.16c-.08.48-.1.88-.1,1.22,0,.78.25,1.13.86,1.13,1.47,0,2.62-3.34,2.62-6.38,0-1.03-.17-2.1-.46-2.79l1.53-.46c.36.76.59,1.89.59,3.19,0,2.52-.61,4.89-1.68,6.36-.78,1.07-1.81,1.62-2.96,1.62-1.22,0-1.93-.65-1.83-2.23h-.13c-.59,1.41-1.36,2.23-2.67,2.23s-1.91-.84-1.91-2.16Z"/>
      <path class="cls-2" d="m169.01,105.21c0-4.14,2.5-6.74,5.75-6.74,2.83,0,4.33,1.85,4.33,4.6,0,4.14-2.5,6.74-5.77,6.74-2.81,0-4.3-1.85-4.3-4.6Zm7.83-.27l.21-1.32c.08-.46.1-.78.1-1.03,0-1.72-.97-2.52-2.48-2.52-1.91,0-3.09,1.24-3.42,3.28l-.21,1.32c-.08.46-.1.78-.1,1.03,0,1.72.97,2.52,2.48,2.52,1.91,0,3.09-1.24,3.42-3.28Z"/>
      <path class="cls-2" d="m183.9,108.13c0-.25.02-.55.08-.88l2.23-11.63h-3.7l.27-1.6h5.67l-2.69,14,.48.17,4.05-3.53,1.07,1.03-1.99,1.87c-1.93,1.8-2.75,2.25-3.72,2.25-1.24,0-1.76-.69-1.76-1.68Z"/>
      <path class="cls-2" d="m196.5,108.13c0-.25.02-.55.08-.88l2.23-11.63h-3.7l.27-1.6h5.67l-2.69,14,.48.17,4.05-3.53,1.07,1.03-1.99,1.87c-1.93,1.8-2.75,2.25-3.72,2.25-1.24,0-1.76-.69-1.76-1.68Z"/>
      <path class="cls-2" d="m207.02,105.17c0-3.95,2.48-6.7,6.05-6.7,2.12,0,3.72,1.03,3.72,2.94,0,1.55-1.01,3.44-7.77,3.65-.02.19-.02.4-.02.46,0,1.43.46,2.69,2.58,2.69,1.49,0,2.35-.61,3.55-2.29l1.3.82c-1.22,1.93-2.67,3.07-5.04,3.07-2.81,0-4.37-1.57-4.37-4.64Zm2.16-1.6l-.02.23c5.02-.17,5.71-1.32,5.71-2.31,0-.84-.55-1.51-1.99-1.51-2.02,0-3.36,1.26-3.7,3.59Z"/>
      <path class="cls-2" d="m219.25,109.56l1.81-10.83h1.91l-.42,2.56h.1c.8-1.72,1.85-2.81,3.59-2.81,1.87,0,2.94,1.22,2.94,3.13,0,.46-.04.96-.15,1.55l-1.07,6.4h-1.91l1.07-6.36c.08-.48.1-.88.1-1.18,0-1.16-.52-1.93-1.7-1.93-.9,0-1.55.46-2.16,1.15-.27.31-1.03,1.22-1.22,2.39l-.99,5.92h-1.91Z"/>
    </g>
  </g>
  <g id="_über_die_Situation_der_Stadt_schaffen" class="cls-3">
    <g class="cls-3">
      <path class="cls-2" d="m112.76,233.69h-.08c-.8,1.72-1.87,2.81-3.61,2.81-1.85,0-2.94-1.22-2.94-3.13,0-.46.04-.96.15-1.55l1.07-6.4h1.91l-1.05,6.36c-.08.46-.13.88-.13,1.18,0,1.16.55,1.93,1.7,1.93.9,0,1.57-.46,2.18-1.15.27-.31,1.01-1.22,1.2-2.39l.99-5.92h1.91l-1.81,10.83h-1.91l.42-2.56Zm-3.91-11.15c0-.15.04-.36.1-.57.17-.57.42-.97,1.34-.97s1.2.38,1.2.82c0,.15-.04.36-.1.57-.17.57-.42.97-1.34.97s-1.2-.38-1.2-.82Zm4.03,0c0-.15.04-.36.1-.57.17-.57.42-.97,1.34-.97s1.2.38,1.2.82c0,.15-.04.36-.1.57-.17.57-.42.97-1.34.97s-1.2-.38-1.2-.82Z"/>
      <path class="cls-2" d="m120.72,220.72h1.91l-1.22,7.26h.06c.84-1.68,1.91-2.81,3.8-2.81,2.2,0,3.34,1.47,3.34,4.2,0,3.17-1.43,7.14-5.08,7.14-1.62,0-2.67-.76-3.11-2.16h-.08l-.31,1.91h-1.91l2.6-15.54Zm5.65,10.92l.23-1.45c.06-.36.08-.67.08-.94,0-1.51-.69-2.46-2.12-2.46-.88,0-1.7.4-2.39,1.18-.5.57-1.01,1.41-1.15,2.39l-.4,2.27c-.23,1.43.76,2.27,2.31,2.27,1.97,0,3.11-1.3,3.44-3.25Z"/>
      <path class="cls-2" d="m131.2,231.86c0-3.95,2.48-6.7,6.05-6.7,2.12,0,3.72,1.03,3.72,2.94,0,1.55-1.01,3.44-7.77,3.65-.02.19-.02.4-.02.46,0,1.43.46,2.69,2.58,2.69,1.49,0,2.35-.61,3.55-2.29l1.3.82c-1.22,1.93-2.67,3.07-5.04,3.07-2.81,0-4.37-1.57-4.37-4.64Zm2.16-1.6l-.02.23c5.02-.17,5.71-1.32,5.71-2.31,0-.84-.55-1.51-1.99-1.51-2.02,0-3.36,1.26-3.7,3.59Z"/>
      <path class="cls-2" d="m145.94,236.25l1.53-9.24h-2.92l.27-1.6h4.83l-.5,2.96h.1c.8-1.79,1.93-2.96,4.01-2.96h1.47l-.31,1.91h-1.89c-1.22,0-1.93.36-2.6,1.07-.31.34-.97,1.18-1.15,2.33l-.92,5.52h-1.91Z"/>
      <path class="cls-2" d="m175.84,233.69h-.06c-.84,1.68-1.91,2.81-3.8,2.81-2.2,0-3.34-1.47-3.34-4.2,0-3.17,1.43-7.14,5.08-7.14,1.62,0,2.67.76,3.11,2.16h.08l1.11-6.61h1.91l-2.6,15.54h-1.91l.42-2.56Zm-.76.02c.52-.57.99-1.41,1.15-2.39l.38-2.27c.23-1.43-.76-2.27-2.31-2.27-1.97,0-3.09,1.3-3.42,3.25l-.23,1.45c-.06.36-.08.67-.08.94,0,1.51.69,2.46,2.12,2.46.88,0,1.68-.4,2.39-1.18Z"/>
      <path class="cls-2" d="m184.14,234.85c0-.29.06-.63.13-.99l1.32-6.84h-3.8l.27-1.6h5.73l-1.78,9.28.46.19,3.91-3.46,1.11,1.03-1.78,1.7c-1.87,1.79-2.71,2.35-3.76,2.35-1.18,0-1.81-.67-1.81-1.66Zm1.81-12.58c0-.17.02-.38.08-.67.15-.69.57-1.07,1.49-1.07s1.32.42,1.32.92c0,.17-.02.38-.08.67-.15.69-.57,1.07-1.49,1.07s-1.32-.42-1.32-.92Z"/>
      <path class="cls-2" d="m194.2,231.86c0-3.95,2.48-6.7,6.05-6.7,2.12,0,3.72,1.03,3.72,2.94,0,1.55-1.01,3.44-7.77,3.65-.02.19-.02.4-.02.46,0,1.43.46,2.69,2.58,2.69,1.49,0,2.35-.61,3.55-2.29l1.3.82c-1.22,1.93-2.67,3.07-5.04,3.07-2.81,0-4.37-1.57-4.37-4.64Zm2.16-1.6l-.02.23c5.02-.17,5.71-1.32,5.71-2.31,0-.84-.55-1.51-1.99-1.51-2.02,0-3.36,1.26-3.7,3.59Z"/>
      <path class="cls-2" d="m218.41,233.98l1.41-1.22c.9,1.36,2.14,2.04,3.8,2.04,2.16,0,3.49-1.11,3.49-2.9,0-1.13-.59-1.81-2.18-2.16l-1.55-.34c-2.27-.52-3.28-1.74-3.28-3.61,0-2.75,2.14-4.45,5.33-4.45,2.46,0,4.01,1.03,4.79,2.35l-1.41,1.09c-.78-1.16-1.89-1.76-3.46-1.76-2.02,0-3.21,1.01-3.21,2.6,0,1.24.76,1.78,2.27,2.14l1.49.36c2.37.57,3.28,1.78,3.28,3.61,0,2.81-2.16,4.77-5.65,4.77-2.5,0-4.24-1.03-5.1-2.52Z"/>
      <path class="cls-2" d="m234.54,234.85c0-.29.06-.63.13-.99l1.32-6.84h-3.8l.27-1.6h5.73l-1.78,9.28.46.19,3.91-3.46,1.11,1.03-1.78,1.7c-1.87,1.79-2.71,2.35-3.76,2.35-1.18,0-1.81-.67-1.81-1.66Zm1.81-12.58c0-.17.02-.38.08-.67.15-.69.57-1.07,1.49-1.07s1.32.42,1.32.92c0,.17-.02.38-.08.67-.15.69-.57,1.07-1.49,1.07s-1.32-.42-1.32-.92Z"/>
      <path class="cls-2" d="m246.53,234.74c0-.23.04-.63.08-.92l1.18-6.8h-3.07l.25-1.6h2.12c.76,0,1.11-.27,1.24-1.03l.46-2.79h1.81l-.65,3.82h4.43l-.25,1.6h-4.43l-1.28,7.64.42.23,4.45-3.04.94,1.18-2.16,1.58c-1.91,1.41-2.79,1.91-3.78,1.91-1.13,0-1.76-.65-1.76-1.76Z"/>
      <path class="cls-2" d="m263.96,233.69h-.08c-.8,1.72-1.87,2.81-3.61,2.81-1.85,0-2.94-1.22-2.94-3.13,0-.46.04-.96.15-1.55l1.07-6.4h1.91l-1.05,6.36c-.08.46-.13.88-.13,1.18,0,1.16.55,1.93,1.7,1.93.9,0,1.57-.46,2.18-1.15.27-.31,1.01-1.22,1.2-2.39l.99-5.92h1.91l-1.81,10.83h-1.91l.42-2.56Z"/>
      <path class="cls-2" d="m276.22,236.25l.42-2.56h-.06c-.84,1.68-1.91,2.81-3.8,2.81-2.2,0-3.34-1.47-3.34-4.2,0-3.17,1.43-7.14,5.08-7.14,1.62,0,2.67.76,3.11,2.16h.08l.31-1.91h1.91l-1.81,10.83h-1.91Zm-.34-2.54c.52-.57.99-1.41,1.15-2.39l.38-2.27c.23-1.43-.76-2.27-2.31-2.27-1.97,0-3.09,1.3-3.42,3.25l-.23,1.45c-.06.36-.08.67-.08.94,0,1.51.69,2.46,2.12,2.46.88,0,1.68-.4,2.39-1.18Z"/>
      <path class="cls-2" d="m284.33,234.74c0-.23.04-.63.08-.92l1.18-6.8h-3.07l.25-1.6h2.12c.76,0,1.11-.27,1.24-1.03l.46-2.79h1.81l-.65,3.82h4.43l-.25,1.6h-4.43l-1.28,7.64.42.23,4.45-3.04.94,1.18-2.16,1.58c-1.91,1.41-2.79,1.91-3.78,1.91-1.13,0-1.76-.65-1.76-1.76Z"/>
      <path class="cls-2" d="m297.54,234.85c0-.29.06-.63.13-.99l1.32-6.84h-3.8l.27-1.6h5.73l-1.78,9.28.46.19,3.91-3.46,1.11,1.03-1.78,1.7c-1.87,1.79-2.71,2.35-3.76,2.35-1.18,0-1.81-.67-1.81-1.66Zm1.81-12.58c0-.17.02-.38.08-.67.15-.69.57-1.07,1.49-1.07s1.32.42,1.32.92c0,.17-.02.38-.08.67-.15.69-.57,1.07-1.49,1.07s-1.32-.42-1.32-.92Z"/>
      <path class="cls-2" d="m307.39,231.91c0-4.14,2.5-6.74,5.75-6.74,2.83,0,4.33,1.85,4.33,4.6,0,4.14-2.5,6.74-5.77,6.74-2.81,0-4.3-1.85-4.3-4.6Zm7.83-.27l.21-1.32c.08-.46.1-.78.1-1.03,0-1.72-.97-2.52-2.48-2.52-1.91,0-3.09,1.24-3.42,3.28l-.21,1.32c-.08.46-.1.78-.1,1.03,0,1.72.97,2.52,2.48,2.52,1.91,0,3.09-1.24,3.42-3.28Z"/>
      <path class="cls-2" d="m319.82,236.25l1.81-10.83h1.91l-.42,2.56h.1c.8-1.72,1.85-2.81,3.59-2.81,1.87,0,2.94,1.22,2.94,3.13,0,.46-.04.96-.15,1.55l-1.07,6.4h-1.91l1.07-6.36c.08-.48.1-.88.1-1.18,0-1.16-.52-1.93-1.7-1.93-.9,0-1.55.46-2.16,1.15-.27.31-1.03,1.22-1.22,2.39l-.99,5.92h-1.91Z"/>
      <path class="cls-2" d="m352.24,233.69h-.06c-.84,1.68-1.91,2.81-3.8,2.81-2.2,0-3.34-1.47-3.34-4.2,0-3.17,1.43-7.14,5.08-7.14,1.62,0,2.67.76,3.11,2.16h.08l1.11-6.61h1.91l-2.6,15.54h-1.91l.42-2.56Zm-.76.02c.52-.57.99-1.41,1.15-2.39l.38-2.27c.23-1.43-.76-2.27-2.31-2.27-1.97,0-3.09,1.3-3.42,3.25l-.23,1.45c-.06.36-.08.67-.08.94,0,1.51.69,2.46,2.12,2.46.88,0,1.68-.4,2.39-1.18Z"/>
      <path class="cls-2" d="m358,231.86c0-3.95,2.48-6.7,6.05-6.7,2.12,0,3.72,1.03,3.72,2.94,0,1.55-1.01,3.44-7.77,3.65-.02.19-.02.4-.02.46,0,1.43.46,2.69,2.58,2.69,1.49,0,2.35-.61,3.55-2.29l1.3.82c-1.22,1.93-2.67,3.07-5.04,3.07-2.81,0-4.37-1.57-4.37-4.64Zm2.16-1.6l-.02.23c5.02-.17,5.71-1.32,5.71-2.31,0-.84-.55-1.51-1.99-1.51-2.02,0-3.36,1.26-3.7,3.59Z"/>
      <path class="cls-2" d="m372.74,236.25l1.53-9.24h-2.92l.27-1.6h4.83l-.5,2.96h.1c.8-1.79,1.93-2.96,4.01-2.96h1.47l-.31,1.91h-1.89c-1.22,0-1.93.36-2.6,1.07-.31.34-.97,1.18-1.15,2.33l-.92,5.52h-1.91Z"/>
      <path class="cls-2" d="m394.81,233.98l1.41-1.22c.9,1.36,2.14,2.04,3.8,2.04,2.16,0,3.49-1.11,3.49-2.9,0-1.13-.59-1.81-2.18-2.16l-1.55-.34c-2.27-.52-3.28-1.74-3.28-3.61,0-2.75,2.14-4.45,5.33-4.45,2.46,0,4.01,1.03,4.79,2.35l-1.41,1.09c-.78-1.16-1.89-1.76-3.46-1.76-2.02,0-3.21,1.01-3.21,2.6,0,1.24.76,1.78,2.27,2.14l1.49.36c2.37.57,3.28,1.78,3.28,3.61,0,2.81-2.16,4.77-5.65,4.77-2.5,0-4.24-1.03-5.1-2.52Z"/>
      <path class="cls-2" d="m410.33,234.74c0-.23.04-.63.08-.92l1.18-6.8h-3.07l.25-1.6h2.12c.76,0,1.11-.27,1.24-1.03l.46-2.79h1.81l-.65,3.82h4.43l-.25,1.6h-4.43l-1.28,7.64.42.23,4.45-3.04.94,1.18-2.16,1.58c-1.91,1.41-2.79,1.91-3.78,1.91-1.13,0-1.76-.65-1.76-1.76Z"/>
      <path class="cls-2" d="m427.42,236.25l.42-2.56h-.06c-.84,1.68-1.91,2.81-3.8,2.81-2.21,0-3.34-1.47-3.34-4.2,0-3.17,1.43-7.14,5.08-7.14,1.62,0,2.67.76,3.11,2.16h.08l.32-1.91h1.91l-1.81,10.83h-1.91Zm-.34-2.54c.52-.57.99-1.41,1.15-2.39l.38-2.27c.23-1.43-.76-2.27-2.31-2.27-1.97,0-3.09,1.3-3.42,3.25l-.23,1.45c-.06.36-.08.67-.08.94,0,1.51.69,2.46,2.12,2.46.88,0,1.68-.4,2.39-1.18Z"/>
      <path class="cls-2" d="m440.44,233.69h-.06c-.84,1.68-1.91,2.81-3.8,2.81-2.21,0-3.34-1.47-3.34-4.2,0-3.17,1.43-7.14,5.08-7.14,1.62,0,2.67.76,3.11,2.16h.08l1.11-6.61h1.91l-2.6,15.54h-1.91l.42-2.56Zm-.76.02c.52-.57.99-1.41,1.15-2.39l.38-2.27c.23-1.43-.76-2.27-2.31-2.27-1.97,0-3.09,1.3-3.42,3.25l-.23,1.45c-.06.36-.08.67-.08.94,0,1.51.69,2.46,2.12,2.46.88,0,1.68-.4,2.39-1.18Z"/>
      <path class="cls-2" d="m448.13,234.74c0-.23.04-.63.08-.92l1.18-6.8h-3.07l.25-1.6h2.12c.76,0,1.11-.27,1.24-1.03l.46-2.79h1.81l-.65,3.82h4.43l-.25,1.6h-4.43l-1.28,7.64.42.23,4.45-3.04.95,1.18-2.16,1.58c-1.91,1.41-2.79,1.91-3.78,1.91-1.13,0-1.76-.65-1.76-1.76Z"/>
      <path class="cls-2" d="m470.91,234.51l1.3-1.09c.8,1.01,1.89,1.55,3.46,1.55,1.78,0,2.88-.71,2.88-1.91,0-.92-.65-1.2-1.49-1.34l-1.55-.25c-1.6-.25-3.17-.8-3.17-2.79,0-2.33,2.1-3.51,4.7-3.51,1.89,0,3.3.63,4.09,1.64l-1.26,1.13c-.4-.57-1.3-1.24-3-1.24s-2.67.69-2.67,1.78c0,.97.73,1.18,1.57,1.32l1.55.27c1.45.27,3.11.69,3.11,2.75,0,2.29-1.97,3.67-4.93,3.67-2.1,0-3.7-.71-4.6-1.99Z"/>
      <path class="cls-2" d="m484.04,231.93c0-4.05,2.41-6.76,5.65-6.76,2.33,0,3.46,1.15,3.86,2.62l-1.62.67c-.4-1.24-1.11-1.68-2.44-1.68-1.72,0-2.86,1.15-3.21,3.28l-.21,1.26c-.08.46-.1.73-.1,1.01,0,1.72.97,2.56,2.5,2.56.95,0,1.83-.29,3.51-2.58l1.32.8c-1.39,2.2-2.75,3.4-5.08,3.4-2.75,0-4.18-1.83-4.18-4.58Z"/>
      <path class="cls-2" d="m498.82,220.72h1.91l-1.22,7.26h.11c.8-1.72,1.85-2.81,3.59-2.81,1.87,0,2.94,1.22,2.94,3.13,0,.46-.04.96-.15,1.55l-1.07,6.4h-1.91l1.07-6.36c.08-.48.11-.88.11-1.18,0-1.16-.53-1.93-1.7-1.93-.9,0-1.55.46-2.16,1.15-.29.34-1.03,1.22-1.22,2.39l-.99,5.92h-1.91l2.6-15.54Z"/>
      <path class="cls-2" d="m515.62,236.25l.42-2.56h-.06c-.84,1.68-1.91,2.81-3.8,2.81-2.2,0-3.34-1.47-3.34-4.2,0-3.17,1.43-7.14,5.08-7.14,1.62,0,2.67.76,3.11,2.16h.08l.31-1.91h1.91l-1.81,10.83h-1.91Zm-.34-2.54c.53-.57.99-1.41,1.16-2.39l.38-2.27c.23-1.43-.76-2.27-2.31-2.27-1.97,0-3.09,1.3-3.42,3.25l-.23,1.45c-.06.36-.08.67-.08.94,0,1.51.69,2.46,2.12,2.46.88,0,1.68-.4,2.39-1.18Z"/>
      <path class="cls-2" d="m521.12,238.18l-1.2-1.37,1.3-1.09,3.02,3.32.36-.08,2-11.95h-3.78l.27-1.6h3.76l.38-2.12c.23-1.51,1.22-2.58,2.94-2.58h3.67l-.27,1.6h-4.28l-.5,3.11h4.3l-.27,1.6h-4.3l-1.89,11.28c-.23,1.38-.92,2.41-2.27,2.41-1.01,0-1.66-.73-3.23-2.52Z"/>
      <path class="cls-2" d="m533.72,238.18l-1.2-1.37,1.3-1.09,3.02,3.32.36-.08,2-11.95h-3.78l.27-1.6h3.76l.38-2.12c.23-1.51,1.22-2.58,2.94-2.58h3.67l-.27,1.6h-4.28l-.5,3.11h4.3l-.27,1.6h-4.3l-1.89,11.28c-.23,1.38-.92,2.41-2.27,2.41-1.01,0-1.66-.73-3.23-2.52Z"/>
      <path class="cls-2" d="m546.99,231.86c0-3.95,2.48-6.7,6.05-6.7,2.12,0,3.72,1.03,3.72,2.94,0,1.55-1.01,3.44-7.77,3.65-.02.19-.02.4-.02.46,0,1.43.46,2.69,2.58,2.69,1.49,0,2.35-.61,3.55-2.29l1.3.82c-1.22,1.93-2.67,3.07-5.04,3.07-2.81,0-4.37-1.57-4.37-4.64Zm2.16-1.6l-.02.23c5.02-.17,5.71-1.32,5.71-2.31,0-.84-.55-1.51-2-1.51-2.02,0-3.36,1.26-3.7,3.59Z"/>
      <path class="cls-2" d="m559.22,236.25l1.81-10.83h1.91l-.42,2.56h.11c.8-1.72,1.85-2.81,3.59-2.81,1.87,0,2.94,1.22,2.94,3.13,0,.46-.04.96-.15,1.55l-1.07,6.4h-1.91l1.07-6.36c.08-.48.11-.88.11-1.18,0-1.16-.53-1.93-1.7-1.93-.9,0-1.55.46-2.16,1.15-.27.31-1.03,1.22-1.22,2.39l-.99,5.92h-1.91Z"/>
    </g>
  </g>
  <g id="Debatte_über_Leerstände" class="cls-3">
    <g class="cls-3">
      <path class="cls-2" d="m244.79,343.31c0,9.94-7.64,16.1-17.71,16.1h-14.17v-32.2h14.17c10.08,0,17.71,6.12,17.71,16.1Zm-10.31,0c0-4.14-3.13-7.27-7.41-7.27h-4.09v14.54h4.09c4.28-.09,7.41-3.17,7.41-7.27Z"/>
      <path class="cls-2" d="m263.18,335.95v3.22h12.97v8.37h-12.97v3.08h16.1v8.79h-26.22v-32.2h26.22v8.74h-16.1Z"/>
      <path class="cls-2" d="m317.42,343.26c1.43,1.61,2.25,3.63,2.25,5.89,0,5.7-4.6,10.26-10.31,10.26h-20.89v-32.2h20.89c5.7,0,10.31,4.6,10.31,10.31,0,2.25-.83,4.23-2.25,5.75Zm-19.05-3.87h9.39c.83,0,1.61-.74,1.61-1.66s-.74-1.66-1.61-1.66h-9.39v3.31Zm11,9.34c0-.83-.74-1.79-1.79-1.79h-9.2v3.59h9.25c.97,0,1.75-.78,1.75-1.79Z"/>
      <path class="cls-2" d="m349.94,354.3h-12.28l-1.33,5.11h-10.21l8.51-32.2h18.4l8.51,32.2h-10.26l-1.33-5.11Zm-2.35-8.97l-2.39-9.25h-2.85l-2.39,9.25h7.64Z"/>
      <path class="cls-2" d="m396.31,336.09h-10.72v23.32h-10.12v-23.32h-10.72v-8.88h31.56v8.88Z"/>
      <path class="cls-2" d="m437.06,336.09h-10.72v23.32h-10.12v-23.32h-10.72v-8.88h31.56v8.88Z"/>
      <path class="cls-2" d="m456.38,335.95v3.22h12.97v8.37h-12.97v3.08h16.1v8.79h-26.22v-32.2h26.22v8.74h-16.1Z"/>
      <path class="cls-2" d="m499.44,344.74v-17.53h10.12v16.61c0,3.4,1.52,6.39,5.75,6.39h.14c4.28,0,5.75-2.99,5.75-6.39v-16.61h10.12v17.53c0,9.98-6.03,15.23-15.87,15.23h-.14c-9.84,0-15.87-5.24-15.87-15.23Zm6.17-27.51h8.51v8.33h-8.51v-8.33Zm10.86,0h8.51v8.33h-8.51v-8.33Z"/>
      <path class="cls-2" d="m569.45,343.26c1.43,1.61,2.25,3.63,2.25,5.89,0,5.7-4.6,10.26-10.31,10.26h-20.89v-32.2h20.89c5.71,0,10.31,4.6,10.31,10.31,0,2.25-.83,4.23-2.25,5.75Zm-19.05-3.87h9.39c.83,0,1.61-.74,1.61-1.66s-.74-1.66-1.61-1.66h-9.39v3.31Zm11,9.34c0-.83-.74-1.79-1.79-1.79h-9.2v3.59h9.25c.97,0,1.75-.78,1.75-1.79Z"/>
      <path class="cls-2" d="m590.1,335.95v3.22h12.97v8.37h-12.97v3.08h16.1v8.79h-26.22v-32.2h26.22v8.74h-16.1Z"/>
      <path class="cls-2" d="m615.4,327.21h17.53c8.24,0,13.66,5.57,13.66,12.42,0,4.19-2.02,7.91-5.52,10.17l6.35,9.62h-11.73l-4.37-7.36h-5.75v7.36h-10.17v-32.2Zm17.53,15.96c1.93,0,3.54-1.56,3.54-3.54s-1.61-3.54-3.54-3.54h-7.36v7.08h7.36Z"/>
    </g>
    <g class="cls-3">
      <path class="cls-2" d="m238.16,396.53v8.88h-25.26v-32.2h10.12v23.33h15.14Z"/>
      <path class="cls-2" d="m257.48,381.95v3.22h12.97v8.37h-12.97v3.08h16.1v8.79h-26.22v-32.2h26.22v8.74h-16.1Z"/>
      <path class="cls-2" d="m292.9,381.95v3.22h12.97v8.37h-12.97v3.08h16.1v8.79h-26.22v-32.2h26.22v8.74h-16.1Z"/>
      <path class="cls-2" d="m318.2,373.21h17.53c8.23,0,13.66,5.57,13.66,12.42,0,4.19-2.02,7.91-5.52,10.17l6.35,9.62h-11.73l-4.37-7.36h-5.75v7.36h-10.17v-32.2Zm17.53,15.96c1.93,0,3.54-1.56,3.54-3.54s-1.61-3.54-3.54-3.54h-7.36v7.08h7.36Z"/>
      <path class="cls-2" d="m388.63,394.78c0,6.62-4.69,11.18-15.5,11.18h-.78c-12.88,0-15-7.18-15-11.5h10.17c.28,1.61,2.21,2.48,5.47,2.48h.14c3.63,0,5.15-.74,5.15-1.98,0-.92-.78-1.7-3.13-1.7h-5.24c-8,0-12.05-3.68-12.05-9.38s3.63-11.23,15-11.23h.46c13.02,0,14.63,8.05,14.63,11.18h-10.17c-.18-1.33-1.43-2.48-4.74-2.48h-.18c-3.82,0-4.69,1.06-4.69,2.02s.78,1.7,2.85,1.7h6.03c7.64,0,11.59,4,11.59,9.71Z"/>
      <path class="cls-2" d="m426.85,382.09h-10.72v23.32h-10.12v-23.32h-10.72v-8.88h31.56v8.88Z"/>
      <path class="cls-2" d="m453.9,400.3h-12.28l-1.33,5.11h-10.21l8.51-32.2h18.4l8.51,32.2h-10.26l-1.33-5.11Zm-15.87-37.08h8.51v8.33h-8.51v-8.33Zm13.53,28.11l-2.39-9.25h-2.85l-2.39,9.25h7.64Zm-2.67-28.11h8.51v8.33h-8.51v-8.33Z"/>
      <path class="cls-2" d="m505.19,373.21v32.2h-9.94l-12.47-16.93v16.93h-9.94v-32.2h9.94l12.47,16.52v-16.52h9.94Z"/>
      <path class="cls-2" d="m546.27,389.31c0,9.94-7.64,16.1-17.71,16.1h-14.17v-32.2h14.17c10.08,0,17.71,6.12,17.71,16.1Zm-10.31,0c0-4.14-3.13-7.27-7.41-7.27h-4.09v14.54h4.09c4.28-.09,7.41-3.17,7.41-7.27Z"/>
      <path class="cls-2" d="m564.67,381.95v3.22h12.97v8.37h-12.97v3.08h16.1v8.79h-26.22v-32.2h26.22v8.74h-16.1Z"/>
    </g>
  </g>
  <g id="und_eine" class="cls-3">
    <g class="cls-3">
      <path class="cls-2" d="m220.16,284.69h-.08c-.8,1.72-1.87,2.81-3.61,2.81-1.85,0-2.94-1.22-2.94-3.13,0-.46.04-.96.15-1.55l1.07-6.4h1.91l-1.05,6.36c-.08.46-.13.88-.13,1.18,0,1.16.55,1.93,1.7,1.93.9,0,1.57-.46,2.18-1.15.27-.31,1.01-1.22,1.2-2.39l.99-5.92h1.91l-1.81,10.83h-1.91l.42-2.56Z"/>
      <path class="cls-2" d="m225.62,287.25l1.81-10.83h1.91l-.42,2.56h.1c.8-1.72,1.85-2.81,3.59-2.81,1.87,0,2.94,1.22,2.94,3.13,0,.46-.04.96-.15,1.55l-1.07,6.4h-1.91l1.07-6.36c.08-.48.1-.88.1-1.18,0-1.16-.52-1.93-1.7-1.93-.9,0-1.55.46-2.16,1.15-.27.31-1.03,1.22-1.22,2.39l-.99,5.92h-1.91Z"/>
      <path class="cls-2" d="m245.44,284.69h-.06c-.84,1.68-1.91,2.81-3.8,2.81-2.2,0-3.34-1.47-3.34-4.2,0-3.17,1.43-7.14,5.08-7.14,1.62,0,2.67.76,3.11,2.16h.08l1.11-6.61h1.91l-2.6,15.54h-1.91l.42-2.56Zm-.76.02c.52-.57.99-1.41,1.15-2.39l.38-2.27c.23-1.43-.76-2.27-2.31-2.27-1.97,0-3.09,1.3-3.42,3.25l-.23,1.45c-.06.36-.08.67-.08.94,0,1.51.69,2.46,2.12,2.46.88,0,1.68-.4,2.39-1.18Z"/>
      <path class="cls-2" d="m263.8,282.86c0-3.95,2.48-6.7,6.05-6.7,2.12,0,3.72,1.03,3.72,2.94,0,1.55-1.01,3.44-7.77,3.65-.02.19-.02.4-.02.46,0,1.43.46,2.69,2.58,2.69,1.49,0,2.35-.61,3.55-2.29l1.3.82c-1.22,1.93-2.67,3.07-5.04,3.07-2.81,0-4.37-1.57-4.37-4.64Zm2.16-1.6l-.02.23c5.02-.17,5.71-1.32,5.71-2.31,0-.84-.55-1.51-1.99-1.51-2.02,0-3.36,1.26-3.7,3.59Z"/>
      <path class="cls-2" d="m278.94,285.85c0-.29.06-.63.13-.99l1.32-6.84h-3.8l.27-1.6h5.73l-1.78,9.28.46.19,3.91-3.46,1.11,1.03-1.78,1.7c-1.87,1.79-2.71,2.35-3.76,2.35-1.18,0-1.81-.67-1.81-1.66Zm1.81-12.58c0-.17.02-.38.08-.67.15-.69.57-1.07,1.49-1.07s1.32.42,1.32.92c0,.17-.02.38-.08.67-.15.69-.57,1.07-1.49,1.07s-1.32-.42-1.32-.92Z"/>
      <path class="cls-2" d="m288.62,287.25l1.81-10.83h1.91l-.42,2.56h.1c.8-1.72,1.85-2.81,3.59-2.81,1.87,0,2.94,1.22,2.94,3.13,0,.46-.04.96-.15,1.55l-1.07,6.4h-1.91l1.07-6.36c.08-.48.1-.88.1-1.18,0-1.16-.52-1.93-1.7-1.93-.9,0-1.55.46-2.16,1.15-.27.31-1.03,1.22-1.22,2.39l-.99,5.92h-1.91Z"/>
      <path class="cls-2" d="m301.6,282.86c0-3.95,2.48-6.7,6.05-6.7,2.12,0,3.72,1.03,3.72,2.94,0,1.55-1.01,3.44-7.77,3.65-.02.19-.02.4-.02.46,0,1.43.46,2.69,2.58,2.69,1.49,0,2.35-.61,3.55-2.29l1.3.82c-1.22,1.93-2.67,3.07-5.04,3.07-2.81,0-4.37-1.57-4.37-4.64Zm2.16-1.6l-.02.23c5.02-.17,5.71-1.32,5.71-2.31,0-.84-.55-1.51-1.99-1.51-2.02,0-3.36,1.26-3.7,3.59Z"/>
    </g>
  </g>
  <g id="schaffen." class="cls-3">
    <g class="cls-3">
      <path class="cls-2" d="m211.19,458.83l1.3-1.09c.8,1.01,1.89,1.55,3.46,1.55,1.78,0,2.88-.71,2.88-1.91,0-.92-.65-1.2-1.49-1.34l-1.55-.25c-1.6-.25-3.17-.8-3.17-2.79,0-2.33,2.1-3.51,4.7-3.51,1.89,0,3.3.63,4.09,1.64l-1.26,1.13c-.4-.57-1.3-1.24-3-1.24s-2.67.69-2.67,1.78c0,.97.73,1.18,1.57,1.32l1.55.27c1.45.27,3.11.69,3.11,2.75,0,2.29-1.97,3.67-4.93,3.67-2.1,0-3.7-.71-4.6-1.99Z"/>
      <path class="cls-2" d="m224.32,456.25c0-4.05,2.41-6.76,5.65-6.76,2.33,0,3.46,1.15,3.86,2.62l-1.62.67c-.4-1.24-1.11-1.68-2.44-1.68-1.72,0-2.86,1.15-3.21,3.28l-.21,1.26c-.08.46-.1.73-.1,1.01,0,1.72.97,2.56,2.5,2.56.94,0,1.83-.29,3.51-2.58l1.32.8c-1.39,2.2-2.75,3.4-5.08,3.4-2.75,0-4.18-1.83-4.18-4.58Z"/>
      <path class="cls-2" d="m239.1,445.03h1.91l-1.22,7.26h.1c.8-1.72,1.85-2.81,3.59-2.81,1.87,0,2.94,1.22,2.94,3.13,0,.46-.04.96-.15,1.55l-1.07,6.4h-1.91l1.07-6.36c.08-.48.1-.88.1-1.18,0-1.16-.52-1.93-1.7-1.93-.9,0-1.55.46-2.16,1.15-.29.34-1.03,1.22-1.22,2.39l-.99,5.92h-1.91l2.6-15.54Z"/>
      <path class="cls-2" d="m255.9,460.57l.42-2.56h-.06c-.84,1.68-1.91,2.81-3.8,2.81-2.2,0-3.34-1.47-3.34-4.2,0-3.17,1.43-7.14,5.08-7.14,1.62,0,2.67.76,3.11,2.16h.08l.31-1.91h1.91l-1.81,10.83h-1.91Zm-.34-2.54c.52-.57.99-1.41,1.15-2.39l.38-2.27c.23-1.43-.76-2.27-2.31-2.27-1.97,0-3.09,1.3-3.42,3.25l-.23,1.45c-.06.36-.08.67-.08.94,0,1.51.69,2.46,2.12,2.46.88,0,1.68-.4,2.39-1.18Z"/>
      <path class="cls-2" d="m261.4,462.5l-1.2-1.37,1.3-1.09,3.02,3.32.36-.08,1.99-11.95h-3.78l.27-1.6h3.76l.38-2.12c.23-1.51,1.22-2.58,2.94-2.58h3.67l-.27,1.6h-4.28l-.5,3.11h4.3l-.27,1.6h-4.3l-1.89,11.28c-.23,1.38-.92,2.41-2.27,2.41-1.01,0-1.66-.73-3.23-2.52Z"/>
      <path class="cls-2" d="m274,462.5l-1.2-1.37,1.3-1.09,3.02,3.32.36-.08,1.99-11.95h-3.78l.27-1.6h3.76l.38-2.12c.23-1.51,1.22-2.58,2.94-2.58h3.67l-.27,1.6h-4.28l-.5,3.11h4.3l-.27,1.6h-4.3l-1.89,11.28c-.23,1.38-.92,2.41-2.27,2.41-1.01,0-1.66-.73-3.23-2.52Z"/>
      <path class="cls-2" d="m287.27,456.18c0-3.95,2.48-6.7,6.05-6.7,2.12,0,3.72,1.03,3.72,2.94,0,1.55-1.01,3.44-7.77,3.65-.02.19-.02.4-.02.46,0,1.43.46,2.69,2.58,2.69,1.49,0,2.35-.61,3.55-2.29l1.3.82c-1.22,1.93-2.67,3.07-5.04,3.07-2.81,0-4.37-1.57-4.37-4.64Zm2.16-1.6l-.02.23c5.02-.17,5.71-1.32,5.71-2.31,0-.84-.55-1.51-1.99-1.51-2.02,0-3.36,1.26-3.7,3.59Z"/>
      <path class="cls-2" d="m299.5,460.57l1.81-10.83h1.91l-.42,2.56h.1c.8-1.72,1.85-2.81,3.59-2.81,1.87,0,2.94,1.22,2.94,3.13,0,.46-.04.96-.15,1.55l-1.07,6.4h-1.91l1.07-6.36c.08-.48.1-.88.1-1.18,0-1.16-.52-1.93-1.7-1.93-.9,0-1.55.46-2.16,1.15-.27.31-1.03,1.22-1.22,2.39l-.99,5.92h-1.91Z"/>
      <path class="cls-2" d="m314.91,459.73c0-.17.04-.42.1-.73.15-.78.67-1.32,1.83-1.32,1.07,0,1.49.46,1.49,1.03,0,.17-.04.42-.1.76-.15.78-.67,1.32-1.83,1.32-1.07,0-1.49-.46-1.49-1.05Z"/>
    </g>
  </g>
  <g id="Rechteck_2431" class="rechteck">
    <path class="cls-1" d="m248.73,304.25h370c47.5,0,86,38.5,86,86h0c0,47.5-38.5,86-86,86H248.73c-47.5,0-86-38.5-86-86h0c0-47.5,38.5-86,86-86Z"/>
    <path class="cls-2" d="m618.73,476.25H248.73c-47.42,0-86-38.58-86-86s38.58-86,86-86h370c47.42,0,86,38.58,86,86s-38.58,86-86,86Zm-370-171c-46.87,0-85,38.13-85,85s38.13,85,85,85h370c46.87,0,85-38.13,85-85s-38.13-85-85-85H248.73Z"/>
  </g>
</svg>