<?xml version="1.0" encoding="UTF-8"?>
<svg id="Ebene_1"
  xmlns="http://www.w3.org/2000/svg" viewBox="0 0 751.67 500">
  <defs>
    <style>.cls-1{fill:none;}.cls-2{fill:#252525;}.cls-3{isolation:isolate;}</style>
  </defs>
  <g id="Wie_viel_Leerstand_kann_sich_die_Gesellschaft_leisten_" class="cls-3">
    <g class="cls-3">
      <path class="cls-2" d="m216.51,229.3l-3.88,14.7h-4.89l-2.2-7.92-2.2,7.92h-4.89l-3.88-14.7h4.87l1.78,8.27,2.14-8.27h3.95l2.5,8.54,1.85-8.54h4.87Z"/>
      <path class="cls-2" d="m217.77,229.3h4.62v14.7h-4.62v-14.7Z"/>
      <path class="cls-2" d="m229.11,233.29v1.47h5.92v3.82h-5.92v1.41h7.35v4.01h-11.97v-14.7h11.97v3.99h-7.35Z"/>
      <path class="cls-2" d="m259.89,229.3l-3.88,14.7h-8.44v-.17l-3.84-14.53h4.87l2.6,10.64h1.18l2.62-10.64h4.89Z"/>
      <path class="cls-2" d="m261.16,229.3h4.62v14.7h-4.62v-14.7Z"/>
      <path class="cls-2" d="m272.49,233.29v1.47h5.92v3.82h-5.92v1.41h7.35v4.01h-11.97v-14.7h11.97v3.99h-7.35Z"/>
      <path class="cls-2" d="m293.47,239.95v4.05h-11.53v-14.7h4.62v10.64h6.91Z"/>
    </g>
    <g class="cls-3">
      <path class="cls-2" d="m308.66,244l2.46-14.66h1.95l-2.14,12.93h6.82l-.27,1.72h-8.82Z"/>
      <path class="cls-2" d="m321.19,239.61c0-3.95,2.48-6.7,6.05-6.7,2.12,0,3.72,1.03,3.72,2.94,0,1.55-1.01,3.44-7.77,3.65-.02.19-.02.4-.02.46,0,1.43.46,2.69,2.58,2.69,1.49,0,2.35-.61,3.55-2.29l1.3.82c-1.22,1.93-2.67,3.07-5.04,3.07-2.81,0-4.37-1.57-4.37-4.64Zm2.16-1.6l-.02.23c5.02-.17,5.71-1.32,5.71-2.31,0-.84-.55-1.51-1.99-1.51-2.02,0-3.36,1.26-3.7,3.59Z"/>
      <path class="cls-2" d="m333.79,239.61c0-3.95,2.48-6.7,6.05-6.7,2.12,0,3.72,1.03,3.72,2.94,0,1.55-1.01,3.44-7.77,3.65-.02.19-.02.4-.02.46,0,1.43.46,2.69,2.58,2.69,1.49,0,2.35-.61,3.55-2.29l1.3.82c-1.22,1.93-2.67,3.07-5.04,3.07-2.81,0-4.37-1.57-4.37-4.64Zm2.16-1.6l-.02.23c5.02-.17,5.71-1.32,5.71-2.31,0-.84-.55-1.51-1.99-1.51-2.02,0-3.36,1.26-3.7,3.59Z"/>
      <path class="cls-2" d="m348.53,244l1.53-9.24h-2.92l.27-1.6h4.83l-.5,2.96h.1c.8-1.79,1.93-2.96,4.01-2.96h1.47l-.31,1.91h-1.89c-1.22,0-1.93.36-2.6,1.07-.31.34-.97,1.18-1.15,2.33l-.92,5.52h-1.91Z"/>
      <path class="cls-2" d="m358.51,242.26l1.3-1.09c.8,1.01,1.89,1.55,3.46,1.55,1.78,0,2.88-.71,2.88-1.91,0-.92-.65-1.2-1.49-1.34l-1.55-.25c-1.6-.25-3.17-.8-3.17-2.79,0-2.33,2.1-3.51,4.7-3.51,1.89,0,3.3.63,4.09,1.64l-1.26,1.13c-.4-.57-1.3-1.24-3-1.24s-2.67.69-2.67,1.78c0,.97.73,1.18,1.57,1.32l1.55.27c1.45.27,3.11.69,3.11,2.75,0,2.29-1.97,3.67-4.93,3.67-2.1,0-3.7-.71-4.6-1.99Z"/>
      <path class="cls-2" d="m373.52,242.49c0-.23.04-.63.08-.92l1.18-6.8h-3.07l.25-1.6h2.12c.76,0,1.11-.27,1.24-1.03l.46-2.79h1.81l-.65,3.82h4.43l-.25,1.6h-4.43l-1.28,7.64.42.23,4.45-3.04.95,1.18-2.16,1.58c-1.91,1.41-2.79,1.91-3.78,1.91-1.13,0-1.76-.65-1.76-1.76Z"/>
      <path class="cls-2" d="m390.62,244l.42-2.56h-.06c-.84,1.68-1.91,2.81-3.8,2.81-2.21,0-3.34-1.47-3.34-4.2,0-3.17,1.43-7.14,5.08-7.14,1.62,0,2.67.76,3.11,2.16h.08l.32-1.91h1.91l-1.81,10.83h-1.91Zm-.34-2.54c.52-.57.99-1.41,1.15-2.39l.38-2.27c.23-1.43-.76-2.27-2.31-2.27-1.97,0-3.09,1.3-3.42,3.25l-.23,1.45c-.06.36-.08.67-.08.94,0,1.51.69,2.46,2.12,2.46.88,0,1.68-.4,2.39-1.18Z"/>
      <path class="cls-2" d="m396.41,244l1.81-10.83h1.91l-.42,2.56h.11c.8-1.72,1.85-2.81,3.59-2.81,1.87,0,2.94,1.22,2.94,3.13,0,.46-.04.96-.15,1.55l-1.07,6.4h-1.91l1.07-6.36c.08-.48.11-.88.11-1.18,0-1.16-.53-1.93-1.7-1.93-.9,0-1.55.46-2.16,1.15-.27.31-1.03,1.22-1.22,2.39l-.99,5.92h-1.91Z"/>
      <path class="cls-2" d="m416.24,241.44h-.06c-.84,1.68-1.91,2.81-3.8,2.81-2.2,0-3.34-1.47-3.34-4.2,0-3.17,1.43-7.14,5.08-7.14,1.62,0,2.67.76,3.11,2.16h.08l1.11-6.61h1.91l-2.6,15.54h-1.91l.42-2.56Zm-.76.02c.53-.57.99-1.41,1.16-2.39l.38-2.27c.23-1.43-.76-2.27-2.31-2.27-1.97,0-3.09,1.3-3.42,3.25l-.23,1.45c-.06.36-.08.67-.08.94,0,1.51.69,2.46,2.12,2.46.88,0,1.68-.4,2.39-1.18Z"/>
      <path class="cls-2" d="m436.82,228.46h1.91l-1.22,7.26h.1c.76-1.64,1.91-2.81,3.72-2.81s2.83,1.07,2.83,2.65c0,1.43-.84,3.09-4.26,3.95l1.36,3.07.29.06,2.58-2.39,1.01,1.03-1.41,1.43c-1.07,1.07-1.74,1.55-2.6,1.55s-1.34-.44-1.78-1.47l-1.58-3.55c3.32-.84,4.43-1.95,4.43-3.23,0-.94-.61-1.51-1.7-1.51-.97,0-1.62.46-2.23,1.2-.59.69-1.03,1.47-1.18,2.39l-.99,5.92h-1.91l2.6-15.54Z"/>
      <path class="cls-2" d="m453.62,244l.42-2.56h-.06c-.84,1.68-1.91,2.81-3.8,2.81-2.21,0-3.34-1.47-3.34-4.2,0-3.17,1.43-7.14,5.08-7.14,1.62,0,2.67.76,3.11,2.16h.08l.32-1.91h1.91l-1.81,10.83h-1.91Zm-.34-2.54c.52-.57.99-1.41,1.15-2.39l.38-2.27c.23-1.43-.76-2.27-2.31-2.27-1.97,0-3.09,1.3-3.42,3.25l-.23,1.45c-.06.36-.08.67-.08.94,0,1.51.69,2.46,2.12,2.46.88,0,1.68-.4,2.39-1.18Z"/>
      <path class="cls-2" d="m459.41,244l1.81-10.83h1.91l-.42,2.56h.11c.8-1.72,1.85-2.81,3.59-2.81,1.87,0,2.94,1.22,2.94,3.13,0,.46-.04.96-.15,1.55l-1.07,6.4h-1.91l1.07-6.36c.08-.48.11-.88.11-1.18,0-1.16-.53-1.93-1.7-1.93-.9,0-1.55.46-2.16,1.15-.27.31-1.03,1.22-1.22,2.39l-.99,5.92h-1.91Z"/>
      <path class="cls-2" d="m472.01,244l1.81-10.83h1.91l-.42,2.56h.1c.8-1.72,1.85-2.81,3.59-2.81,1.87,0,2.94,1.22,2.94,3.13,0,.46-.04.96-.15,1.55l-1.07,6.4h-1.91l1.07-6.36c.08-.48.1-.88.1-1.18,0-1.16-.52-1.93-1.7-1.93-.9,0-1.55.46-2.16,1.15-.27.31-1.03,1.22-1.22,2.39l-.99,5.92h-1.91Z"/>
      <path class="cls-2" d="m497.11,242.26l1.3-1.09c.8,1.01,1.89,1.55,3.46,1.55,1.79,0,2.88-.71,2.88-1.91,0-.92-.65-1.2-1.49-1.34l-1.55-.25c-1.6-.25-3.17-.8-3.17-2.79,0-2.33,2.1-3.51,4.7-3.51,1.89,0,3.3.63,4.09,1.64l-1.26,1.13c-.4-.57-1.3-1.24-3-1.24s-2.67.69-2.67,1.78c0,.97.74,1.18,1.58,1.32l1.55.27c1.45.27,3.11.69,3.11,2.75,0,2.29-1.97,3.67-4.93,3.67-2.1,0-3.7-.71-4.6-1.99Z"/>
      <path class="cls-2" d="m512.73,242.59c0-.29.06-.63.13-.99l1.32-6.84h-3.8l.27-1.6h5.73l-1.78,9.28.46.19,3.91-3.46,1.11,1.03-1.78,1.7c-1.87,1.79-2.71,2.35-3.76,2.35-1.18,0-1.81-.67-1.81-1.66Zm1.81-12.58c0-.17.02-.38.08-.67.15-.69.57-1.07,1.49-1.07s1.32.42,1.32.92c0,.17-.02.38-.08.67-.15.69-.57,1.07-1.49,1.07s-1.32-.42-1.32-.92Z"/>
      <path class="cls-2" d="m522.83,239.68c0-4.05,2.41-6.76,5.65-6.76,2.33,0,3.46,1.15,3.86,2.62l-1.62.67c-.4-1.24-1.11-1.68-2.44-1.68-1.72,0-2.86,1.15-3.21,3.28l-.21,1.26c-.08.46-.1.73-.1,1.01,0,1.72.97,2.56,2.5,2.56.95,0,1.83-.29,3.51-2.58l1.32.8c-1.39,2.2-2.75,3.4-5.08,3.4-2.75,0-4.18-1.83-4.18-4.58Z"/>
      <path class="cls-2" d="m537.62,228.46h1.91l-1.22,7.26h.1c.8-1.72,1.85-2.81,3.59-2.81,1.87,0,2.94,1.22,2.94,3.13,0,.46-.04.96-.15,1.55l-1.07,6.4h-1.91l1.07-6.36c.08-.48.1-.88.1-1.18,0-1.16-.52-1.93-1.7-1.93-.9,0-1.55.46-2.16,1.15-.29.34-1.03,1.22-1.22,2.39l-.99,5.92h-1.91l2.6-15.54Z"/>
    </g>
    <g class="cls-3">
      <path class="cls-2" d="m202.65,269.44h-.06c-.84,1.68-1.91,2.81-3.8,2.81-2.2,0-3.34-1.47-3.34-4.2,0-3.17,1.43-7.14,5.08-7.14,1.62,0,2.67.76,3.11,2.16h.08l1.11-6.61h1.91l-2.6,15.54h-1.91l.42-2.56Zm-.76.02c.52-.57.99-1.41,1.15-2.39l.38-2.27c.23-1.43-.76-2.27-2.31-2.27-1.97,0-3.09,1.3-3.42,3.25l-.23,1.45c-.06.36-.08.67-.08.94,0,1.51.69,2.46,2.12,2.46.88,0,1.68-.4,2.39-1.18Z"/>
      <path class="cls-2" d="m210.94,270.59c0-.29.06-.63.13-.99l1.32-6.84h-3.8l.27-1.6h5.73l-1.78,9.28.46.19,3.91-3.46,1.11,1.03-1.78,1.7c-1.87,1.79-2.71,2.35-3.76,2.35-1.18,0-1.81-.67-1.81-1.66Zm1.81-12.58c0-.17.02-.38.08-.67.15-.69.57-1.07,1.49-1.07s1.32.42,1.32.92c0,.17-.02.38-.08.67-.15.69-.57,1.07-1.49,1.07s-1.32-.42-1.32-.92Z"/>
      <path class="cls-2" d="m221,267.61c0-3.95,2.48-6.7,6.05-6.7,2.12,0,3.72,1.03,3.72,2.94,0,1.55-1.01,3.44-7.77,3.65-.02.19-.02.4-.02.46,0,1.43.46,2.69,2.58,2.69,1.49,0,2.35-.61,3.55-2.29l1.3.82c-1.22,1.93-2.67,3.07-5.04,3.07-2.81,0-4.37-1.57-4.37-4.64Zm2.16-1.6l-.02.23c5.02-.17,5.71-1.32,5.71-2.31,0-.84-.55-1.51-1.99-1.51-2.02,0-3.36,1.26-3.7,3.59Z"/>
      <path class="cls-2" d="m253.45,269.86h-.13c-.76,1.3-1.62,2.39-3.49,2.39-2.46,0-3.8-1.83-3.8-5.31,0-3.8,1.47-9.85,6.61-9.85,2.77,0,3.84,1.72,4.14,3.51l-1.85.52c-.25-1.26-.76-2.33-2.44-2.33-2.25,0-3.49,1.87-3.97,4.72l-.34,2.04c-.1.61-.13,1.32-.13,1.72,0,2.02.69,3.3,2.44,3.3,1.89,0,3.07-1.49,3.36-3.25l.19-1.11h-2.98l.25-1.53h4.81l-1.22,7.33h-1.83l.36-2.14Z"/>
      <path class="cls-2" d="m258.8,267.61c0-3.95,2.48-6.7,6.05-6.7,2.12,0,3.72,1.03,3.72,2.94,0,1.55-1.01,3.44-7.77,3.65-.02.19-.02.4-.02.46,0,1.43.46,2.69,2.58,2.69,1.49,0,2.35-.61,3.55-2.29l1.3.82c-1.22,1.93-2.67,3.07-5.04,3.07-2.81,0-4.37-1.57-4.37-4.64Zm2.16-1.6l-.02.23c5.02-.17,5.71-1.32,5.71-2.31,0-.84-.55-1.51-1.99-1.51-2.02,0-3.36,1.26-3.7,3.59Z"/>
      <path class="cls-2" d="m270.92,270.26l1.3-1.09c.8,1.01,1.89,1.55,3.46,1.55,1.78,0,2.88-.71,2.88-1.91,0-.92-.65-1.2-1.49-1.34l-1.55-.25c-1.6-.25-3.17-.8-3.17-2.79,0-2.33,2.1-3.51,4.7-3.51,1.89,0,3.3.63,4.09,1.64l-1.26,1.13c-.4-.57-1.3-1.24-3-1.24s-2.67.69-2.67,1.78c0,.97.73,1.18,1.57,1.32l1.55.27c1.45.27,3.11.69,3.11,2.75,0,2.29-1.97,3.67-4.93,3.67-2.1,0-3.7-.71-4.6-1.99Z"/>
      <path class="cls-2" d="m284,267.61c0-3.95,2.48-6.7,6.05-6.7,2.12,0,3.72,1.03,3.72,2.94,0,1.55-1.01,3.44-7.77,3.65-.02.19-.02.4-.02.46,0,1.43.46,2.69,2.58,2.69,1.49,0,2.35-.61,3.55-2.29l1.3.82c-1.22,1.93-2.67,3.07-5.04,3.07-2.81,0-4.37-1.57-4.37-4.64Zm2.16-1.6l-.02.23c5.02-.17,5.71-1.32,5.71-2.31,0-.84-.55-1.51-1.99-1.51-2.02,0-3.36,1.26-3.7,3.59Z"/>
      <path class="cls-2" d="m298.68,270.57c0-.25.02-.55.08-.88l2.23-11.63h-3.7l.27-1.6h5.67l-2.69,14,.48.17,4.05-3.53,1.07,1.03-1.99,1.87c-1.93,1.8-2.75,2.25-3.72,2.25-1.24,0-1.76-.69-1.76-1.68Z"/>
      <path class="cls-2" d="m311.28,270.57c0-.25.02-.55.08-.88l2.23-11.63h-3.7l.27-1.6h5.67l-2.69,14,.48.17,4.05-3.53,1.07,1.03-1.99,1.87c-1.93,1.8-2.75,2.25-3.72,2.25-1.24,0-1.76-.69-1.76-1.68Z"/>
      <path class="cls-2" d="m321.32,270.26l1.3-1.09c.8,1.01,1.89,1.55,3.46,1.55,1.78,0,2.88-.71,2.88-1.91,0-.92-.65-1.2-1.49-1.34l-1.55-.25c-1.6-.25-3.17-.8-3.17-2.79,0-2.33,2.1-3.51,4.7-3.51,1.89,0,3.3.63,4.09,1.64l-1.26,1.13c-.4-.57-1.3-1.24-3-1.24s-2.67.69-2.67,1.78c0,.97.73,1.18,1.57,1.32l1.55.27c1.45.27,3.11.69,3.11,2.75,0,2.29-1.97,3.67-4.93,3.67-2.1,0-3.7-.71-4.6-1.99Z"/>
      <path class="cls-2" d="m334.44,267.68c0-4.05,2.41-6.76,5.65-6.76,2.33,0,3.46,1.15,3.86,2.62l-1.62.67c-.4-1.24-1.11-1.68-2.44-1.68-1.72,0-2.86,1.15-3.21,3.28l-.21,1.26c-.08.46-.1.73-.1,1.01,0,1.72.97,2.56,2.5,2.56.94,0,1.83-.29,3.51-2.58l1.32.8c-1.39,2.2-2.75,3.4-5.08,3.4-2.75,0-4.18-1.83-4.18-4.58Z"/>
      <path class="cls-2" d="m349.23,256.46h1.91l-1.22,7.26h.1c.8-1.72,1.85-2.81,3.59-2.81,1.87,0,2.94,1.22,2.94,3.13,0,.46-.04.96-.15,1.55l-1.07,6.4h-1.91l1.07-6.36c.08-.48.1-.88.1-1.18,0-1.16-.52-1.93-1.7-1.93-.9,0-1.55.46-2.16,1.15-.29.34-1.03,1.22-1.22,2.39l-.99,5.92h-1.91l2.6-15.54Z"/>
      <path class="cls-2" d="m366.03,272l.42-2.56h-.06c-.84,1.68-1.91,2.81-3.8,2.81-2.2,0-3.34-1.47-3.34-4.2,0-3.17,1.43-7.14,5.08-7.14,1.62,0,2.67.76,3.11,2.16h.08l.31-1.91h1.91l-1.81,10.83h-1.91Zm-.34-2.54c.52-.57.99-1.41,1.15-2.39l.38-2.27c.23-1.43-.76-2.27-2.31-2.27-1.97,0-3.09,1.3-3.42,3.25l-.23,1.45c-.06.36-.08.67-.08.94,0,1.51.69,2.46,2.12,2.46.88,0,1.68-.4,2.39-1.18Z"/>
      <path class="cls-2" d="m371.53,273.93l-1.2-1.37,1.3-1.09,3.02,3.32.36-.08,1.99-11.95h-3.78l.27-1.6h3.76l.38-2.12c.23-1.51,1.22-2.58,2.94-2.58h3.67l-.27,1.6h-4.28l-.5,3.11h4.3l-.27,1.6h-4.3l-1.89,11.28c-.23,1.38-.92,2.41-2.27,2.41-1.01,0-1.66-.73-3.23-2.52Z"/>
      <path class="cls-2" d="m386.73,270.49c0-.23.04-.63.08-.92l1.18-6.8h-3.07l.25-1.6h2.12c.76,0,1.11-.27,1.24-1.03l.46-2.79h1.81l-.65,3.82h4.43l-.25,1.6h-4.43l-1.28,7.64.42.23,4.45-3.04.94,1.18-2.16,1.58c-1.91,1.41-2.79,1.91-3.78,1.91-1.13,0-1.76-.65-1.76-1.76Z"/>
      <path class="cls-2" d="m412.08,270.57c0-.25.02-.55.08-.88l2.23-11.63h-3.7l.27-1.6h5.67l-2.69,14,.48.17,4.05-3.53,1.07,1.03-2,1.87c-1.93,1.8-2.75,2.25-3.72,2.25-1.24,0-1.76-.69-1.76-1.68Z"/>
      <path class="cls-2" d="m422.6,267.61c0-3.95,2.48-6.7,6.05-6.7,2.12,0,3.72,1.03,3.72,2.94,0,1.55-1.01,3.44-7.77,3.65-.02.19-.02.4-.02.46,0,1.43.46,2.69,2.58,2.69,1.49,0,2.35-.61,3.55-2.29l1.3.82c-1.22,1.93-2.67,3.07-5.04,3.07-2.81,0-4.37-1.57-4.37-4.64Zm2.16-1.6l-.02.23c5.02-.17,5.71-1.32,5.71-2.31,0-.84-.55-1.51-1.99-1.51-2.02,0-3.36,1.26-3.7,3.59Z"/>
      <path class="cls-2" d="m437.74,270.59c0-.29.06-.63.13-.99l1.32-6.84h-3.8l.27-1.6h5.73l-1.78,9.28.46.19,3.91-3.46,1.11,1.03-1.78,1.7c-1.87,1.79-2.71,2.35-3.76,2.35-1.18,0-1.81-.67-1.81-1.66Zm1.81-12.58c0-.17.02-.38.08-.67.15-.69.57-1.07,1.49-1.07s1.32.42,1.32.92c0,.17-.02.38-.08.67-.15.69-.57,1.07-1.49,1.07s-1.32-.42-1.32-.92Z"/>
      <path class="cls-2" d="m447.32,270.26l1.3-1.09c.8,1.01,1.89,1.55,3.46,1.55,1.78,0,2.88-.71,2.88-1.91,0-.92-.65-1.2-1.49-1.34l-1.55-.25c-1.6-.25-3.17-.8-3.17-2.79,0-2.33,2.1-3.51,4.7-3.51,1.89,0,3.3.63,4.09,1.64l-1.26,1.13c-.4-.57-1.3-1.24-3-1.24s-2.67.69-2.67,1.78c0,.97.73,1.18,1.57,1.32l1.55.27c1.45.27,3.11.69,3.11,2.75,0,2.29-1.97,3.67-4.93,3.67-2.1,0-3.7-.71-4.6-1.99Z"/>
      <path class="cls-2" d="m462.33,270.49c0-.23.04-.63.08-.92l1.18-6.8h-3.07l.25-1.6h2.12c.76,0,1.11-.27,1.24-1.03l.46-2.79h1.81l-.65,3.82h4.43l-.25,1.6h-4.43l-1.28,7.64.42.23,4.45-3.04.94,1.18-2.16,1.58c-1.91,1.41-2.79,1.91-3.78,1.91-1.13,0-1.76-.65-1.76-1.76Z"/>
      <path class="cls-2" d="m473,267.61c0-3.95,2.48-6.7,6.05-6.7,2.12,0,3.72,1.03,3.72,2.94,0,1.55-1.01,3.44-7.77,3.65-.02.19-.02.4-.02.46,0,1.43.46,2.69,2.58,2.69,1.49,0,2.35-.61,3.55-2.29l1.3.82c-1.22,1.93-2.67,3.07-5.04,3.07-2.81,0-4.37-1.57-4.37-4.64Zm2.16-1.6l-.02.23c5.02-.17,5.71-1.32,5.71-2.31,0-.84-.55-1.51-1.99-1.51-2.02,0-3.36,1.26-3.7,3.59Z"/>
      <path class="cls-2" d="m485.22,272l1.81-10.83h1.91l-.42,2.56h.1c.8-1.72,1.85-2.81,3.59-2.81,1.87,0,2.94,1.22,2.94,3.13,0,.46-.04.96-.15,1.55l-1.07,6.4h-1.91l1.07-6.36c.08-.48.1-.88.1-1.18,0-1.16-.52-1.93-1.7-1.93-.9,0-1.55.46-2.16,1.15-.27.31-1.03,1.22-1.22,2.39l-.99,5.92h-1.91Z"/>
      <path class="cls-2" d="m501.48,267.4l.55-3.28c2.86-.32,3.99-1.03,4.28-2.83.04-.25.04-.55.04-.61,0-1.18-.9-1.89-2.25-1.89-1.66,0-2.58.99-3.11,2.35l-1.66-.71c.67-1.76,2.23-3.34,4.98-3.34,2.56,0,4.12,1.41,4.12,3.59,0,2.77-2.1,4.37-4.7,4.74l-.34,1.97h-1.91Zm-1.2,3.78c0-.17.04-.4.11-.74.15-.78.65-1.3,1.78-1.3,1.05,0,1.47.46,1.47,1.01,0,.17-.04.42-.1.76-.15.78-.67,1.3-1.79,1.3-1.05,0-1.47-.46-1.47-1.03Z"/>
    </g>
  </g>
  <g id="Rechteck_3160" class="rechteck">
    <path class="cls-1" d="m196.83,171h358c43.63,0,79,35.37,79,79h0c0,43.63-35.37,79-79,79H196.83c-43.63,0-79-35.37-79-79h0c0-43.63,35.37-79,79-79Z"/>
    <path class="cls-2" d="m554.83,329H196.83c-43.56,0-79-35.44-79-79s35.44-79,79-79h358c43.56,0,79,35.44,79,79s-35.44,79-79,79ZM196.83,172c-43.01,0-78,34.99-78,78s34.99,78,78,78h358c43.01,0,78-34.99,78-78s-34.99-78-78-78H196.83Z"/>
  </g>
  <g id="Rechteck_3161" class="rechteck">
    <path class="cls-1" d="m194.44,137.88h362.79c61.92,0,112.12,50.2,112.12,112.12h0c0,61.92-50.2,112.12-112.12,112.12H194.44c-61.92,0-112.12-50.2-112.12-112.12h0c0-61.92,50.2-112.12,112.12-112.12Z"/>
    <path class="cls-2" d="m557.23,362.12H194.44c-61.82,0-112.12-50.3-112.12-112.12s50.3-112.12,112.12-112.12h362.79c61.82,0,112.12,50.3,112.12,112.12s-50.3,112.12-112.12,112.12ZM194.44,138.88c-61.27,0-111.12,49.85-111.12,111.12s49.85,111.12,111.12,111.12h362.79c61.27,0,111.12-49.85,111.12-111.12s-49.85-111.12-111.12-111.12H194.44Z"/>
  </g>
  <g id="Rechteck_3162" class="rechteck">
    <path class="cls-1" d="m190.44,104.88h370.79c80.15,0,145.12,64.97,145.12,145.12h0c0,80.15-64.97,145.12-145.12,145.12H190.44c-80.15,0-145.12-64.97-145.12-145.12h0c0-80.15,64.97-145.12,145.12-145.12Z"/>
    <path class="cls-2" d="m561.23,395.12H190.44c-80.02,0-145.12-65.1-145.12-145.12S110.42,104.88,190.44,104.88h370.79c80.02,0,145.12,65.1,145.12,145.12s-65.1,145.12-145.12,145.12ZM190.44,105.88c-79.47,0-144.12,64.65-144.12,144.12s64.65,144.12,144.12,144.12h370.79c79.47,0,144.12-64.65,144.12-144.12s-64.65-144.12-144.12-144.12H190.44Z"/>
  </g>
</svg>